<svg width="1354" height="261" viewBox="0 0 1354 261" fill="none" xmlns="http://www.w3.org/2000/svg">
<g opacity="0.9">
<g opacity="0.406997">
<path d="M332 228.5C332 224.082 335.582 220.5 340 220.5H364C368.418 220.5 372 224.082 372 228.5V252.5C372 256.918 368.418 260.5 364 260.5H340C335.582 260.5 332 256.918 332 252.5V228.5Z" fill="white" fill-opacity="0.12"/>
</g>
<g opacity="0.01">
<path d="M288 228.5C288 224.082 291.582 220.5 296 220.5H320C324.418 220.5 328 224.082 328 228.5V252.5C328 256.918 324.418 260.5 320 260.5H296C291.582 260.5 288 256.918 288 252.5V228.5Z" fill="white" fill-opacity="0.12"/>
</g>
<g opacity="0.870639">
<path d="M244 228.5C244 224.082 247.582 220.5 252 220.5H276C280.418 220.5 284 224.082 284 228.5V252.5C284 256.918 280.418 260.5 276 260.5H252C247.582 260.5 244 256.918 244 252.5V228.5Z" fill="white" fill-opacity="0.12"/>
</g>
<g opacity="0.550602">
<path d="M200 228.5C200 224.082 203.582 220.5 208 220.5H232C236.418 220.5 240 224.082 240 228.5V252.5C240 256.918 236.418 260.5 232 260.5H208C203.582 260.5 200 256.918 200 252.5V228.5Z" fill="white" fill-opacity="0.12"/>
</g>
<g opacity="0.597494">
<path d="M156 228.5C156 224.082 159.582 220.5 164 220.5H188C192.418 220.5 196 224.082 196 228.5V252.5C196 256.918 192.418 260.5 188 260.5H164C159.582 260.5 156 256.918 156 252.5V228.5Z" fill="white" fill-opacity="0.12"/>
</g>
<g opacity="0.713385">
<path d="M68 228.5C68 224.082 71.5817 220.5 76 220.5H100C104.418 220.5 108 224.082 108 228.5V252.5C108 256.918 104.418 260.5 100 260.5H76C71.5817 260.5 68 256.918 68 252.5V228.5Z" fill="white" fill-opacity="0.12"/>
</g>
<g opacity="0.63104">
<path d="M332 184.5C332 180.082 335.582 176.5 340 176.5H364C368.418 176.5 372 180.082 372 184.5V208.5C372 212.918 368.418 216.5 364 216.5H340C335.582 216.5 332 212.918 332 208.5V184.5Z" fill="white" fill-opacity="0.12"/>
</g>
<g opacity="0.428746">
<path d="M288 184.5C288 180.082 291.582 176.5 296 176.5H320C324.418 176.5 328 180.082 328 184.5V208.5C328 212.918 324.418 216.5 320 216.5H296C291.582 216.5 288 212.918 288 208.5V184.5Z" fill="white" fill-opacity="0.12"/>
</g>
<g opacity="0.339668">
<path d="M156 184.5C156 180.082 159.582 176.5 164 176.5H188C192.418 176.5 196 180.082 196 184.5V208.5C196 212.918 192.418 216.5 188 216.5H164C159.582 216.5 156 212.918 156 208.5V184.5Z" fill="white" fill-opacity="0.12"/>
</g>
<g opacity="0.032285">
<path d="M112 184.5C112 180.082 115.582 176.5 120 176.5H144C148.418 176.5 152 180.082 152 184.5V208.5C152 212.918 148.418 216.5 144 216.5H120C115.582 216.5 112 212.918 112 208.5V184.5Z" fill="white" fill-opacity="0.12"/>
</g>
<g opacity="0.115114">
<path d="M68 184.5C68 180.082 71.5817 176.5 76 176.5H100C104.418 176.5 108 180.082 108 184.5V208.5C108 212.918 104.418 216.5 100 216.5H76C71.5817 216.5 68 212.918 68 208.5V184.5Z" fill="white" fill-opacity="0.12"/>
</g>
<g opacity="0.753539">
<path d="M24 184.5C24 180.082 27.5817 176.5 32 176.5H56C60.4183 176.5 64 180.082 64 184.5V208.5C64 212.918 60.4183 216.5 56 216.5H32C27.5817 216.5 24 212.918 24 208.5V184.5Z" fill="white" fill-opacity="0.12"/>
</g>
<g opacity="0.970147">
<path d="M200 140.5C200 136.082 203.582 132.5 208 132.5H232C236.418 132.5 240 136.082 240 140.5V164.5C240 168.918 236.418 172.5 232 172.5H208C203.582 172.5 200 168.918 200 164.5V140.5Z" fill="white" fill-opacity="0.12"/>
</g>
<g opacity="0.795098">
<path d="M156 140.5C156 136.082 159.582 132.5 164 132.5H188C192.418 132.5 196 136.082 196 140.5V164.5C196 168.918 192.418 172.5 188 172.5H164C159.582 172.5 156 168.918 156 164.5V140.5Z" fill="white" fill-opacity="0.12"/>
</g>
<g opacity="0.380384">
<path d="M112 140.5C112 136.082 115.582 132.5 120 132.5H144C148.418 132.5 152 136.082 152 140.5V164.5C152 168.918 148.418 172.5 144 172.5H120C115.582 172.5 112 168.918 112 164.5V140.5Z" fill="white" fill-opacity="0.12"/>
</g>
<g opacity="0.01">
<path d="M68 140.5C68 136.082 71.5817 132.5 76 132.5H100C104.418 132.5 108 136.082 108 140.5V164.5C108 168.918 104.418 172.5 100 172.5H76C71.5817 172.5 68 168.918 68 164.5V140.5Z" fill="white" fill-opacity="0.12"/>
</g>
<g opacity="0.920591">
<path d="M24 140.5C24 136.082 27.5817 132.5 32 132.5H56C60.4183 132.5 64 136.082 64 140.5V164.5C64 168.918 60.4183 172.5 56 172.5H32C27.5817 172.5 24 168.918 24 164.5V140.5Z" fill="white" fill-opacity="0.12"/>
</g>
<g opacity="0.175989">
<path d="M200 96.5C200 92.0817 203.582 88.5 208 88.5H232C236.418 88.5 240 92.0817 240 96.5V120.5C240 124.918 236.418 128.5 232 128.5H208C203.582 128.5 200 124.918 200 120.5V96.5Z" fill="white" fill-opacity="0.12"/>
</g>
<g opacity="0.163747">
<path d="M156 96.5C156 92.0817 159.582 88.5 164 88.5H188C192.418 88.5 196 92.0817 196 96.5V120.5C196 124.918 192.418 128.5 188 128.5H164C159.582 128.5 156 124.918 156 120.5V96.5Z" fill="white" fill-opacity="0.12"/>
</g>
<g opacity="0.127446">
<path d="M112 96.5C112 92.0817 115.582 88.5 120 88.5H144C148.418 88.5 152 92.0817 152 96.5V120.5C152 124.918 148.418 128.5 144 128.5H120C115.582 128.5 112 124.918 112 120.5V96.5Z" fill="white" fill-opacity="0.12"/>
</g>
<g opacity="0.105189">
<path d="M68 96.5C68 92.0817 71.5817 88.5 76 88.5H100C104.418 88.5 108 92.0817 108 96.5V120.5C108 124.918 104.418 128.5 100 128.5H76C71.5817 128.5 68 124.918 68 120.5V96.5Z" fill="white" fill-opacity="0.12"/>
</g>
<g opacity="0.613539">
<path d="M24 96.5C24 92.0817 27.5817 88.5 32 88.5H56C60.4183 88.5 64 92.0817 64 96.5V120.5C64 124.918 60.4183 128.5 56 128.5H32C27.5817 128.5 24 124.918 24 120.5V96.5Z" fill="white" fill-opacity="0.12"/>
</g>
<g opacity="0.115307">
<path d="M244 52.5C244 48.0817 247.582 44.5 252 44.5H276C280.418 44.5 284 48.0817 284 52.5V76.5C284 80.9183 280.418 84.5 276 84.5H252C247.582 84.5 244 80.9183 244 76.5V52.5Z" fill="white" fill-opacity="0.12"/>
</g>
<g opacity="0.0289743">
<path d="M200 52.5C200 48.0817 203.582 44.5 208 44.5H232C236.418 44.5 240 48.0817 240 52.5V76.5C240 80.9183 236.418 84.5 232 84.5H208C203.582 84.5 200 80.9183 200 76.5V52.5Z" fill="white" fill-opacity="0.12"/>
</g>
<g opacity="0.283677">
<path d="M156 52.5C156 48.0817 159.582 44.5 164 44.5H188C192.418 44.5 196 48.0817 196 52.5V76.5C196 80.9183 192.418 84.5 188 84.5H164C159.582 84.5 156 80.9183 156 76.5V52.5Z" fill="white" fill-opacity="0.12"/>
</g>
<g opacity="0.610042">
<path d="M112 52.5C112 48.0817 115.582 44.5 120 44.5H144C148.418 44.5 152 48.0817 152 52.5V76.5C152 80.9183 148.418 84.5 144 84.5H120C115.582 84.5 112 80.9183 112 76.5V52.5Z" fill="white" fill-opacity="0.12"/>
</g>
<g opacity="0.538233">
<path d="M68 52.5C68 48.0817 71.5817 44.5 76 44.5H100C104.418 44.5 108 48.0817 108 52.5V76.5C108 80.9183 104.418 84.5 100 84.5H76C71.5817 84.5 68 80.9183 68 76.5V52.5Z" fill="white" fill-opacity="0.12"/>
</g>
<g opacity="0.6292">
<path d="M24 52.5C24 48.0817 27.5817 44.5 32 44.5H56C60.4183 44.5 64 48.0817 64 52.5V76.5C64 80.9183 60.4183 84.5 56 84.5H32C27.5817 84.5 24 80.9183 24 76.5V52.5Z" fill="white" fill-opacity="0.12"/>
</g>
<g opacity="0.416315">
<path d="M332 8.5C332 4.08172 335.582 0.5 340 0.5H364C368.418 0.5 372 4.08172 372 8.5V32.5C372 36.9183 368.418 40.5 364 40.5H340C335.582 40.5 332 36.9183 332 32.5V8.5Z" fill="white" fill-opacity="0.12"/>
</g>
<g opacity="0.0642537">
<path d="M288 8.5C288 4.08172 291.582 0.5 296 0.5H320C324.418 0.5 328 4.08172 328 8.5V32.5C328 36.9183 324.418 40.5 320 40.5H296C291.582 40.5 288 36.9183 288 32.5V8.5Z" fill="white" fill-opacity="0.12"/>
</g>
<g opacity="0.925682">
<path d="M244 8.5C244 4.08172 247.582 0.5 252 0.5H276C280.418 0.5 284 4.08172 284 8.5V32.5C284 36.9183 280.418 40.5 276 40.5H252C247.582 40.5 244 36.9183 244 32.5V8.5Z" fill="white" fill-opacity="0.12"/>
</g>
<g opacity="0.151291">
<path d="M200 8.5C200 4.08172 203.582 0.5 208 0.5H232C236.418 0.5 240 4.08172 240 8.5V32.5C240 36.9183 236.418 40.5 232 40.5H208C203.582 40.5 200 36.9183 200 32.5V8.5Z" fill="white" fill-opacity="0.12"/>
</g>
<g opacity="0.729212">
<path d="M156 8.5C156 4.08172 159.582 0.5 164 0.5H188C192.418 0.5 196 4.08172 196 8.5V32.5C196 36.9183 192.418 40.5 188 40.5H164C159.582 40.5 156 36.9183 156 32.5V8.5Z" fill="white" fill-opacity="0.12"/>
</g>
<g opacity="0.284549">
<path d="M68 8.5C68 4.08172 71.5817 0.5 76 0.5H100C104.418 0.5 108 4.08172 108 8.5V32.5C108 36.9183 104.418 40.5 100 40.5H76C71.5817 40.5 68 36.9183 68 32.5V8.5Z" fill="white" fill-opacity="0.12"/>
</g>
<g opacity="0.406997">
<path d="M1290 228.5C1290 224.082 1293.58 220.5 1298 220.5H1322C1326.42 220.5 1330 224.082 1330 228.5V252.5C1330 256.918 1326.42 260.5 1322 260.5H1298C1293.58 260.5 1290 256.918 1290 252.5V228.5Z" fill="white" fill-opacity="0.12"/>
</g>
<g opacity="0.01">
<path d="M1246 228.5C1246 224.082 1249.58 220.5 1254 220.5H1278C1282.42 220.5 1286 224.082 1286 228.5V252.5C1286 256.918 1282.42 260.5 1278 260.5H1254C1249.58 260.5 1246 256.918 1246 252.5V228.5Z" fill="white" fill-opacity="0.12"/>
</g>
<g opacity="0.870639">
<path d="M1202 228.5C1202 224.082 1205.58 220.5 1210 220.5H1234C1238.42 220.5 1242 224.082 1242 228.5V252.5C1242 256.918 1238.42 260.5 1234 260.5H1210C1205.58 260.5 1202 256.918 1202 252.5V228.5Z" fill="white" fill-opacity="0.12"/>
</g>
<g opacity="0.550602">
<path d="M1158 228.5C1158 224.082 1161.58 220.5 1166 220.5H1190C1194.42 220.5 1198 224.082 1198 228.5V252.5C1198 256.918 1194.42 260.5 1190 260.5H1166C1161.58 260.5 1158 256.918 1158 252.5V228.5Z" fill="white" fill-opacity="0.12"/>
</g>
<g opacity="0.597494">
<path d="M1114 228.5C1114 224.082 1117.58 220.5 1122 220.5H1146C1150.42 220.5 1154 224.082 1154 228.5V252.5C1154 256.918 1150.42 260.5 1146 260.5H1122C1117.58 260.5 1114 256.918 1114 252.5V228.5Z" fill="white" fill-opacity="0.12"/>
</g>
<g opacity="0.713385">
<path d="M1026 228.5C1026 224.082 1029.58 220.5 1034 220.5H1058C1062.42 220.5 1066 224.082 1066 228.5V252.5C1066 256.918 1062.42 260.5 1058 260.5H1034C1029.58 260.5 1026 256.918 1026 252.5V228.5Z" fill="white" fill-opacity="0.12"/>
</g>
<g opacity="0.63104">
<path d="M1290 184.5C1290 180.082 1293.58 176.5 1298 176.5H1322C1326.42 176.5 1330 180.082 1330 184.5V208.5C1330 212.918 1326.42 216.5 1322 216.5H1298C1293.58 216.5 1290 212.918 1290 208.5V184.5Z" fill="white" fill-opacity="0.12"/>
</g>
<g opacity="0.428746">
<path d="M1246 184.5C1246 180.082 1249.58 176.5 1254 176.5H1278C1282.42 176.5 1286 180.082 1286 184.5V208.5C1286 212.918 1282.42 216.5 1278 216.5H1254C1249.58 216.5 1246 212.918 1246 208.5V184.5Z" fill="white" fill-opacity="0.12"/>
</g>
<g opacity="0.339668">
<path d="M1114 184.5C1114 180.082 1117.58 176.5 1122 176.5H1146C1150.42 176.5 1154 180.082 1154 184.5V208.5C1154 212.918 1150.42 216.5 1146 216.5H1122C1117.58 216.5 1114 212.918 1114 208.5V184.5Z" fill="white" fill-opacity="0.12"/>
</g>
<g opacity="0.032285">
<path d="M1070 184.5C1070 180.082 1073.58 176.5 1078 176.5H1102C1106.42 176.5 1110 180.082 1110 184.5V208.5C1110 212.918 1106.42 216.5 1102 216.5H1078C1073.58 216.5 1070 212.918 1070 208.5V184.5Z" fill="white" fill-opacity="0.12"/>
</g>
<g opacity="0.115114">
<path d="M1026 184.5C1026 180.082 1029.58 176.5 1034 176.5H1058C1062.42 176.5 1066 180.082 1066 184.5V208.5C1066 212.918 1062.42 216.5 1058 216.5H1034C1029.58 216.5 1026 212.918 1026 208.5V184.5Z" fill="white" fill-opacity="0.12"/>
</g>
<g opacity="0.753539">
<path d="M982 184.5C982 180.082 985.582 176.5 990 176.5H1014C1018.42 176.5 1022 180.082 1022 184.5V208.5C1022 212.918 1018.42 216.5 1014 216.5H990C985.582 216.5 982 212.918 982 208.5V184.5Z" fill="white" fill-opacity="0.12"/>
</g>
<g opacity="0.970147">
<path d="M1158 140.5C1158 136.082 1161.58 132.5 1166 132.5H1190C1194.42 132.5 1198 136.082 1198 140.5V164.5C1198 168.918 1194.42 172.5 1190 172.5H1166C1161.58 172.5 1158 168.918 1158 164.5V140.5Z" fill="white" fill-opacity="0.12"/>
</g>
<g opacity="0.795098">
<path d="M1114 140.5C1114 136.082 1117.58 132.5 1122 132.5H1146C1150.42 132.5 1154 136.082 1154 140.5V164.5C1154 168.918 1150.42 172.5 1146 172.5H1122C1117.58 172.5 1114 168.918 1114 164.5V140.5Z" fill="white" fill-opacity="0.12"/>
</g>
<g opacity="0.380384">
<path d="M1070 140.5C1070 136.082 1073.58 132.5 1078 132.5H1102C1106.42 132.5 1110 136.082 1110 140.5V164.5C1110 168.918 1106.42 172.5 1102 172.5H1078C1073.58 172.5 1070 168.918 1070 164.5V140.5Z" fill="white" fill-opacity="0.12"/>
</g>
<g opacity="0.01">
<path d="M1026 140.5C1026 136.082 1029.58 132.5 1034 132.5H1058C1062.42 132.5 1066 136.082 1066 140.5V164.5C1066 168.918 1062.42 172.5 1058 172.5H1034C1029.58 172.5 1026 168.918 1026 164.5V140.5Z" fill="white" fill-opacity="0.12"/>
</g>
<g opacity="0.920591">
<path d="M982 140.5C982 136.082 985.582 132.5 990 132.5H1014C1018.42 132.5 1022 136.082 1022 140.5V164.5C1022 168.918 1018.42 172.5 1014 172.5H990C985.582 172.5 982 168.918 982 164.5V140.5Z" fill="white" fill-opacity="0.12"/>
</g>
<g opacity="0.175989">
<path d="M1158 96.5C1158 92.0817 1161.58 88.5 1166 88.5H1190C1194.42 88.5 1198 92.0817 1198 96.5V120.5C1198 124.918 1194.42 128.5 1190 128.5H1166C1161.58 128.5 1158 124.918 1158 120.5V96.5Z" fill="white" fill-opacity="0.12"/>
</g>
<g opacity="0.163747">
<path d="M1114 96.5C1114 92.0817 1117.58 88.5 1122 88.5H1146C1150.42 88.5 1154 92.0817 1154 96.5V120.5C1154 124.918 1150.42 128.5 1146 128.5H1122C1117.58 128.5 1114 124.918 1114 120.5V96.5Z" fill="white" fill-opacity="0.12"/>
</g>
<g opacity="0.127446">
<path d="M1070 96.5C1070 92.0817 1073.58 88.5 1078 88.5H1102C1106.42 88.5 1110 92.0817 1110 96.5V120.5C1110 124.918 1106.42 128.5 1102 128.5H1078C1073.58 128.5 1070 124.918 1070 120.5V96.5Z" fill="white" fill-opacity="0.12"/>
</g>
<g opacity="0.105189">
<path d="M1026 96.5C1026 92.0817 1029.58 88.5 1034 88.5H1058C1062.42 88.5 1066 92.0817 1066 96.5V120.5C1066 124.918 1062.42 128.5 1058 128.5H1034C1029.58 128.5 1026 124.918 1026 120.5V96.5Z" fill="white" fill-opacity="0.12"/>
</g>
<g opacity="0.613539">
<path d="M982 96.5C982 92.0817 985.582 88.5 990 88.5H1014C1018.42 88.5 1022 92.0817 1022 96.5V120.5C1022 124.918 1018.42 128.5 1014 128.5H990C985.582 128.5 982 124.918 982 120.5V96.5Z" fill="white" fill-opacity="0.12"/>
</g>
<g opacity="0.115307">
<path d="M1202 52.5C1202 48.0817 1205.58 44.5 1210 44.5L1234 44.5C1238.42 44.5 1242 48.0817 1242 52.5V76.5C1242 80.9183 1238.42 84.5 1234 84.5H1210C1205.58 84.5 1202 80.9183 1202 76.5V52.5Z" fill="white" fill-opacity="0.12"/>
</g>
<g opacity="0.0289743">
<path d="M1158 52.5C1158 48.0817 1161.58 44.5 1166 44.5L1190 44.5C1194.42 44.5 1198 48.0817 1198 52.5V76.5C1198 80.9183 1194.42 84.5 1190 84.5H1166C1161.58 84.5 1158 80.9183 1158 76.5V52.5Z" fill="white" fill-opacity="0.12"/>
</g>
<g opacity="0.283677">
<path d="M1114 52.5C1114 48.0817 1117.58 44.5 1122 44.5L1146 44.5C1150.42 44.5 1154 48.0817 1154 52.5V76.5C1154 80.9183 1150.42 84.5 1146 84.5H1122C1117.58 84.5 1114 80.9183 1114 76.5V52.5Z" fill="white" fill-opacity="0.12"/>
</g>
<g opacity="0.610042">
<path d="M1070 52.5C1070 48.0817 1073.58 44.5 1078 44.5L1102 44.5C1106.42 44.5 1110 48.0817 1110 52.5V76.5C1110 80.9183 1106.42 84.5 1102 84.5H1078C1073.58 84.5 1070 80.9183 1070 76.5V52.5Z" fill="white" fill-opacity="0.12"/>
</g>
<g opacity="0.538233">
<path d="M1026 52.5C1026 48.0817 1029.58 44.5 1034 44.5L1058 44.5C1062.42 44.5 1066 48.0817 1066 52.5V76.5C1066 80.9183 1062.42 84.5 1058 84.5H1034C1029.58 84.5 1026 80.9183 1026 76.5V52.5Z" fill="white" fill-opacity="0.12"/>
</g>
<g opacity="0.6292">
<path d="M982 52.5C982 48.0817 985.582 44.5 990 44.5L1014 44.5C1018.42 44.5 1022 48.0817 1022 52.5V76.5C1022 80.9183 1018.42 84.5 1014 84.5H990C985.582 84.5 982 80.9183 982 76.5V52.5Z" fill="white" fill-opacity="0.12"/>
</g>
<g opacity="0.416315">
<path d="M1290 8.5C1290 4.08172 1293.58 0.5 1298 0.5L1322 0.5C1326.42 0.5 1330 4.08172 1330 8.5V32.5C1330 36.9183 1326.42 40.5 1322 40.5L1298 40.5C1293.58 40.5 1290 36.9183 1290 32.5V8.5Z" fill="white" fill-opacity="0.12"/>
</g>
<g opacity="0.0642537">
<path d="M1246 8.5C1246 4.08172 1249.58 0.5 1254 0.5L1278 0.5C1282.42 0.5 1286 4.08172 1286 8.5V32.5C1286 36.9183 1282.42 40.5 1278 40.5L1254 40.5C1249.58 40.5 1246 36.9183 1246 32.5V8.5Z" fill="white" fill-opacity="0.12"/>
</g>
<g opacity="0.925682">
<path d="M1202 8.5C1202 4.08172 1205.58 0.5 1210 0.5L1234 0.5C1238.42 0.5 1242 4.08172 1242 8.5V32.5C1242 36.9183 1238.42 40.5 1234 40.5L1210 40.5C1205.58 40.5 1202 36.9183 1202 32.5V8.5Z" fill="white" fill-opacity="0.12"/>
</g>
<g opacity="0.151291">
<path d="M1158 8.5C1158 4.08172 1161.58 0.5 1166 0.5L1190 0.5C1194.42 0.5 1198 4.08172 1198 8.5V32.5C1198 36.9183 1194.42 40.5 1190 40.5L1166 40.5C1161.58 40.5 1158 36.9183 1158 32.5V8.5Z" fill="white" fill-opacity="0.12"/>
</g>
<g opacity="0.729212">
<path d="M1114 8.5C1114 4.08172 1117.58 0.5 1122 0.5L1146 0.5C1150.42 0.5 1154 4.08172 1154 8.5V32.5C1154 36.9183 1150.42 40.5 1146 40.5L1122 40.5C1117.58 40.5 1114 36.9183 1114 32.5V8.5Z" fill="white" fill-opacity="0.12"/>
</g>
<g opacity="0.284549">
<path d="M1026 8.5C1026 4.08172 1029.58 0.5 1034 0.5L1058 0.5C1062.42 0.5 1066 4.08172 1066 8.5V32.5C1066 36.9183 1062.42 40.5 1058 40.5L1034 40.5C1029.58 40.5 1026 36.9183 1026 32.5V8.5Z" fill="white" fill-opacity="0.12"/>
</g>
</g>
</svg>
