<svg width="120" height="121" viewBox="0 0 120 121" fill="none" xmlns="http://www.w3.org/2000/svg">
<g opacity="0.5">
<path d="M29.2929 71.7929C28.9024 72.1834 28.9024 72.8166 29.2929 73.2071C29.6834 73.5976 30.3166 73.5976 30.7071 73.2071L29.2929 71.7929ZM94 39.5C94 38.9477 93.5523 38.5 93 38.5L84 38.5C83.4477 38.5 83 38.9477 83 39.5C83 40.0523 83.4477 40.5 84 40.5L92 40.5L92 48.5C92 49.0523 92.4477 49.5 93 49.5C93.5523 49.5 94 49.0523 94 48.5L94 39.5ZM63.0858 66.5858L63.7929 65.8787L63.0858 66.5858ZM65.9142 66.5858L65.2071 65.8787L65.9142 66.5858ZM48.0858 54.4142L48.7929 55.1213L48.0858 54.4142ZM30.7071 73.2071L48.7929 55.1213L47.3787 53.7071L29.2929 71.7929L30.7071 73.2071ZM50.2071 55.1213L62.3787 67.2929L63.7929 65.8787L51.6213 53.7071L50.2071 55.1213ZM66.6213 67.2929L93.7071 40.2071L92.2929 38.7929L65.2071 65.8787L66.6213 67.2929ZM62.3787 67.2929C63.5503 68.4645 65.4498 68.4645 66.6213 67.2929L65.2071 65.8787C64.8166 66.2692 64.1834 66.2692 63.7929 65.8787L62.3787 67.2929ZM48.7929 55.1213C49.1834 54.7308 49.8166 54.7308 50.2071 55.1213L51.6213 53.7071C50.4497 52.5355 48.5503 52.5355 47.3787 53.7071L48.7929 55.1213Z" fill="white"/>
<g filter="url(#filter0_d_168_959)">
<rect x="36" y="66.5" width="12" height="12" rx="2" transform="rotate(90 36 66.5)" fill="#FFFDFF"/>
</g>
</g>
<defs>
<filter id="filter0_d_168_959" x="12" y="54.5" width="36" height="36" filterUnits="userSpaceOnUse" color-interpolation-filters="sRGB">
<feFlood flood-opacity="0" result="BackgroundImageFix"/>
<feColorMatrix in="SourceAlpha" type="matrix" values="0 0 0 0 0 0 0 0 0 0 0 0 0 0 0 0 0 0 127 0" result="hardAlpha"/>
<feMorphology radius="4" operator="dilate" in="SourceAlpha" result="effect1_dropShadow_168_959"/>
<feOffset/>
<feGaussianBlur stdDeviation="4"/>
<feComposite in2="hardAlpha" operator="out"/>
<feColorMatrix type="matrix" values="0 0 0 0 0.501961 0 0 0 0 0.14902 0 0 0 0 0.14902 0 0 0 1 0"/>
<feBlend mode="normal" in2="BackgroundImageFix" result="effect1_dropShadow_168_959"/>
<feBlend mode="normal" in="SourceGraphic" in2="effect1_dropShadow_168_959" result="shape"/>
</filter>
</defs>
</svg>
