<svg width="68" height="136" viewBox="0 0 68 136" fill="none" xmlns="http://www.w3.org/2000/svg">
<g filter="url(#filter0_dd_22_925)">
<path d="M34 111.5C34 108.5 35.9 102.5 43.5 102.5C40.4884 102.5 36.7364 99.9086 34.7923 96C34.6309 95.6755 34.4819 25.3419 34.3469 25C34.2182 24.674 34.1021 24.3405 34 24C33.947 24.3445 33.8703 24.6778 33.7724 25C33.6672 25.3461 33.5375 95.6793 33.3865 96C31.5563 99.8866 26.5877 101.925 24 102.5C31.2 102.5 33.6667 108.5 34 111.5Z" fill="url(#paint0_linear_22_925)"/>
</g>
<defs>
<filter id="filter0_dd_22_925" x="0" y="0" width="67.5" height="135.5" filterUnits="userSpaceOnUse" color-interpolation-filters="sRGB">
<feFlood flood-opacity="0" result="BackgroundImageFix"/>
<feColorMatrix in="SourceAlpha" type="matrix" values="0 0 0 0 0 0 0 0 0 0 0 0 0 0 0 0 0 0 127 0" result="hardAlpha"/>
<feMorphology radius="20" operator="dilate" in="SourceAlpha" result="effect1_dropShadow_22_925"/>
<feOffset/>
<feGaussianBlur stdDeviation="1"/>
<feComposite in2="hardAlpha" operator="out"/>
<feColorMatrix type="matrix" values="0 0 0 0 0.788235 0 0 0 0 0.301961 0 0 0 0 0.709804 0 0 0 0.25 0"/>
<feBlend mode="normal" in2="BackgroundImageFix" result="effect1_dropShadow_22_925"/>
<feColorMatrix in="SourceAlpha" type="matrix" values="0 0 0 0 0 0 0 0 0 0 0 0 0 0 0 0 0 0 127 0" result="hardAlpha"/>
<feMorphology radius="20" operator="dilate" in="SourceAlpha" result="effect2_dropShadow_22_925"/>
<feOffset/>
<feGaussianBlur stdDeviation="2"/>
<feComposite in2="hardAlpha" operator="out"/>
<feColorMatrix type="matrix" values="0 0 0 0 0.847059 0 0 0 0 0.647059 0 0 0 0 0.341176 0 0 0 0.5 0"/>
<feBlend mode="normal" in2="effect1_dropShadow_22_925" result="effect2_dropShadow_22_925"/>
<feBlend mode="normal" in="SourceGraphic" in2="effect2_dropShadow_22_925" result="shape"/>
</filter>
<linearGradient id="paint0_linear_22_925" x1="24" y1="75.4047" x2="43.2623" y2="73.2648" gradientUnits="userSpaceOnUse">
<stop stop-color="#7058EE"/>
<stop offset="0.5" stop-color="#C94DB5"/>
<stop offset="1" stop-color="#D8A557"/>
</linearGradient>
</defs>
</svg>
