<svg width="165" height="191" viewBox="0 0 165 191" fill="none" xmlns="http://www.w3.org/2000/svg">
<path opacity="0.996" d="M3.35422 144.561L65.5499 108.781C68.0005 107.366 71.6021 107.505 73.8114 108.781L135.865 144.561C136.548 144.949 137.117 145.512 137.512 146.191C137.908 146.87 138.116 147.642 138.116 148.428C138.116 149.214 137.908 149.986 137.512 150.665C137.117 151.345 136.548 151.907 135.865 152.295L71.8607 189.068C71.1777 189.468 70.4005 189.679 69.609 189.679C68.8175 189.679 68.0403 189.468 67.3573 189.068L3.35422 152.296C0.215259 150.667 0.215259 146.325 3.35422 144.561Z" fill="url(#paint0_radial_168_4213)" stroke="#1F8885" stroke-opacity="0.49"/>
<mask id="mask0_168_4213" style="mask-type:luminance" maskUnits="userSpaceOnUse" x="1" y="107" width="138" height="83">
<path d="M3.35422 144.561L65.5499 108.781C68.0005 107.366 71.6021 107.505 73.8114 108.781L135.865 144.561C136.548 144.949 137.117 145.512 137.512 146.191C137.908 146.87 138.116 147.642 138.116 148.428C138.116 149.214 137.908 149.986 137.512 150.665C137.117 151.345 136.548 151.907 135.865 152.295L71.8607 189.068C71.1777 189.468 70.4005 189.679 69.609 189.679C68.8175 189.679 68.0403 189.468 67.3573 189.068L3.35422 152.296C0.215259 150.667 0.215259 146.325 3.35422 144.561Z" fill="white"/>
</mask>
<g mask="url(#mask0_168_4213)">
<path d="M3.35422 151.713L65.5499 115.933C68.0005 114.518 71.6021 114.657 73.8114 115.933L135.865 151.713C136.548 152.101 137.117 152.663 137.512 153.343C137.908 154.022 138.116 154.794 138.116 155.58C138.116 156.366 137.908 157.138 137.512 157.817C137.117 158.497 136.548 159.059 135.865 159.447L71.8607 196.22C71.1777 196.62 70.4005 196.831 69.609 196.831C68.8175 196.831 68.0403 196.62 67.3573 196.22L3.35422 159.447C0.215259 157.819 0.215259 153.477 3.35422 151.713Z" fill="url(#paint1_linear_168_4213)"/>
</g>
<path opacity="0.996" d="M13.16 145.122L66.1031 114.665C68.1897 113.461 71.2549 113.579 73.1355 114.665L125.957 145.122C126.539 145.452 127.023 145.931 127.359 146.509C127.696 147.088 127.874 147.745 127.874 148.414C127.874 149.083 127.696 149.74 127.359 150.319C127.023 150.897 126.539 151.376 125.957 151.706L71.4751 183.008C70.8937 183.348 70.2321 183.528 69.5583 183.528C68.8846 183.528 68.223 183.348 67.6416 183.008L13.16 151.706C10.4882 150.32 10.4882 146.624 13.16 145.122Z" fill="url(#paint2_radial_168_4213)" stroke="#1F8885" stroke-opacity="0.49"/>
<mask id="mask1_168_4213" style="mask-type:luminance" maskUnits="userSpaceOnUse" x="11" y="113" width="117" height="71">
<path d="M13.16 145.122L66.1031 114.665C68.1897 113.461 71.2549 113.579 73.1355 114.665L125.957 145.122C126.539 145.452 127.023 145.931 127.359 146.509C127.696 147.088 127.874 147.745 127.874 148.414C127.874 149.083 127.696 149.74 127.359 150.319C127.023 150.897 126.539 151.376 125.957 151.706L71.4751 183.008C70.8937 183.348 70.2321 183.528 69.5583 183.528C68.8846 183.528 68.223 183.348 67.6416 183.008L13.16 151.706C10.4882 150.32 10.4882 146.624 13.16 145.122Z" fill="white"/>
</mask>
<g mask="url(#mask1_168_4213)">
<path d="M13.1601 139.481L66.1033 109.023C68.1898 107.819 71.255 107.938 73.1357 109.023L125.957 139.481C126.539 139.811 127.023 140.29 127.36 140.868C127.696 141.446 127.874 142.103 127.874 142.772C127.874 143.442 127.696 144.099 127.36 144.677C127.023 145.255 126.539 145.734 125.957 146.064L71.4752 177.366C70.8938 177.707 70.2322 177.886 69.5585 177.886C68.8847 177.886 68.2232 177.707 67.6417 177.366L13.1601 146.064C10.4883 144.678 10.4883 140.982 13.1601 139.481Z" fill="#2B3E5B"/>
</g>
<path opacity="0.769" d="M84.6557 60.2748L136.869 89.5431C139.712 91.4401 139.537 91.7401 139.698 94.4696L139.838 137.542C139.838 139.567 138.157 141.807 136.171 140.779L83.178 110.689C81.1304 109.479 80.8748 108.514 80.8748 106.488V63.0287C81.1199 58.4093 84.6557 60.2748 84.6557 60.2748Z" fill="url(#paint3_linear_168_4213)"/>
<path opacity="0.459" d="M87.6758 58.8724L139.889 88.1407C142.733 90.0378 142.557 90.3377 142.718 93.0673L142.858 136.139C142.858 138.165 141.177 140.405 139.191 139.377L86.1981 109.287C84.1506 108.077 83.8949 107.111 83.8949 105.086V61.6263C84.14 57.0069 87.6758 58.8724 87.6758 58.8724Z" fill="url(#paint4_linear_168_4213)"/>
<path d="M29.8169 142.605L67.2458 121.073C68.7202 120.222 70.8879 120.306 72.2174 121.073L109.56 142.605C109.972 142.839 110.314 143.177 110.552 143.586C110.79 143.995 110.915 144.46 110.915 144.933C110.915 145.406 110.79 145.87 110.552 146.279C110.314 146.688 109.972 147.026 109.56 147.26L71.0436 169.39C70.6326 169.63 70.1649 169.757 69.6886 169.757C69.2123 169.757 68.7446 169.63 68.3335 169.39L29.8169 147.26C27.9281 146.28 27.9281 143.667 29.8169 142.605Z" fill="url(#paint5_linear_168_4213)"/>
<path d="M36.3868 142.52L67.4795 124.633C68.7046 123.925 70.5051 123.995 71.6096 124.633L102.631 142.52C102.973 142.714 103.257 142.995 103.455 143.334C103.653 143.674 103.757 144.06 103.757 144.453C103.757 144.846 103.653 145.232 103.455 145.572C103.257 145.912 102.973 146.193 102.631 146.387L70.6344 164.77C70.2929 164.969 69.9044 165.075 69.5087 165.075C69.113 165.075 68.7245 164.969 68.383 164.77L36.3868 146.386C34.8177 145.572 34.8177 143.402 36.3868 142.52Z" fill="url(#paint6_linear_168_4213)"/>
<path d="M36.3868 120.205L67.4795 102.318C68.7046 101.61 70.5051 101.68 71.6096 102.318L102.631 120.205C102.973 120.399 103.257 120.68 103.455 121.019C103.653 121.359 103.757 121.745 103.757 122.138C103.757 122.531 103.653 122.917 103.455 123.257C103.257 123.597 102.973 123.878 102.631 124.072L70.6344 142.455C70.2929 142.654 69.9044 142.76 69.5087 142.76C69.113 142.76 68.7245 142.654 68.383 142.455L36.3868 124.071C34.8177 123.257 34.8177 121.087 36.3868 120.205Z" fill="url(#paint7_linear_168_4213)"/>
<path d="M39.0342 119.955L67.6392 103.498C68.7659 102.848 70.4227 102.912 71.4389 103.498L99.9787 119.954C100.293 120.133 100.555 120.391 100.737 120.704C100.919 121.016 101.015 121.371 101.015 121.733C101.015 122.094 100.919 122.45 100.737 122.762C100.555 123.074 100.293 123.333 99.9787 123.511L70.5424 140.425C70.2282 140.609 69.8708 140.706 69.5067 140.706C69.1427 140.706 68.7853 140.609 68.4711 140.425L39.0342 123.512C37.5905 122.763 37.5905 120.766 39.0342 119.955Z" fill="url(#paint8_linear_168_4213)"/>
<path d="M40.0524 119.389L67.7015 103.483C68.7909 102.854 70.392 102.916 71.3738 103.483L98.9598 119.389C99.2637 119.562 99.5165 119.812 99.6923 120.114C99.8682 120.416 99.9608 120.759 99.9608 121.108C99.9608 121.458 99.8682 121.801 99.6923 122.103C99.5165 122.405 99.2637 122.655 98.9598 122.827L70.507 139.175C70.2034 139.352 69.8579 139.446 69.5061 139.446C69.1542 139.446 68.8087 139.352 68.5051 139.175L40.0524 122.828C38.6568 122.104 38.6568 120.173 40.0524 119.389Z" fill="url(#paint9_linear_168_4213)"/>
<path d="M36.3865 100.322L67.4794 82.4344C68.7045 81.7271 70.505 81.7967 71.6095 82.4344L102.631 100.322C102.973 100.516 103.257 100.797 103.455 101.136C103.653 101.476 103.757 101.862 103.757 102.255C103.757 102.648 103.653 103.034 103.455 103.374C103.257 103.714 102.973 103.995 102.631 104.189L70.9084 122.571C70.6343 122.875 68.9387 122.978 68.2565 122.571L36.3865 104.41C34.8175 103.596 34.8175 101.203 36.3865 100.322Z" fill="url(#paint10_linear_168_4213)"/>
<path d="M35.2097 122C35.0735 120.48 35.2097 144.699 35.2097 144.699C35.2097 144.699 35.0964 145.718 36.6799 146.6C38.2634 147.482 66.1672 163.504 67.0948 163.981C68.0223 164.458 69.0749 165.888 71.7685 164.115C74.4621 162.341 102.422 146.6 102.422 146.6C102.422 146.6 103.869 145.828 103.982 144.699C104.094 143.571 103.787 122 103.787 122C103.516 122.824 102.969 123.53 102.238 123.997C101.032 124.743 71.5297 141.559 71.5297 141.559C71.5297 141.559 69.8564 143.166 67.27 141.559C64.6835 139.951 36.6799 123.997 36.6799 123.997C36.2753 123.831 35.9241 123.557 35.6648 123.205C35.4054 122.853 35.2481 122.436 35.2097 122Z" fill="url(#paint11_linear_168_4213)"/>
<path d="M35.2097 122C35.0735 120.48 35.2097 144.699 35.2097 144.699C35.2097 144.699 35.0964 145.718 36.6799 146.6C38.2634 147.482 66.1672 163.504 67.0948 163.981C68.0223 164.458 69.0749 165.888 71.7685 164.115C74.4621 162.341 102.422 146.6 102.422 146.6C102.422 146.6 103.869 145.828 103.982 144.699C104.094 143.571 103.787 122 103.787 122C103.516 122.824 102.969 123.53 102.238 123.997C101.032 124.743 71.5297 141.559 71.5297 141.559C71.5297 141.559 69.8564 143.166 67.27 141.559C64.6835 139.951 36.6799 123.997 36.6799 123.997C36.2753 123.831 35.9241 123.557 35.6648 123.205C35.4054 122.853 35.2481 122.436 35.2097 122Z" fill="url(#paint12_linear_168_4213)"/>
<path d="M35.2097 102.403C35.0735 100.883 35.2097 116.662 35.2097 116.662C35.2097 116.662 35.0964 117.681 36.6799 118.563C38.2634 119.444 66.1674 135.467 67.0952 135.944C68.023 136.421 69.0754 137.851 71.7689 136.078C74.4625 134.304 102.423 118.562 102.423 118.562C102.423 118.562 103.869 117.791 103.982 116.662C104.095 115.534 103.787 102.403 103.787 102.403C103.517 103.227 102.969 103.932 102.238 104.399C101.033 105.146 71.5301 121.961 71.5301 121.961C71.5301 121.961 69.8568 123.569 67.2704 121.961C64.6839 120.354 36.6803 104.399 36.6803 104.399C36.2756 104.233 35.9244 103.96 35.665 103.607C35.4056 103.255 35.2481 102.839 35.2097 102.403Z" fill="url(#paint13_linear_168_4213)"/>
<g filter="url(#filter0_d_168_4213)">
<g opacity="0.322">
<path d="M69.5738 111.313C77.4848 111.313 83.898 107.077 83.898 101.852C83.898 96.6273 77.4848 92.3916 69.5738 92.3916C61.6627 92.3916 55.2495 96.6273 55.2495 101.852C55.2495 107.077 61.6627 111.313 69.5738 111.313Z" stroke="#3F3C58" stroke-width="10"/>
</g>
</g>
<g filter="url(#filter1_d_168_4213)">
<g opacity="0.322">
<path d="M69.7176 108.367C75.7645 108.367 80.6664 105.258 80.6664 101.423C80.6664 97.5882 75.7645 94.4795 69.7176 94.4795C63.6707 94.4795 58.7688 97.5882 58.7688 101.423C58.7688 105.258 63.6707 108.367 69.7176 108.367Z" stroke="#3F3C58" stroke-width="3"/>
</g>
</g>
<path opacity="0.697" d="M138.896 90.9868C138.472 90.5287 141.5 89.3333 141.5 89.3333C141.5 89.3333 142.654 89.8321 142.701 91.6203C142.749 93.4084 142.828 135.556 142.828 135.556C142.828 135.556 143.159 137.58 141.699 139.032C140.239 140.483 137.419 141.128 137.419 141.128C137.419 141.128 138.438 140.813 139.052 139.977C139.665 139.141 139.875 137.784 139.875 137.784L139.68 93.1377C139.68 93.1377 139.318 91.4449 138.896 90.9868Z" fill="url(#paint14_linear_168_4213)"/>
<g filter="url(#filter2_d_168_4213)">
<path opacity="0.085" d="M64.2257 119.817C64.2675 119.859 68.05 122.5 69.7515 122.404C70.4428 122.366 103.577 104.031 103.613 102.368C103.65 100.705 101.094 99.6315 101.094 99.6315L71.8856 82.9207C71.8856 82.9207 69.7572 81.3194 67.1531 82.9207C59.0256 87.5945 40.6113 98.0744 37.4573 99.8771C33.4039 102.194 36.8957 104.201 36.8957 104.201C36.8957 104.201 64.1665 119.757 64.2257 119.817Z" stroke="#1ABFB4" stroke-width="4" stroke-linecap="round"/>
</g>
<path opacity="0.848" d="M82.933 59.9023C82.3272 60.0502 85.5171 58.6322 85.5171 58.6322C85.5171 58.6322 86.2974 58.2231 87.884 59.0481C89.4706 59.8731 127.683 81.2601 127.683 81.2601L124.993 82.9492L85.5171 60.7239C85.5171 60.7239 83.539 59.7545 82.933 59.9023Z" fill="url(#paint15_linear_168_4213)"/>
<path d="M66.619 85.5931L69.397 84.0152C69.5043 83.9969 69.614 83.9969 69.7214 84.0152L72.4576 85.5931C72.4877 85.6103 72.5128 85.635 72.5302 85.665C72.5476 85.6949 72.5568 85.7289 72.5568 85.7635C72.5568 85.7982 72.5476 85.8322 72.5302 85.8621C72.5128 85.892 72.4877 85.9168 72.4576 85.9339L69.6375 87.5542C69.6074 87.5718 69.5731 87.5811 69.5382 87.5811C69.5034 87.5811 69.4691 87.5718 69.439 87.5542L66.619 85.9339C66.5877 85.9178 66.5615 85.8933 66.5432 85.8633C66.5249 85.8332 66.5153 85.7987 66.5153 85.7635C66.5153 85.7284 66.5249 85.6939 66.5432 85.6638C66.5615 85.6337 66.5877 85.6093 66.619 85.5931Z" fill="url(#paint16_linear_168_4213)"/>
<path d="M66.619 85.5932L69.3593 84.0166C69.4155 83.9874 69.4779 83.9722 69.5413 83.9722C69.6047 83.9722 69.6671 83.9874 69.7233 84.0166L72.4576 85.5932C72.4877 85.6103 72.5128 85.6351 72.5302 85.6651C72.5476 85.695 72.5568 85.729 72.5568 85.7636C72.5568 85.7983 72.5476 85.8323 72.5302 85.8622C72.5128 85.8921 72.4877 85.9169 72.4576 85.934L69.6375 87.5543C69.6074 87.5719 69.5731 87.5812 69.5382 87.5812C69.5034 87.5812 69.4691 87.5719 69.439 87.5543L66.619 85.934C66.5877 85.9179 66.5615 85.8934 66.5432 85.8634C66.5249 85.8333 66.5153 85.7988 66.5153 85.7636C66.5153 85.7284 66.5249 85.6939 66.5432 85.6639C66.5615 85.6338 66.5877 85.6094 66.619 85.5932Z" fill="url(#paint17_linear_168_4213)"/>
<path opacity="0.399" d="M72.5535 85.7905C72.5581 85.8878 72.4296 85.9502 72.4296 85.9502C72.4296 85.9502 71.9587 86.2205 71.4037 86.5404C70.7107 86.9389 69.8825 87.4152 69.7448 87.4949C69.6834 87.537 69.6107 87.5596 69.5362 87.5596C69.4617 87.5596 69.3889 87.537 69.3275 87.4949L66.5793 85.9059C66.5793 85.9059 66.5191 85.8812 66.517 85.7729" stroke="white" stroke-linecap="round" stroke-linejoin="round"/>
<path d="M67.3732 85.641L69.4597 84.4779C69.482 84.4649 69.5073 84.458 69.5332 84.458C69.559 84.458 69.5843 84.4649 69.6066 84.4779L71.6931 85.641C71.7154 85.6536 71.734 85.6719 71.7469 85.6941C71.7598 85.7162 71.7666 85.7414 71.7666 85.767C71.7666 85.7927 71.7598 85.8179 71.7469 85.84C71.734 85.8622 71.7154 85.8805 71.6931 85.8931L69.6066 87.0922C69.5843 87.1052 69.559 87.1121 69.5332 87.1121C69.5073 87.1121 69.482 87.1052 69.4597 87.0922L67.3732 85.8931C67.3501 85.8812 67.3307 85.8631 67.3172 85.8408C67.3037 85.8186 67.2965 85.7931 67.2965 85.767C67.2965 85.741 67.3037 85.7155 67.3172 85.6933C67.3307 85.671 67.3501 85.6529 67.3732 85.641Z" fill="url(#paint18_linear_168_4213)"/>
<path d="M68.3293 85.6443L69.4785 84.9905C69.5229 84.983 69.5683 84.983 69.6127 84.9905L70.7446 85.6443C70.7571 85.6514 70.7675 85.6616 70.7747 85.674C70.7819 85.6864 70.7857 85.7005 70.7857 85.7148C70.7857 85.7292 70.7819 85.7433 70.7747 85.7556C70.7675 85.768 70.7571 85.7783 70.7446 85.7854L69.578 86.455C69.5655 86.4623 69.5514 86.4661 69.5369 86.4661C69.5225 86.4661 69.5084 86.4623 69.4959 86.455L68.3293 85.7848C68.3164 85.7781 68.3057 85.768 68.2982 85.7556C68.2907 85.7432 68.2867 85.729 68.2867 85.7146C68.2867 85.7001 68.2907 85.6859 68.2982 85.6735C68.3057 85.6611 68.3164 85.651 68.3293 85.6443Z" fill="url(#paint19_linear_168_4213)"/>
<path d="M68.3293 85.6438L69.463 84.9916C69.4862 84.9795 69.5121 84.9731 69.5383 84.9731C69.5645 84.9731 69.5904 84.9795 69.6136 84.9916L70.7447 85.6438C70.7571 85.6509 70.7675 85.6611 70.7747 85.6735C70.7819 85.6859 70.7857 85.7 70.7857 85.7143C70.7857 85.7287 70.7819 85.7427 70.7747 85.7551C70.7675 85.7675 70.7571 85.7778 70.7447 85.7848L69.578 86.455C69.5656 86.4623 69.5514 86.4662 69.537 86.4662C69.5226 86.4662 69.5084 86.4623 69.4959 86.455L68.3293 85.7847C68.3164 85.778 68.3055 85.7679 68.298 85.7555C68.2904 85.7431 68.2864 85.7288 68.2864 85.7143C68.2864 85.6997 68.2904 85.6854 68.298 85.673C68.3055 85.6606 68.3164 85.6505 68.3293 85.6438Z" fill="url(#paint20_linear_168_4213)"/>
<path opacity="0.399" d="M70.7838 85.7256C70.7854 85.7659 70.7326 85.7915 70.7326 85.7915C70.7326 85.7915 70.5384 85.9028 70.3075 86.0356C70.0211 86.2006 69.6787 86.3973 69.6221 86.4307C69.5966 86.4482 69.5663 86.4576 69.5354 86.4576C69.5045 86.4576 69.4742 86.4482 69.4487 86.4307L68.312 85.7734C68.312 85.7734 68.2873 85.7631 68.2867 85.7178" stroke="white" stroke-linecap="round" stroke-linejoin="round"/>
<path d="M68.6409 85.6637L69.5047 85.1826C69.5139 85.1772 69.5244 85.1743 69.5351 85.1743C69.5458 85.1743 69.5563 85.1772 69.5655 85.1826L70.4289 85.6637C70.4381 85.6689 70.4458 85.6765 70.4512 85.6857C70.4565 85.6949 70.4593 85.7053 70.4593 85.7159C70.4593 85.7265 70.4565 85.7369 70.4512 85.7461C70.4458 85.7552 70.4381 85.7628 70.4289 85.768L69.5655 86.2641C69.5563 86.2695 69.5458 86.2723 69.5351 86.2723C69.5244 86.2723 69.5139 86.2695 69.5047 86.2641L68.6409 85.768C68.6313 85.7631 68.6233 85.7556 68.6177 85.7464C68.6121 85.7372 68.6091 85.7267 68.6091 85.7159C68.6091 85.7051 68.6121 85.6945 68.6177 85.6853C68.6233 85.6761 68.6313 85.6687 68.6409 85.6637Z" fill="url(#paint21_linear_168_4213)"/>
<path d="M69.5744 104.713C72.6555 104.713 75.1532 102.983 75.1532 100.85C75.1532 98.7174 72.6555 96.9883 69.5744 96.9883C66.4933 96.9883 63.9956 98.7174 63.9956 100.85C63.9956 102.983 66.4933 104.713 69.5744 104.713Z" fill="url(#paint22_linear_168_4213)"/>
<path d="M69.5744 104.643C72.6171 104.643 75.0837 102.945 75.0837 100.851C75.0837 98.7561 72.6171 97.0581 69.5744 97.0581C66.5318 97.0581 64.0652 98.7561 64.0652 100.851C64.0652 102.945 66.5318 104.643 69.5744 104.643Z" stroke="#3F3C58"/>
<path d="M64.091 101.912C63.8196 101.979 64.2961 59.4805 64.2961 59.4805C64.2961 59.4805 75.0426 65.9044 75.0426 68.9729V101.553C75.0426 101.553 69.3075 96.651 64.091 101.912Z" fill="url(#paint23_linear_168_4213)"/>
<g opacity="0.206">
<path d="M69.4023 87.8263C69.3063 87.8942 69.2335 87.9899 69.1936 88.1005C69.1536 88.211 69.1485 88.3312 69.1788 88.4447C69.2091 88.5583 69.2735 88.6599 69.3632 88.7358C69.453 88.8117 69.5638 88.8584 69.6808 88.8695C69.7979 88.8806 69.9155 88.8556 70.0179 88.7979C70.1203 88.7402 70.2026 88.6525 70.2537 88.5466C70.3049 88.4408 70.3224 88.3218 70.3039 88.2057C70.2855 88.0896 70.2319 87.982 70.1505 87.8972C70.1455 87.8888 70.1389 87.8815 70.131 87.8756C70.0604 87.8259 70.002 87.7607 69.9601 87.6852C69.9182 87.6096 69.8939 87.5256 69.8891 87.4393C69.8891 87.2757 69.9282 87.1903 70.131 86.9942L70.1268 86.988C70.2118 86.9092 70.2709 86.8065 70.2965 86.6934C70.3221 86.5804 70.3129 86.4622 70.2703 86.3544C70.2276 86.2467 70.1534 86.1543 70.0573 86.0894C69.9613 86.0245 69.8479 85.9901 69.732 85.9907C69.6161 85.9914 69.5031 86.027 69.4077 86.0929C69.3124 86.1588 69.2392 86.252 69.1977 86.3602C69.1561 86.4684 69.1483 86.5866 69.1751 86.6994C69.2019 86.8122 69.2621 86.9142 69.3479 86.9922L69.3458 86.9953C69.5485 87.19 69.5877 87.2763 69.5877 87.4404C69.5842 87.5139 69.566 87.5859 69.5342 87.6522C69.5023 87.7185 69.4575 87.7777 69.4023 87.8263Z" fill="white"/>
<path d="M71.7383 90.6042C71.7383 90.5083 71.7144 90.4139 71.6687 90.3296C71.623 90.2452 71.557 90.1736 71.4766 90.1213C71.3963 90.0689 71.3041 90.0374 71.2085 90.0297C71.1129 90.022 71.0168 90.0382 70.9291 90.077C70.8414 90.1158 70.7647 90.1758 70.706 90.2517C70.6474 90.3276 70.6086 90.4169 70.5932 90.5116C70.5778 90.6063 70.5863 90.7033 70.6179 90.7939C70.6495 90.8845 70.7031 90.9657 70.7741 91.0303L70.772 91.0324C70.9747 91.2271 71.0139 91.3134 71.0139 91.4775C71.0109 91.5512 70.993 91.6235 70.9611 91.6901C70.9293 91.7566 70.8842 91.816 70.8286 91.8645C70.7327 91.9324 70.6598 92.0281 70.6199 92.1386C70.5799 92.2492 70.5747 92.3693 70.605 92.4829C70.6353 92.5965 70.6997 92.6981 70.7894 92.774C70.8791 92.8499 70.99 92.8966 71.107 92.9077C71.224 92.9188 71.3416 92.8939 71.4441 92.8362C71.5465 92.7785 71.6288 92.6909 71.68 92.585C71.7311 92.4792 71.7486 92.3602 71.7302 92.2441C71.7118 92.128 71.6583 92.0203 71.5768 91.9356C71.5718 91.9271 71.5651 91.9198 71.5572 91.914C71.4866 91.8642 71.4282 91.7991 71.3863 91.7235C71.3444 91.648 71.3201 91.5639 71.3153 91.4776C71.3153 91.3141 71.3544 91.2285 71.5572 91.0325L71.5532 91.0263C71.6117 90.9727 71.6584 90.9074 71.6903 90.8348C71.7222 90.7621 71.7385 90.6836 71.7383 90.6042Z" fill="white"/>
<path d="M67.975 91.8632C67.879 91.9312 67.8062 92.0268 67.7662 92.1374C67.7263 92.2479 67.7211 92.3681 67.7514 92.4817C67.7817 92.5952 67.846 92.6968 67.9358 92.7728C68.0255 92.8487 68.1363 92.8954 68.2534 92.9065C68.3704 92.9176 68.488 92.8926 68.5904 92.835C68.6928 92.7773 68.7752 92.6896 68.8263 92.5838C68.8775 92.4779 68.895 92.359 68.8766 92.2429C68.8581 92.1268 68.8046 92.0191 68.7232 91.9343C68.7181 91.9259 68.7115 91.9186 68.7036 91.9128C68.633 91.863 68.5745 91.7979 68.5326 91.7223C68.4908 91.6467 68.4665 91.5627 68.4617 91.4764C68.4617 91.3128 68.5008 91.2274 68.7036 91.0313L68.6994 91.0252C68.7843 90.9463 68.8435 90.8436 68.8691 90.7305C68.8946 90.6175 68.8855 90.4993 68.8428 90.3916C68.8002 90.2838 68.726 90.1914 68.6299 90.1265C68.5339 90.0616 68.4205 90.0272 68.3046 90.0278C68.1887 90.0285 68.0756 90.0641 67.9803 90.13C67.885 90.1959 67.8117 90.2891 67.7702 90.3973C67.7287 90.5055 67.7208 90.6238 67.7477 90.7365C67.7745 90.8493 67.8347 90.9514 67.9204 91.0293L67.9184 91.0324C68.121 91.2271 68.1603 91.3134 68.1603 91.4775C68.1573 91.551 68.1393 91.6232 68.1074 91.6895C68.0756 91.7558 68.0305 91.815 67.975 91.8632Z" fill="white"/>
<path d="M73.2234 91.55C73.2234 91.4541 73.1995 91.3597 73.1538 91.2754C73.1081 91.191 73.0421 91.1194 72.9617 91.0671C72.8813 91.0147 72.7892 90.9832 72.6936 90.9755C72.5979 90.9678 72.5019 90.984 72.4142 91.0228C72.3264 91.0616 72.2498 91.1216 72.1911 91.1975C72.1325 91.2734 72.0937 91.3627 72.0783 91.4574C72.0629 91.5521 72.0714 91.6491 72.1029 91.7397C72.1345 91.8303 72.1882 91.9115 72.2591 91.9761L72.2571 91.9791C72.4599 92.1739 72.499 92.2601 72.499 92.4243C72.496 92.498 72.4781 92.5703 72.4462 92.6369C72.4143 92.7034 72.3693 92.7627 72.3137 92.8113C72.2177 92.8792 72.1449 92.9748 72.1049 93.0854C72.0649 93.1959 72.0597 93.3161 72.09 93.4297C72.1203 93.5433 72.1846 93.6449 72.2744 93.7208C72.3641 93.7968 72.4749 93.8434 72.592 93.8546C72.709 93.8657 72.8266 93.8407 72.9291 93.783C73.0315 93.7253 73.1138 93.6377 73.165 93.5318C73.2161 93.426 73.2336 93.307 73.2152 93.1909C73.1967 93.0748 73.1432 92.9671 73.0618 92.8823C73.0567 92.8739 73.0501 92.8666 73.0422 92.8608C72.9715 92.811 72.9131 92.7459 72.8712 92.6703C72.8293 92.5947 72.8051 92.5107 72.8003 92.4244C72.8003 92.2608 72.8393 92.1753 73.0422 91.9793L73.038 91.9732C73.0965 91.9193 73.1431 91.8539 73.175 91.781C73.207 91.7082 73.2234 91.6295 73.2234 91.55Z" fill="white"/>
<path d="M74.5275 92.0514C74.4569 92.0016 74.3985 91.9365 74.3566 91.8609C74.3147 91.7854 74.2905 91.7013 74.2857 91.6151C74.2857 91.4515 74.3248 91.3661 74.5275 91.1699L74.5234 91.1638C74.6083 91.0849 74.6675 90.9822 74.6931 90.8692C74.7187 90.7561 74.7095 90.638 74.6669 90.5302C74.6242 90.4224 74.55 90.3301 74.4539 90.2652C74.3579 90.2003 74.2445 90.1659 74.1286 90.1665C74.0127 90.1671 73.8997 90.2027 73.8043 90.2687C73.709 90.3346 73.6358 90.4277 73.5942 90.536C73.5527 90.6442 73.5449 90.7624 73.5717 90.8752C73.5985 90.988 73.6587 91.09 73.7445 91.168L73.7424 91.1711C73.945 91.3658 73.9843 91.452 73.9843 91.6162C73.9813 91.6899 73.9634 91.7622 73.9315 91.8288C73.8996 91.8953 73.8546 91.9546 73.799 92.0032C73.7031 92.0711 73.6302 92.1668 73.5903 92.2774C73.5504 92.3879 73.5452 92.5081 73.5755 92.6216C73.6059 92.7352 73.6702 92.8368 73.76 92.9127C73.8497 92.9886 73.9605 93.0353 74.0776 93.0464C74.1946 93.0575 74.3122 93.0325 74.4146 92.9748C74.517 92.9171 74.5993 92.8294 74.6505 92.7235C74.7016 92.6177 74.7191 92.4987 74.7006 92.3826C74.6822 92.2665 74.6287 92.1589 74.5472 92.0741C74.5432 92.0647 74.5363 92.0567 74.5275 92.0514Z" fill="white"/>
<path d="M65.8633 90.7209C65.8633 90.625 65.8394 90.5306 65.7937 90.4463C65.748 90.3619 65.6819 90.2903 65.6016 90.238C65.5212 90.1856 65.429 90.1541 65.3334 90.1464C65.2378 90.1387 65.1418 90.1549 65.0541 90.1937C64.9663 90.2325 64.8897 90.2925 64.831 90.3684C64.7723 90.4443 64.7336 90.5336 64.7182 90.6283C64.7028 90.723 64.7112 90.82 64.7428 90.9106C64.7744 91.0012 64.8281 91.0824 64.899 91.147L64.897 91.15C65.0996 91.3448 65.1388 91.431 65.1388 91.5952C65.1359 91.6689 65.1179 91.7412 65.0861 91.8078C65.0542 91.8743 65.0091 91.9336 64.9536 91.9822C64.858 92.0504 64.7855 92.1462 64.746 92.2567C64.7064 92.3673 64.7016 92.4873 64.7322 92.6007C64.7628 92.714 64.8273 92.8154 64.9171 92.891C65.007 92.9666 65.1178 93.013 65.2347 93.0238C65.3516 93.0347 65.4691 93.0095 65.5713 92.9517C65.6735 92.8939 65.7556 92.8062 65.8065 92.7004C65.8575 92.5946 65.8748 92.4758 65.8563 92.3598C65.8377 92.2438 65.7842 92.1363 65.7028 92.0517C65.6977 92.0433 65.691 92.036 65.6832 92.0301C65.6125 91.9804 65.5541 91.9152 65.5122 91.8397C65.4703 91.7641 65.4461 91.68 65.4413 91.5938C65.4413 91.4302 65.4803 91.3448 65.6832 91.1487L65.679 91.1425C65.7371 91.0888 65.7835 91.0236 65.8152 90.951C65.847 90.8784 65.8633 90.8001 65.8633 90.7209Z" fill="white"/>
<path d="M69.4023 92.8087C69.3064 92.8766 69.2336 92.9723 69.1936 93.0828C69.1536 93.1934 69.1485 93.3135 69.1788 93.4271C69.2091 93.5407 69.2734 93.6422 69.3631 93.7182C69.4529 93.7941 69.5637 93.8408 69.6807 93.8519C69.7977 93.863 69.9154 93.8381 70.0178 93.7804C70.1202 93.7227 70.2025 93.635 70.2537 93.5292C70.3048 93.4234 70.3224 93.3044 70.3039 93.1883C70.2855 93.0722 70.232 92.9645 70.1506 92.8797C70.1456 92.8713 70.1389 92.864 70.1311 92.8582C70.0605 92.8084 70.002 92.7433 69.9601 92.6677C69.9183 92.5921 69.894 92.5081 69.8892 92.4218C69.8869 92.3531 69.9002 92.2848 69.928 92.2219C69.9558 92.159 69.9974 92.1032 70.0497 92.0586C70.13 92.0063 70.1959 91.9347 70.2416 91.8504C70.2872 91.7661 70.3111 91.6718 70.3111 91.5759V91.5481C70.3112 91.4462 70.2842 91.3462 70.2328 91.2582C70.1815 91.1702 70.1077 91.0974 70.019 91.0474C69.9381 90.9568 69.8922 90.8404 69.8893 90.7191C69.8893 90.5555 69.9284 90.4701 70.1312 90.2739L70.127 90.2678C70.212 90.1889 70.2711 90.0862 70.2967 89.9732C70.3223 89.8601 70.3131 89.742 70.2705 89.6342C70.2278 89.5265 70.1536 89.4341 70.0576 89.3692C69.9615 89.3043 69.8481 89.2699 69.7322 89.2705C69.6163 89.2711 69.5033 89.3067 69.4079 89.3727C69.3126 89.4386 69.2394 89.5318 69.1979 89.64C69.1564 89.7482 69.1485 89.8664 69.1753 89.9792C69.2021 90.092 69.2623 90.194 69.3481 90.272L69.346 90.2751C69.5487 90.4698 69.5879 90.556 69.5879 90.7202C69.5846 90.8388 69.5404 90.9526 69.4627 91.0423C69.3708 91.0917 69.2941 91.165 69.2406 91.2546C69.1872 91.3441 69.159 91.4465 69.1592 91.5508V91.5775C69.1592 91.6765 69.1847 91.7738 69.2332 91.8601C69.2817 91.9464 69.3515 92.0189 69.436 92.0704C69.4859 92.1143 69.5254 92.1688 69.5516 92.2298C69.5778 92.2909 69.59 92.3571 69.5873 92.4235C69.5838 92.4968 69.5657 92.5687 69.5339 92.6348C69.5021 92.701 69.4574 92.7601 69.4023 92.8087Z" fill="white"/>
<path d="M71.1548 89.4588C71.4765 89.4588 71.7372 89.198 71.7372 88.8764C71.7372 88.5547 71.4765 88.2939 71.1548 88.2939C70.8331 88.2939 70.5724 88.5547 70.5724 88.8764C70.5724 89.198 70.8331 89.4588 71.1548 89.4588Z" fill="white"/>
<path d="M68.3145 89.4588C68.6361 89.4588 68.8969 89.198 68.8969 88.8764C68.8969 88.5547 68.6361 88.2939 68.3145 88.2939C67.9928 88.2939 67.7321 88.5547 67.7321 88.8764C67.7321 89.198 67.9928 89.4588 68.3145 89.4588Z" fill="white"/>
<path d="M67.1331 92.8102C67.0779 92.7614 67.0331 92.702 67.0014 92.6355C66.9697 92.569 66.9519 92.4968 66.9489 92.4232C66.9489 92.2595 66.988 92.174 67.1908 91.9781L67.1868 91.9719C67.2717 91.893 67.3308 91.7903 67.3564 91.6773C67.382 91.5642 67.3729 91.4461 67.3302 91.3383C67.2876 91.2306 67.2133 91.1382 67.1173 91.0733C67.0213 91.0084 66.9079 90.974 66.792 90.9746C66.676 90.9752 66.563 91.0108 66.4677 91.0768C66.3723 91.1427 66.2991 91.2359 66.2576 91.3441C66.2161 91.4523 66.2082 91.5705 66.235 91.6833C66.2618 91.7961 66.3221 91.8981 66.4078 91.9761L66.4057 91.9792C66.6085 92.1739 66.6476 92.2602 66.6476 92.4243C66.6447 92.498 66.6267 92.5703 66.5949 92.6369C66.563 92.7034 66.5179 92.7628 66.4624 92.8113C66.3871 92.8645 66.3256 92.9349 66.2832 93.0167C66.2408 93.0986 66.2186 93.1894 66.2185 93.2816V93.2898C66.2187 93.3899 66.2448 93.4882 66.2941 93.5753C66.3434 93.6625 66.4144 93.7354 66.5001 93.7871C66.5858 93.8388 66.6834 93.8675 66.7835 93.8705C66.8835 93.8735 66.9827 93.8507 67.0713 93.8042C67.16 93.7577 67.2352 93.6892 67.2896 93.6052C67.3441 93.5212 67.376 93.4245 67.3822 93.3246C67.3884 93.2247 67.3688 93.1249 67.3252 93.0348C67.2816 92.9447 67.2156 92.8673 67.1334 92.8102H67.1331Z" fill="white"/>
<path d="M68.3145 94.6424C68.6361 94.6424 68.8969 94.3816 68.8969 94.06C68.8969 93.7383 68.6361 93.4775 68.3145 93.4775C67.9928 93.4775 67.7321 93.7383 67.7321 94.06C67.7321 94.3816 67.9928 94.6424 68.3145 94.6424Z" fill="white"/>
<path d="M71.1621 94.6424C71.4838 94.6424 71.7445 94.3816 71.7445 94.06C71.7445 93.7383 71.4838 93.4775 71.1621 93.4775C70.8405 93.4775 70.5797 93.7383 70.5797 94.06C70.5797 94.3816 70.8405 94.6424 71.1621 94.6424Z" fill="white"/>
</g>
<g opacity="0.206">
<path d="M69.4023 88.1119C69.3063 88.1799 69.2335 88.2756 69.1936 88.3861C69.1536 88.4967 69.1485 88.6168 69.1788 88.7304C69.2091 88.8439 69.2735 88.9455 69.3632 89.0214C69.453 89.0974 69.5638 89.144 69.6808 89.1551C69.7979 89.1662 69.9155 89.1412 70.0179 89.0835C70.1203 89.0258 70.2026 88.9381 70.2537 88.8323C70.3049 88.7264 70.3224 88.6075 70.3039 88.4914C70.2855 88.3753 70.2319 88.2676 70.1505 88.1829C70.1455 88.1745 70.1389 88.1671 70.131 88.1613C70.0604 88.1115 70.002 88.0464 69.9601 87.9708C69.9182 87.8953 69.8939 87.8112 69.8891 87.7249C69.8891 87.5613 69.9282 87.4759 70.131 87.2798L70.1268 87.2737C70.2118 87.1948 70.2709 87.0921 70.2965 86.9791C70.3221 86.866 70.3129 86.7479 70.2703 86.6401C70.2276 86.5323 70.1534 86.4399 70.0573 86.375C69.9613 86.3101 69.8479 86.2758 69.732 86.2764C69.6161 86.277 69.5031 86.3126 69.4077 86.3785C69.3124 86.4444 69.2392 86.5376 69.1977 86.6458C69.1561 86.7541 69.1483 86.8723 69.1751 86.9851C69.2019 87.0978 69.2621 87.1999 69.3479 87.2779L69.3458 87.2809C69.5485 87.4757 69.5877 87.5619 69.5877 87.726C69.5842 87.7995 69.566 87.8715 69.5342 87.9378C69.5023 88.0041 69.4575 88.0633 69.4023 88.1119Z" fill="white"/>
<path d="M71.7383 90.8904C71.7383 90.7944 71.7144 90.7 71.6687 90.6157C71.623 90.5314 71.557 90.4598 71.4766 90.4074C71.3963 90.355 71.3041 90.3236 71.2085 90.3158C71.1129 90.3081 71.0168 90.3244 70.9291 90.3631C70.8414 90.4019 70.7647 90.462 70.706 90.5378C70.6474 90.6137 70.6086 90.7031 70.5932 90.7978C70.5778 90.8924 70.5863 90.9895 70.6179 91.08C70.6495 91.1706 70.7031 91.2518 70.7741 91.3164L70.772 91.3185C70.9747 91.5132 71.0139 91.5995 71.0139 91.7636C71.0109 91.8373 70.993 91.9097 70.9611 91.9762C70.9293 92.0428 70.8842 92.1021 70.8286 92.1506C70.7327 92.2186 70.6598 92.3142 70.6199 92.4248C70.5799 92.5353 70.5747 92.6555 70.605 92.769C70.6353 92.8826 70.6997 92.9842 70.7894 93.0601C70.8791 93.1361 70.99 93.1827 71.107 93.1939C71.224 93.205 71.3416 93.18 71.4441 93.1223C71.5465 93.0646 71.6288 92.977 71.68 92.8711C71.7311 92.7653 71.7486 92.6463 71.7302 92.5303C71.7118 92.4142 71.6583 92.3065 71.5768 92.2217C71.5718 92.2133 71.5651 92.206 71.5572 92.2001C71.4866 92.1503 71.4282 92.0852 71.3863 92.0097C71.3444 91.9341 71.3201 91.85 71.3153 91.7638C71.3153 91.6002 71.3544 91.5146 71.5572 91.3186L71.5532 91.3124C71.6117 91.2588 71.6584 91.1936 71.6903 91.1209C71.7222 91.0482 71.7385 90.9697 71.7383 90.8904Z" fill="white"/>
<path d="M67.975 92.1494C67.879 92.2173 67.8062 92.313 67.7662 92.4235C67.7263 92.5341 67.7211 92.6542 67.7514 92.7678C67.7817 92.8814 67.846 92.983 67.9358 93.0589C68.0255 93.1348 68.1363 93.1815 68.2534 93.1926C68.3704 93.2037 68.488 93.1788 68.5904 93.1211C68.6928 93.0634 68.7752 92.9757 68.8263 92.8699C68.8775 92.7641 68.895 92.6451 68.8766 92.529C68.8581 92.4129 68.8046 92.3052 68.7232 92.2204C68.7181 92.2121 68.7115 92.2047 68.7036 92.1989C68.633 92.1491 68.5745 92.084 68.5326 92.0084C68.4908 91.9329 68.4665 91.8488 68.4617 91.7625C68.4617 91.5989 68.5008 91.5135 68.7036 91.3174L68.6994 91.3113C68.7843 91.2324 68.8435 91.1297 68.8691 91.0167C68.8946 90.9036 68.8855 90.7855 68.8428 90.6777C68.8002 90.5699 68.726 90.4775 68.6299 90.4126C68.5339 90.3477 68.4205 90.3134 68.3046 90.314C68.1887 90.3146 68.0756 90.3502 67.9803 90.4161C67.885 90.482 67.8117 90.5752 67.7702 90.6834C67.7287 90.7917 67.7208 90.9099 67.7477 91.0227C67.7745 91.1354 67.8347 91.2375 67.9204 91.3155L67.9184 91.3185C68.121 91.5133 68.1603 91.5995 68.1603 91.7636C68.1573 91.8372 68.1393 91.9093 68.1074 91.9756C68.0756 92.042 68.0305 92.1011 67.975 92.1494Z" fill="white"/>
<path d="M73.2234 91.8362C73.2234 91.7402 73.1995 91.6458 73.1538 91.5615C73.1081 91.4772 73.0421 91.4056 72.9617 91.3532C72.8813 91.3008 72.7892 91.2694 72.6936 91.2616C72.5979 91.2539 72.5019 91.2702 72.4142 91.3089C72.3264 91.3477 72.2498 91.4078 72.1911 91.4836C72.1325 91.5595 72.0937 91.6489 72.0783 91.7436C72.0629 91.8382 72.0714 91.9353 72.1029 92.0258C72.1345 92.1164 72.1882 92.1977 72.2591 92.2622L72.2571 92.2653C72.4599 92.46 72.499 92.5463 72.499 92.7104C72.496 92.7841 72.4781 92.8565 72.4462 92.923C72.4143 92.9895 72.3693 93.0489 72.3137 93.0974C72.2177 93.1653 72.1449 93.261 72.1049 93.3715C72.0649 93.4821 72.0597 93.6022 72.09 93.7158C72.1203 93.8294 72.1846 93.931 72.2744 94.0069C72.3641 94.0829 72.4749 94.1296 72.592 94.1407C72.709 94.1518 72.8266 94.1268 72.9291 94.0692C73.0315 94.0115 73.1138 93.9238 73.165 93.8179C73.2161 93.7121 73.2336 93.5931 73.2152 93.477C73.1967 93.3609 73.1432 93.2532 73.0618 93.1685C73.0567 93.16 73.0501 93.1527 73.0422 93.1469C72.9715 93.0971 72.9131 93.032 72.8712 92.9564C72.8293 92.8809 72.8051 92.7968 72.8003 92.7105C72.8003 92.547 72.8393 92.4614 73.0422 92.2654L73.038 92.2593C73.0965 92.2054 73.1431 92.14 73.175 92.0672C73.207 91.9943 73.2234 91.9157 73.2234 91.8362Z" fill="white"/>
<path d="M74.5275 92.3376C74.4569 92.2877 74.3985 92.2226 74.3566 92.1471C74.3147 92.0715 74.2905 91.9875 74.2857 91.9012C74.2857 91.7376 74.3248 91.6522 74.5275 91.4561L74.5234 91.45C74.6083 91.3711 74.6675 91.2684 74.6931 91.1553C74.7187 91.0423 74.7095 90.9241 74.6669 90.8164C74.6242 90.7086 74.55 90.6162 74.4539 90.5513C74.3579 90.4864 74.2445 90.452 74.1286 90.4526C74.0127 90.4533 73.8997 90.4889 73.8043 90.5548C73.709 90.6207 73.6358 90.7139 73.5942 90.8221C73.5527 90.9303 73.5449 91.0486 73.5717 91.1613C73.5985 91.2741 73.6587 91.3762 73.7445 91.4541L73.7424 91.4572C73.945 91.6519 73.9843 91.7382 73.9843 91.9023C73.9813 91.976 73.9634 92.0484 73.9315 92.1149C73.8996 92.1814 73.8546 92.2408 73.799 92.2893C73.7031 92.3572 73.6302 92.4529 73.5903 92.5635C73.5504 92.6741 73.5452 92.7942 73.5755 92.9078C73.6059 93.0213 73.6702 93.1229 73.76 93.1988C73.8497 93.2748 73.9605 93.3214 74.0776 93.3325C74.1946 93.3436 74.3122 93.3186 74.4146 93.2609C74.517 93.2032 74.5993 93.1155 74.6505 93.0097C74.7016 92.9038 74.7191 92.7849 74.7006 92.6688C74.6822 92.5527 74.6287 92.445 74.5472 92.3602C74.5432 92.3508 74.5363 92.3429 74.5275 92.3376Z" fill="white"/>
<path d="M65.8633 91.0066C65.8633 90.9106 65.8394 90.8162 65.7937 90.7319C65.748 90.6476 65.6819 90.576 65.6016 90.5236C65.5212 90.4713 65.429 90.4398 65.3334 90.4321C65.2378 90.4243 65.1418 90.4406 65.0541 90.4793C64.9663 90.5181 64.8897 90.5782 64.831 90.6541C64.7723 90.73 64.7336 90.8193 64.7182 90.914C64.7028 91.0086 64.7112 91.1057 64.7428 91.1962C64.7744 91.2868 64.8281 91.3681 64.899 91.4326L64.897 91.4357C65.0996 91.6304 65.1388 91.7167 65.1388 91.8808C65.1359 91.9545 65.1179 92.0269 65.0861 92.0934C65.0542 92.1599 65.0091 92.2193 64.9536 92.2678C64.858 92.336 64.7855 92.4318 64.746 92.5424C64.7064 92.6529 64.7016 92.7729 64.7322 92.8863C64.7628 92.9997 64.8273 93.101 64.9171 93.1766C65.007 93.2523 65.1178 93.2986 65.2347 93.3095C65.3516 93.3203 65.4691 93.2952 65.5713 93.2374C65.6735 93.1795 65.7556 93.0919 65.8065 92.9861C65.8575 92.8803 65.8748 92.7614 65.8563 92.6454C65.8377 92.5295 65.7842 92.422 65.7028 92.3373C65.6977 92.3289 65.691 92.3216 65.6832 92.3158C65.6125 92.266 65.5541 92.2009 65.5122 92.1253C65.4703 92.0498 65.4461 91.9657 65.4413 91.8794C65.4413 91.7158 65.4803 91.6304 65.6832 91.4343L65.679 91.4282C65.7371 91.3744 65.7835 91.3092 65.8152 91.2367C65.847 91.1641 65.8633 91.0858 65.8633 91.0066Z" fill="white"/>
<path d="M69.4023 93.0948C69.3064 93.1627 69.2336 93.2584 69.1936 93.3689C69.1536 93.4795 69.1485 93.5996 69.1788 93.7132C69.2091 93.8268 69.2734 93.9284 69.3631 94.0043C69.4529 94.0803 69.5637 94.1269 69.6807 94.138C69.7977 94.1492 69.9154 94.1242 70.0178 94.0665C70.1202 94.0088 70.2025 93.9212 70.2537 93.8153C70.3048 93.7095 70.3224 93.5905 70.3039 93.4744C70.2855 93.3583 70.232 93.2507 70.1506 93.1659C70.1456 93.1575 70.1389 93.1501 70.1311 93.1443C70.0605 93.0945 70.002 93.0294 69.9601 92.9538C69.9183 92.8783 69.894 92.7942 69.8892 92.7079C69.8869 92.6392 69.9002 92.5709 69.928 92.508C69.9558 92.4451 69.9974 92.3893 70.0497 92.3448C70.13 92.2924 70.1959 92.2208 70.2416 92.1365C70.2872 92.0523 70.3111 91.9579 70.3111 91.8621V91.8342C70.3112 91.7324 70.2842 91.6323 70.2328 91.5443C70.1815 91.4563 70.1077 91.3835 70.019 91.3335C69.9381 91.2429 69.8922 91.1266 69.8893 91.0052C69.8893 90.8416 69.9284 90.7562 70.1312 90.5601L70.127 90.554C70.212 90.4751 70.2711 90.3724 70.2967 90.2593C70.3223 90.1463 70.3131 90.0281 70.2705 89.9204C70.2278 89.8126 70.1536 89.7202 70.0576 89.6553C69.9615 89.5904 69.8481 89.556 69.7322 89.5566C69.6163 89.5573 69.5033 89.5929 69.4079 89.6588C69.3126 89.7247 69.2394 89.8179 69.1979 89.9261C69.1564 90.0343 69.1485 90.1526 69.1753 90.2653C69.2021 90.3781 69.2623 90.4802 69.3481 90.5581L69.346 90.5612C69.5487 90.7559 69.5879 90.8422 69.5879 91.0063C69.5846 91.1249 69.5404 91.2388 69.4627 91.3285C69.3708 91.3778 69.2941 91.4512 69.2406 91.5407C69.1872 91.6302 69.159 91.7326 69.1592 91.8369V91.8636C69.1592 91.9626 69.1847 92.0599 69.2332 92.1462C69.2817 92.2326 69.3515 92.305 69.436 92.3566C69.4859 92.4004 69.5254 92.4549 69.5516 92.516C69.5778 92.5771 69.59 92.6432 69.5873 92.7096C69.5838 92.7829 69.5657 92.8548 69.5339 92.921C69.5021 92.9871 69.4574 93.0462 69.4023 93.0948Z" fill="white"/>
<path d="M71.1548 89.7449C71.4765 89.7449 71.7372 89.4842 71.7372 89.1625C71.7372 88.8408 71.4765 88.5801 71.1548 88.5801C70.8331 88.5801 70.5724 88.8408 70.5724 89.1625C70.5724 89.4842 70.8331 89.7449 71.1548 89.7449Z" fill="white"/>
<path d="M68.3145 89.7449C68.6361 89.7449 68.8969 89.4842 68.8969 89.1625C68.8969 88.8408 68.6361 88.5801 68.3145 88.5801C67.9928 88.5801 67.7321 88.8408 67.7321 89.1625C67.7321 89.4842 67.9928 89.7449 68.3145 89.7449Z" fill="white"/>
<path d="M67.1331 93.0963C67.0779 93.0476 67.0331 92.9882 67.0014 92.9217C66.9697 92.8551 66.9519 92.7829 66.9489 92.7093C66.9489 92.5456 66.988 92.4602 67.1908 92.2642L67.1868 92.2581C67.2717 92.1792 67.3308 92.0765 67.3564 91.9634C67.382 91.8504 67.3729 91.7322 67.3302 91.6245C67.2876 91.5167 67.2133 91.4243 67.1173 91.3594C67.0213 91.2945 66.9079 91.2601 66.792 91.2608C66.676 91.2614 66.563 91.297 66.4677 91.3629C66.3723 91.4288 66.2991 91.522 66.2576 91.6302C66.2161 91.7384 66.2082 91.8567 66.235 91.9694C66.2618 92.0822 66.3221 92.1843 66.4078 92.2622L66.4057 92.2653C66.6085 92.46 66.6476 92.5463 66.6476 92.7104C66.6447 92.7841 66.6267 92.8565 66.5949 92.923C66.563 92.9895 66.5179 93.0489 66.4624 93.0974C66.3871 93.1506 66.3256 93.221 66.2832 93.3029C66.2408 93.3847 66.2186 93.4755 66.2185 93.5677V93.5759C66.2187 93.676 66.2448 93.7744 66.2941 93.8615C66.3434 93.9486 66.4144 94.0215 66.5001 94.0732C66.5858 94.1249 66.6834 94.1537 66.7835 94.1567C66.8835 94.1597 66.9827 94.1368 67.0713 94.0903C67.16 94.0438 67.2352 93.9753 67.2896 93.8913C67.3441 93.8073 67.376 93.7107 67.3822 93.6108C67.3884 93.5109 67.3688 93.411 67.3252 93.3209C67.2816 93.2308 67.2156 93.1534 67.1334 93.0963H67.1331Z" fill="white"/>
<path d="M68.3145 94.9285C68.6361 94.9285 68.8969 94.6677 68.8969 94.3461C68.8969 94.0244 68.6361 93.7637 68.3145 93.7637C67.9928 93.7637 67.7321 94.0244 67.7321 94.3461C67.7321 94.6677 67.9928 94.9285 68.3145 94.9285Z" fill="white"/>
<path d="M71.1621 94.9285C71.4838 94.9285 71.7445 94.6677 71.7445 94.3461C71.7445 94.0244 71.4838 93.7637 71.1621 93.7637C70.8405 93.7637 70.5797 94.0244 70.5797 94.3461C70.5797 94.6677 70.8405 94.9285 71.1621 94.9285Z" fill="white"/>
</g>
<path opacity="0.488" d="M18.4434 169.85L47.6518 152.88L54.1515 156.622L25.8047 174.064L18.4434 169.85Z" fill="url(#paint24_linear_168_4213)"/>
<path d="M47.6055 149.718L54.2609 153.501V156.648L47.6055 152.865V149.718Z" fill="#23D29E"/>
<path d="M47.6055 145.426L54.2609 149.21V152.356L47.6055 148.573V145.426Z" fill="#23D29E"/>
<path d="M47.6055 140.992L54.2609 144.776V147.922L47.6055 144.139V140.992Z" fill="#23D29E"/>
<path d="M47.6055 136.558L54.2609 140.341V143.488L47.6055 139.705V136.558Z" fill="#23D29E"/>
<path opacity="0.772" d="M47.6055 149.718L54.2609 153.501V156.648L47.6055 152.865V149.718Z" fill="url(#paint25_linear_168_4213)"/>
<path opacity="0.772" d="M47.6055 145.426L54.2609 149.21V152.356L47.6055 148.573V145.426Z" fill="url(#paint26_linear_168_4213)"/>
<path opacity="0.772" d="M47.6055 140.992L54.2609 144.776V147.922L47.6055 144.139V140.992Z" fill="url(#paint27_linear_168_4213)"/>
<path opacity="0.772" d="M47.6055 136.558L54.2609 140.341V143.488L47.6055 139.705V136.558Z" fill="url(#paint28_linear_168_4213)"/>
<path opacity="0.488" d="M18.4434 169.85L47.6518 152.88L54.1515 156.622L25.8047 174.064L18.4434 169.85Z" fill="url(#paint29_linear_168_4213)"/>
<g filter="url(#filter3_d_168_4213)">
<path opacity="0.086" d="M63.7658 119.246C63.8064 119.287 67.7278 122.056 69.4293 121.96C70.1199 121.922 70.7069 121.842 71.8856 121.205C74.7656 119.647 77.6026 117.956 78.9864 117.224C79.7915 117.507 79.743 117.477 79.743 117.477V127.112C79.743 127.112 95.6469 117.856 89.0988 121.439C82.5484 125.021 95.8729 118.049 95.8729 118.049L96.1405 107.946L95.3827 107.668L101.566 104.002C101.566 104.002 103.531 103.105 103.576 101.926C103.62 100.747 100.993 99.4222 100.993 99.4222L71.8856 82.4915C71.8856 82.4915 69.7572 80.8902 67.1531 82.4915C59.0256 87.1653 40.6113 97.6452 37.4573 99.4479C33.4039 101.765 36.8957 103.772 36.8957 103.772C36.8957 103.772 63.7057 119.186 63.7658 119.246Z" stroke="#48FFF1" stroke-linecap="round"/>
</g>
<path d="M51.8948 106.442L59.1837 110.703L53.8155 113.804L46.5266 109.543L51.8948 106.442Z" fill="url(#paint30_linear_168_4213)"/>
<path d="M54.821 113.804H53.8152V126.535L54.821 125.876V113.804Z" fill="url(#paint31_linear_168_4213)"/>
<path d="M59.1834 111.926V110.704L53.8152 113.804V115.027L59.1834 111.926Z" fill="url(#paint32_linear_168_4213)"/>
<path d="M46.5266 109.542L53.8151 113.804V126.535L46.5266 122.273V109.542Z" fill="url(#paint33_linear_168_4213)"/>
<path d="M92.8677 109.542L85.5792 113.804V126.535L92.8681 122.274L92.8677 109.542Z" fill="url(#paint34_linear_168_4213)"/>
<path d="M87.4994 106.442L80.2109 110.703L85.5791 113.804L92.8681 109.542L87.4994 106.442Z" fill="url(#paint35_linear_168_4213)"/>
<path d="M84.5734 113.804H85.5792V126.535L84.5734 125.876V113.804Z" fill="url(#paint36_linear_168_4213)"/>
<path d="M80.2109 111.926V110.704L85.5791 113.804V115.027L80.2109 111.926Z" fill="url(#paint37_linear_168_4213)"/>
<path d="M84.7952 87.7031L92.0841 91.9646L86.7159 95.0652L79.427 90.8038L84.7952 87.7031Z" fill="url(#paint38_linear_168_4213)"/>
<path d="M79.4957 92.0432V90.8203L86.7955 94.9732V96.196L79.4957 92.0432Z" fill="url(#paint39_linear_168_4213)"/>
<path d="M86.7911 96.1911V94.9683L92.0831 91.959V94.8302L90.7756 94.1021L86.7911 96.1911Z" fill="url(#paint40_linear_168_4213)"/>
<path d="M53.8838 87.7031L46.5953 91.9646L51.9635 95.0652L59.2525 90.8037L53.8838 87.7031Z" fill="url(#paint41_linear_168_4213)"/>
<path d="M59.1832 92.0432V90.8203L51.8834 94.9732V96.196L59.1832 92.0432Z" fill="url(#paint42_linear_168_4213)"/>
<path d="M51.8879 96.1911V94.9683L46.5959 91.959V95.2044L48.2265 94.175L51.8879 96.1911Z" fill="url(#paint43_linear_168_4213)"/>
<path opacity="0.21" d="M51.6925 92.2817L55.4476 90.2529L56.9356 91.1828L53.1804 93.2117L51.6925 92.2817Z" fill="url(#paint44_linear_168_4213)"/>
<path opacity="0.21" d="M83.1625 110.019L86.9176 107.99L88.4055 108.92L84.6504 110.949L83.1625 110.019Z" fill="url(#paint45_linear_168_4213)"/>
<path opacity="0.21" d="M56.8765 110.159L52.8237 107.922L51.369 108.903L55.4219 111.14L56.8765 110.159Z" fill="url(#paint46_linear_168_4213)"/>
<path opacity="0.21" d="M87.345 92.5648L83.2922 90.3278L81.8375 91.309L85.8904 93.546L87.345 92.5648Z" fill="url(#paint47_linear_168_4213)"/>
<path d="M66.619 118.494L69.397 116.916C69.5043 116.897 69.614 116.897 69.7214 116.916L72.4576 118.494C72.4877 118.511 72.5128 118.535 72.5302 118.565C72.5476 118.595 72.5568 118.629 72.5568 118.664C72.5568 118.699 72.5476 118.733 72.5302 118.763C72.5128 118.792 72.4877 118.817 72.4576 118.834L69.6375 120.455C69.6074 120.472 69.5731 120.482 69.5382 120.482C69.5034 120.482 69.4691 120.472 69.439 120.455L66.619 118.834C66.5877 118.818 66.5615 118.794 66.5432 118.764C66.5249 118.734 66.5153 118.699 66.5153 118.664C66.5153 118.629 66.5249 118.594 66.5432 118.564C66.5615 118.534 66.5877 118.51 66.619 118.494Z" fill="url(#paint48_linear_168_4213)"/>
<path d="M66.619 118.493L69.3593 116.917C69.4155 116.887 69.4779 116.872 69.5413 116.872C69.6047 116.872 69.6671 116.887 69.7233 116.917L72.4576 118.493C72.4877 118.51 72.5128 118.535 72.5302 118.565C72.5476 118.595 72.5568 118.629 72.5568 118.664C72.5568 118.698 72.5476 118.732 72.5302 118.762C72.5128 118.792 72.4877 118.817 72.4576 118.834L69.6375 120.454C69.6074 120.472 69.5731 120.481 69.5382 120.481C69.5034 120.481 69.4691 120.472 69.439 120.454L66.619 118.834C66.5877 118.818 66.5615 118.793 66.5432 118.763C66.5249 118.733 66.5153 118.699 66.5153 118.664C66.5153 118.628 66.5249 118.594 66.5432 118.564C66.5615 118.534 66.5877 118.509 66.619 118.493Z" fill="url(#paint49_linear_168_4213)"/>
<path opacity="0.399" d="M72.5535 118.69C72.5581 118.788 72.4296 118.85 72.4296 118.85C72.4296 118.85 71.9587 119.12 71.4037 119.44C70.7107 119.839 69.8825 120.315 69.7448 120.395C69.6834 120.437 69.6107 120.459 69.5362 120.459C69.4617 120.459 69.3889 120.437 69.3275 120.395L66.5793 118.806C66.5793 118.806 66.5191 118.781 66.517 118.673" stroke="white" stroke-linecap="round" stroke-linejoin="round"/>
<path d="M67.3732 118.541L69.4597 117.378C69.482 117.365 69.5073 117.358 69.5332 117.358C69.559 117.358 69.5843 117.365 69.6066 117.378L71.6931 118.541C71.7154 118.554 71.734 118.572 71.7469 118.594C71.7598 118.617 71.7666 118.642 71.7666 118.667C71.7666 118.693 71.7598 118.718 71.7469 118.74C71.734 118.763 71.7154 118.781 71.6931 118.794L69.6066 119.993C69.5843 120.006 69.559 120.013 69.5332 120.013C69.5073 120.013 69.482 120.006 69.4597 119.993L67.3732 118.794C67.3501 118.782 67.3307 118.763 67.3172 118.741C67.3037 118.719 67.2965 118.693 67.2965 118.667C67.2965 118.641 67.3037 118.616 67.3172 118.594C67.3307 118.571 67.3501 118.553 67.3732 118.541Z" fill="url(#paint50_linear_168_4213)"/>
<path d="M37.724 101.757L40.502 100.179C40.6093 100.161 40.719 100.161 40.8264 100.179L43.5626 101.757C43.5927 101.774 43.6178 101.799 43.6352 101.829C43.6526 101.859 43.6618 101.893 43.6618 101.928C43.6618 101.962 43.6526 101.996 43.6352 102.026C43.6178 102.056 43.5927 102.081 43.5626 102.098L40.7425 103.718C40.7124 103.736 40.6781 103.745 40.6432 103.745C40.6083 103.745 40.5741 103.736 40.544 103.718L37.724 102.098C37.6927 102.082 37.6665 102.057 37.6482 102.027C37.6299 101.997 37.6202 101.963 37.6202 101.928C37.6202 101.892 37.6299 101.858 37.6482 101.828C37.6665 101.798 37.6927 101.773 37.724 101.757Z" fill="url(#paint51_linear_168_4213)"/>
<path d="M37.724 101.757L40.4643 100.181C40.5205 100.151 40.5829 100.136 40.6463 100.136C40.7096 100.136 40.7721 100.151 40.8283 100.181L43.5626 101.757C43.5927 101.774 43.6178 101.799 43.6352 101.829C43.6526 101.859 43.6618 101.893 43.6618 101.928C43.6618 101.962 43.6526 101.996 43.6352 102.026C43.6178 102.056 43.5927 102.081 43.5626 102.098L40.7425 103.718C40.7124 103.736 40.6781 103.745 40.6432 103.745C40.6083 103.745 40.5741 103.736 40.544 103.718L37.724 102.098C37.6927 102.082 37.6665 102.057 37.6482 102.027C37.6299 101.997 37.6202 101.963 37.6202 101.928C37.6202 101.893 37.6299 101.858 37.6482 101.828C37.6665 101.798 37.6927 101.773 37.724 101.757Z" fill="url(#paint52_linear_168_4213)"/>
<path opacity="0.399" d="M43.6586 101.955C43.6632 102.052 43.5347 102.114 43.5347 102.114C43.5347 102.114 43.0638 102.385 42.5088 102.704C41.8158 103.103 40.9876 103.579 40.8499 103.659C40.7885 103.701 40.7158 103.724 40.6413 103.724C40.5668 103.724 40.4941 103.701 40.4326 103.659L37.6844 102.07C37.6844 102.07 37.6242 102.045 37.6221 101.937" stroke="white" stroke-linecap="round" stroke-linejoin="round"/>
<path d="M38.4782 101.805L40.5647 100.642C40.587 100.629 40.6123 100.622 40.6381 100.622C40.6639 100.622 40.6893 100.629 40.7116 100.642L42.7981 101.805C42.8204 101.818 42.839 101.836 42.8519 101.858C42.8648 101.88 42.8716 101.905 42.8716 101.931C42.8716 101.957 42.8648 101.982 42.8519 102.004C42.839 102.026 42.8204 102.045 42.7981 102.057L40.7116 103.256C40.6893 103.269 40.6639 103.276 40.6381 103.276C40.6123 103.276 40.587 103.269 40.5647 103.256L38.4782 102.057C38.4551 102.045 38.4357 102.027 38.4222 102.005C38.4086 101.983 38.4015 101.957 38.4015 101.931C38.4015 101.905 38.4086 101.88 38.4222 101.857C38.4357 101.835 38.4551 101.817 38.4782 101.805Z" fill="url(#paint53_linear_168_4213)"/>
<path d="M95.3711 101.757L98.1491 100.179C98.2564 100.161 98.3661 100.161 98.4734 100.179L101.21 101.757C101.24 101.774 101.265 101.799 101.282 101.829C101.3 101.859 101.309 101.893 101.309 101.928C101.309 101.962 101.3 101.996 101.282 102.026C101.265 102.056 101.24 102.081 101.21 102.098L98.3896 103.718C98.3595 103.736 98.3252 103.745 98.2903 103.745C98.2554 103.745 98.2212 103.736 98.1911 103.718L95.3711 102.098C95.3398 102.082 95.3136 102.057 95.2953 102.027C95.277 101.997 95.2673 101.963 95.2673 101.928C95.2673 101.892 95.277 101.858 95.2953 101.828C95.3136 101.798 95.3398 101.773 95.3711 101.757Z" fill="url(#paint54_linear_168_4213)"/>
<path d="M95.3711 101.757L98.1114 100.181C98.1676 100.151 98.23 100.136 98.2934 100.136C98.3567 100.136 98.4192 100.151 98.4754 100.181L101.21 101.757C101.24 101.774 101.265 101.799 101.282 101.829C101.3 101.859 101.309 101.893 101.309 101.928C101.309 101.962 101.3 101.996 101.282 102.026C101.265 102.056 101.24 102.081 101.21 102.098L98.3896 103.718C98.3595 103.736 98.3252 103.745 98.2903 103.745C98.2554 103.745 98.2212 103.736 98.1911 103.718L95.3711 102.098C95.3398 102.082 95.3136 102.057 95.2953 102.027C95.277 101.997 95.2673 101.963 95.2673 101.928C95.2673 101.893 95.277 101.858 95.2953 101.828C95.3136 101.798 95.3398 101.773 95.3711 101.757Z" fill="url(#paint55_linear_168_4213)"/>
<path opacity="0.399" d="M101.306 101.955C101.31 102.052 101.182 102.114 101.182 102.114C101.182 102.114 100.711 102.385 100.156 102.704C99.4628 103.103 98.6346 103.579 98.4969 103.659C98.4355 103.701 98.3627 103.724 98.2883 103.724C98.2138 103.724 98.141 103.701 98.0796 103.659L95.3314 102.07C95.3314 102.07 95.2711 102.045 95.269 101.937" stroke="white" stroke-linecap="round" stroke-linejoin="round"/>
<path d="M96.1253 101.805L98.2118 100.642C98.2341 100.629 98.2594 100.622 98.2852 100.622C98.311 100.622 98.3364 100.629 98.3587 100.642L100.445 101.805C100.467 101.818 100.486 101.836 100.499 101.858C100.512 101.88 100.519 101.905 100.519 101.931C100.519 101.957 100.512 101.982 100.499 102.004C100.486 102.026 100.467 102.045 100.445 102.057L98.3587 103.256C98.3364 103.269 98.311 103.276 98.2852 103.276C98.2594 103.276 98.2341 103.269 98.2118 103.256L96.1253 102.057C96.1022 102.045 96.0828 102.027 96.0693 102.005C96.0557 101.983 96.0486 101.957 96.0486 101.931C96.0486 101.905 96.0557 101.88 96.0693 101.857C96.0828 101.835 96.1022 101.817 96.1253 101.805Z" fill="url(#paint56_linear_168_4213)"/>
<path d="M68.3293 118.545L69.4785 117.891C69.5229 117.883 69.5683 117.883 69.6127 117.891L70.7446 118.545C70.7571 118.552 70.7675 118.562 70.7747 118.574C70.7819 118.587 70.7857 118.601 70.7857 118.615C70.7857 118.63 70.7819 118.644 70.7747 118.656C70.7675 118.668 70.7571 118.679 70.7446 118.686L69.578 119.355C69.5655 119.363 69.5514 119.367 69.5369 119.367C69.5225 119.367 69.5084 119.363 69.4959 119.355L68.3293 118.685C68.3164 118.678 68.3057 118.668 68.2982 118.656C68.2907 118.644 68.2867 118.629 68.2867 118.615C68.2867 118.6 68.2907 118.586 68.2982 118.574C68.3057 118.562 68.3164 118.551 68.3293 118.545Z" fill="url(#paint57_linear_168_4213)"/>
<path d="M68.3293 118.544L69.463 117.892C69.4862 117.88 69.5121 117.874 69.5383 117.874C69.5645 117.874 69.5904 117.88 69.6136 117.892L70.7447 118.544C70.7571 118.551 70.7675 118.562 70.7747 118.574C70.7819 118.586 70.7857 118.6 70.7857 118.615C70.7857 118.629 70.7819 118.643 70.7747 118.656C70.7675 118.668 70.7571 118.678 70.7447 118.685L69.578 119.355C69.5656 119.363 69.5514 119.367 69.537 119.367C69.5226 119.367 69.5084 119.363 69.4959 119.355L68.3293 118.685C68.3164 118.678 68.3055 118.668 68.298 118.656C68.2904 118.643 68.2864 118.629 68.2864 118.615C68.2864 118.6 68.2904 118.586 68.298 118.573C68.3055 118.561 68.3164 118.551 68.3293 118.544Z" fill="url(#paint58_linear_168_4213)"/>
<path opacity="0.399" d="M70.7838 118.626C70.7854 118.666 70.7326 118.692 70.7326 118.692C70.7326 118.692 70.5384 118.803 70.3075 118.936C70.0211 119.101 69.6787 119.298 69.6221 119.331C69.5966 119.349 69.5663 119.358 69.5354 119.358C69.5045 119.358 69.4742 119.349 69.4487 119.331L68.312 118.674C68.312 118.674 68.2873 118.664 68.2867 118.618" stroke="white" stroke-linecap="round" stroke-linejoin="round"/>
<path d="M68.6409 118.564L69.5047 118.083C69.5139 118.078 69.5244 118.075 69.5351 118.075C69.5458 118.075 69.5563 118.078 69.5655 118.083L70.4289 118.564C70.4381 118.569 70.4458 118.577 70.4512 118.586C70.4565 118.595 70.4593 118.606 70.4593 118.616C70.4593 118.627 70.4565 118.637 70.4512 118.646C70.4458 118.656 70.4381 118.663 70.4289 118.668L69.5655 119.164C69.5563 119.17 69.5458 119.173 69.5351 119.173C69.5244 119.173 69.5139 119.17 69.5047 119.164L68.6409 118.668C68.6313 118.663 68.6233 118.656 68.6177 118.647C68.6121 118.638 68.6091 118.627 68.6091 118.616C68.6091 118.606 68.6121 118.595 68.6177 118.586C68.6233 118.577 68.6313 118.569 68.6409 118.564Z" fill="url(#paint59_linear_168_4213)"/>
<path d="M97.0813 101.808L98.2306 101.155C98.275 101.147 98.3204 101.147 98.3648 101.155L99.4967 101.808C99.5092 101.815 99.5195 101.826 99.5267 101.838C99.534 101.85 99.5378 101.865 99.5378 101.879C99.5378 101.893 99.534 101.907 99.5267 101.92C99.5195 101.932 99.5092 101.942 99.4967 101.949L98.33 102.619C98.3176 102.626 98.3034 102.63 98.289 102.63C98.2746 102.63 98.2604 102.626 98.248 102.619L97.0813 101.949C97.0685 101.942 97.0578 101.932 97.0503 101.92C97.0428 101.907 97.0388 101.893 97.0388 101.879C97.0388 101.864 97.0428 101.85 97.0503 101.838C97.0578 101.825 97.0685 101.815 97.0813 101.808Z" fill="url(#paint60_linear_168_4213)"/>
<path d="M97.0814 101.808L98.215 101.156C98.2383 101.144 98.2641 101.137 98.2904 101.137C98.3166 101.137 98.3424 101.144 98.3657 101.156L99.4967 101.808C99.5092 101.815 99.5196 101.825 99.5268 101.838C99.534 101.85 99.5378 101.864 99.5378 101.878C99.5378 101.893 99.534 101.907 99.5268 101.919C99.5196 101.932 99.5092 101.942 99.4967 101.949L98.3301 102.619C98.3176 102.626 98.3035 102.63 98.289 102.63C98.2746 102.63 98.2605 102.626 98.248 102.619L97.0814 101.949C97.0684 101.942 97.0576 101.932 97.05 101.92C97.0425 101.907 97.0385 101.893 97.0385 101.878C97.0385 101.864 97.0425 101.849 97.05 101.837C97.0576 101.825 97.0684 101.815 97.0814 101.808Z" fill="url(#paint61_linear_168_4213)"/>
<path opacity="0.399" d="M99.5359 101.89C99.5375 101.93 99.4846 101.956 99.4846 101.956C99.4846 101.956 99.2905 102.067 99.0596 102.2C98.7732 102.365 98.4308 102.562 98.3741 102.595C98.3486 102.613 98.3184 102.622 98.2875 102.622C98.2565 102.622 98.2263 102.613 98.2008 102.595L97.0641 101.938C97.0641 101.938 97.0394 101.928 97.0388 101.882" stroke="white" stroke-linecap="round" stroke-linejoin="round"/>
<path d="M97.393 101.828L98.2568 101.347C98.266 101.341 98.2765 101.338 98.2872 101.338C98.2979 101.338 98.3084 101.341 98.3176 101.347L99.181 101.828C99.1902 101.833 99.1979 101.841 99.2032 101.85C99.2086 101.859 99.2114 101.869 99.2114 101.88C99.2114 101.891 99.2086 101.901 99.2032 101.91C99.1979 101.919 99.1902 101.927 99.181 101.932L98.3176 102.428C98.3084 102.434 98.2979 102.436 98.2872 102.436C98.2765 102.436 98.266 102.434 98.2568 102.428L97.393 101.932C97.3834 101.927 97.3754 101.92 97.3698 101.91C97.3642 101.901 97.3612 101.891 97.3612 101.88C97.3612 101.869 97.3642 101.859 97.3698 101.849C97.3754 101.84 97.3834 101.833 97.393 101.828Z" fill="url(#paint62_linear_168_4213)"/>
<path d="M39.4341 101.808L40.5834 101.155C40.6278 101.147 40.6732 101.147 40.7176 101.155L41.8495 101.808C41.8619 101.815 41.8723 101.826 41.8795 101.838C41.8867 101.85 41.8905 101.865 41.8905 101.879C41.8905 101.893 41.8867 101.907 41.8795 101.92C41.8723 101.932 41.8619 101.942 41.8495 101.949L40.6828 102.619C40.6704 102.626 40.6562 102.63 40.6418 102.63C40.6274 102.63 40.6132 102.626 40.6008 102.619L39.4341 101.949C39.4213 101.942 39.4106 101.932 39.4031 101.92C39.3956 101.907 39.3916 101.893 39.3916 101.879C39.3916 101.864 39.3956 101.85 39.4031 101.838C39.4106 101.825 39.4213 101.815 39.4341 101.808Z" fill="url(#paint63_linear_168_4213)"/>
<path d="M39.4342 101.808L40.5678 101.156C40.5911 101.144 40.6169 101.137 40.6432 101.137C40.6694 101.137 40.6952 101.144 40.7185 101.156L41.8495 101.808C41.862 101.815 41.8723 101.825 41.8796 101.838C41.8868 101.85 41.8906 101.864 41.8906 101.878C41.8906 101.893 41.8868 101.907 41.8796 101.919C41.8723 101.932 41.862 101.942 41.8495 101.949L40.6829 102.619C40.6704 102.626 40.6563 102.63 40.6418 102.63C40.6274 102.63 40.6132 102.626 40.6008 102.619L39.4342 101.949C39.4212 101.942 39.4104 101.932 39.4028 101.92C39.3952 101.907 39.3912 101.893 39.3912 101.878C39.3912 101.864 39.3952 101.849 39.4028 101.837C39.4104 101.825 39.4212 101.815 39.4342 101.808Z" fill="url(#paint64_linear_168_4213)"/>
<path opacity="0.399" d="M41.8886 101.89C41.8903 101.93 41.8374 101.956 41.8374 101.956C41.8374 101.956 41.6433 102.067 41.4124 102.2C41.126 102.365 40.7835 102.562 40.7269 102.595C40.7014 102.613 40.6712 102.622 40.6403 102.622C40.6093 102.622 40.5791 102.613 40.5536 102.595L39.4169 101.938C39.4169 101.938 39.3922 101.928 39.3916 101.882" stroke="white" stroke-linecap="round" stroke-linejoin="round"/>
<path d="M39.7458 101.828L40.6096 101.347C40.6188 101.341 40.6293 101.338 40.64 101.338C40.6507 101.338 40.6612 101.341 40.6704 101.347L41.5338 101.828C41.543 101.833 41.5507 101.841 41.556 101.85C41.5614 101.859 41.5642 101.869 41.5642 101.88C41.5642 101.891 41.5614 101.901 41.556 101.91C41.5507 101.919 41.543 101.927 41.5338 101.932L40.6704 102.428C40.6612 102.434 40.6507 102.436 40.64 102.436C40.6293 102.436 40.6188 102.434 40.6096 102.428L39.7458 101.932C39.7362 101.927 39.7282 101.92 39.7226 101.91C39.717 101.901 39.714 101.891 39.714 101.88C39.714 101.869 39.717 101.859 39.7226 101.849C39.7282 101.84 39.7362 101.833 39.7458 101.828Z" fill="url(#paint65_linear_168_4213)"/>
<path d="M82.3844 149.461L95.9374 141.633C96.4961 141.312 96.5799 141.233 96.5733 142.309V148.894C96.5717 149.712 96.5333 149.737 95.9374 150.088L82.2682 157.973C82.0882 158.1 81.8468 158.238 81.8272 157.675V150.384C81.8272 149.988 81.7613 149.811 82.3844 149.461Z" fill="url(#paint66_linear_168_4213)"/>
<path d="M82.2923 149.559L92.3934 143.725C92.8099 143.486 92.8722 143.427 92.8674 144.229V149.136C92.8662 149.746 92.8377 149.765 92.3934 150.027L82.2063 155.903C82.0721 155.998 81.8923 156.1 81.8776 155.68V150.247C81.8776 149.952 81.8285 149.82 82.2923 149.559Z" fill="url(#paint67_linear_168_4213)"/>
<path d="M82.3844 138.59L95.9374 130.762C96.4961 130.441 96.5799 130.362 96.5733 131.438V138.023C96.5717 138.841 96.5333 138.866 95.9374 139.217L82.2682 147.102C82.0882 147.229 81.8468 147.366 81.8272 146.804V139.513C81.8272 139.117 81.7613 138.94 82.3844 138.59Z" fill="url(#paint68_linear_168_4213)"/>
<path d="M82.2923 138.687L92.3934 132.853C92.8099 132.614 92.8722 132.556 92.8674 133.358V138.265C92.8662 138.875 92.8377 138.894 92.3934 139.155L82.2063 145.031C82.0721 145.126 81.8923 145.228 81.8776 144.809V139.376C81.8776 139.08 81.8285 138.948 82.2923 138.687Z" fill="url(#paint69_linear_168_4213)"/>
<path d="M82.1529 138.691L88.8835 134.803C89.161 134.644 89.2024 134.605 89.1992 135.139V138.409C89.1984 138.815 89.1793 138.827 88.8835 139.001L82.0953 142.917C82.0059 142.98 81.8867 143.048 81.8764 142.769V139.149C81.8769 138.952 81.8442 138.864 82.1529 138.691Z" fill="url(#paint70_linear_168_4213)"/>
<path d="M82.1529 149.562L88.8835 145.675C89.161 145.516 89.2024 145.477 89.1992 146.011V149.28C89.1984 149.686 89.1793 149.699 88.8835 149.873L82.0953 153.789C82.0059 153.852 81.8867 153.92 81.8764 153.641V150.021C81.8769 149.824 81.8442 149.736 82.1529 149.562Z" fill="url(#paint71_linear_168_4213)"/>
<path d="M82.4334 138.619L95.9398 130.818C96.4962 130.498 96.5796 130.42 96.5737 131.492V138.054C96.572 138.869 96.5337 138.895 95.9398 139.244L82.3177 147.103C82.1383 147.229 81.8979 147.366 81.8783 146.806V139.54C81.8781 139.145 81.8125 138.968 82.4334 138.619Z" stroke="#312FB7"/>
<path d="M82.4334 144.198L95.9398 136.397C96.4962 136.077 96.5796 135.998 96.5737 137.071V143.633C96.572 144.448 96.5337 144.474 95.9398 144.823L82.3177 152.682C82.1383 152.808 81.8979 152.945 81.8783 152.384V145.118C81.8781 144.723 81.8125 144.547 82.4334 144.198Z" stroke="#2F3E4F"/>
<path d="M82.4334 141.051L95.9398 133.25C96.4962 132.93 96.5796 132.852 96.5737 133.924V140.486C96.572 141.301 96.5337 141.327 95.9398 141.676L82.3177 149.535C82.1383 149.661 81.8979 149.798 81.8783 149.238V141.971C81.8781 141.576 81.8125 141.4 82.4334 141.051Z" stroke="#2F3E4F"/>
<path d="M82.4334 147.059L95.9398 139.258C96.4962 138.938 96.5796 138.859 96.5737 139.932V146.493C96.572 147.309 96.5337 147.334 95.9398 147.683L82.3177 155.543C82.1383 155.669 81.8979 155.806 81.8783 155.245V147.979C81.8781 147.584 81.8125 147.408 82.4334 147.059Z" stroke="#2F3E4F"/>
<path d="M82.4334 149.49L95.9398 141.689C96.4962 141.369 96.5796 141.291 96.5737 142.363V148.925C96.572 149.741 96.5337 149.766 95.9398 150.115L82.3177 157.974C82.1383 158.101 81.8979 158.237 81.8783 157.677V150.411C81.8781 150.016 81.8125 149.839 82.4334 149.49Z" stroke="#21828F" stroke-width="2"/>
<path d="M82.4334 138.619L95.9398 130.818C96.4962 130.498 96.5796 130.42 96.5737 131.492V138.054C96.572 138.869 96.5337 138.895 95.9398 139.244L82.3177 147.103C82.1383 147.229 81.8979 147.366 81.8783 146.806V139.54C81.8781 139.145 81.8125 138.968 82.4334 138.619Z" stroke="#21828F" stroke-width="2"/>
<path opacity="0.69" d="M33.2099 153.859C33.1014 153.906 33.001 153.97 32.9125 154.048C32.892 154.051 32.873 154.06 32.8584 154.075L19.8807 146.559C19.7155 146.462 19.5785 146.324 19.4836 146.158C19.3887 145.992 19.3392 145.804 19.34 145.612C19.3458 145.423 19.3982 145.237 19.4925 145.072C19.5867 144.907 19.72 144.768 19.8807 144.667L22.7201 143.044C22.8619 143.126 23.0175 143.181 23.1792 143.206L20.07 145.018C19.9652 145.078 19.8779 145.165 19.8163 145.269C19.7548 145.373 19.7211 145.491 19.7185 145.612C19.7207 145.737 19.754 145.859 19.8154 145.968C19.8768 146.076 19.9643 146.168 20.07 146.234L33.2099 153.859Z" fill="#39FFEE"/>
<path opacity="0.69" d="M35.9137 154.508C35.9137 154.995 35.1837 155.373 34.2915 155.373C33.3993 155.373 32.6693 154.994 32.6693 154.508C32.6713 154.428 32.6919 154.35 32.7294 154.279C32.767 154.209 32.8204 154.148 32.8856 154.102L32.9397 154.048C33.0349 153.978 33.1342 153.915 33.2371 153.858C33.2641 153.858 33.2912 153.831 33.3182 153.831C33.637 153.707 33.9763 153.643 34.3186 153.643C35.1837 153.643 35.9137 154.021 35.9137 154.508Z" fill="#39FFEE"/>
<path opacity="0.69" d="M25.5315 142.449C25.5315 142.936 24.8015 143.314 23.8822 143.314C23.6455 143.316 23.4094 143.289 23.1792 143.233C23.017 143.179 22.8548 143.125 22.7201 143.071C22.4227 142.909 22.2611 142.693 22.2611 142.476C22.2611 141.99 22.9911 141.611 23.8833 141.611C24.8015 141.584 25.5315 141.99 25.5315 142.449Z" fill="#39FFEE"/>
<path opacity="0.643" d="M22.3141 138.961V142.26C22.3141 143.167 23.9093 143.206 23.9093 143.206C23.9093 143.206 25.5045 143.247 25.5045 142.26V137.826" fill="url(#paint72_linear_168_4213)"/>
<path opacity="0.643" d="M32.6693 151.047V154.345C32.6693 155.314 34.2915 155.265 34.2915 155.265C34.2915 155.265 35.8867 155.296 35.8867 154.345V149.911" fill="url(#paint73_linear_168_4213)"/>
<g opacity="0.266">
<path opacity="0.69" d="M33.2099 149.964C33.1014 150.011 33.001 150.075 32.9125 150.154C32.892 150.156 32.873 150.166 32.8584 150.181L19.8807 142.664C19.7155 142.568 19.5785 142.43 19.4836 142.263C19.3887 142.097 19.3392 141.909 19.34 141.718C19.3458 141.528 19.3982 141.343 19.4925 141.178C19.5867 141.013 19.72 140.873 19.8807 140.772L22.7201 139.149C22.8619 139.231 23.0175 139.286 23.1792 139.312L20.07 141.123C19.9652 141.184 19.8779 141.27 19.8163 141.374C19.7548 141.479 19.7211 141.597 19.7185 141.718C19.7207 141.843 19.754 141.965 19.8154 142.073C19.8768 142.182 19.9643 142.274 20.07 142.34L33.2099 149.964Z" fill="#39FFEE"/>
<path opacity="0.69" d="M35.9137 150.613C35.9137 151.1 35.1837 151.478 34.2915 151.478C33.3993 151.478 32.6693 151.099 32.6693 150.613C32.6713 150.533 32.6919 150.455 32.7294 150.384C32.767 150.314 32.8204 150.253 32.8856 150.207L32.9397 150.152C33.0349 150.083 33.1342 150.02 33.2371 149.963C33.2641 149.963 33.2912 149.936 33.3182 149.936C33.637 149.812 33.9763 149.748 34.3186 149.748C35.1837 149.748 35.9137 150.126 35.9137 150.613Z" fill="#39FFEE"/>
<path opacity="0.69" d="M25.5315 138.554C25.5315 139.041 24.8015 139.419 23.8822 139.419C23.6455 139.421 23.4094 139.394 23.1792 139.338C23.017 139.284 22.8548 139.23 22.7201 139.176C22.4227 139.014 22.2611 138.798 22.2611 138.581C22.2611 138.094 22.9911 137.716 23.8833 137.716C24.8015 137.689 25.5315 138.095 25.5315 138.554Z" fill="#39FFEE"/>
<path opacity="0.643" d="M22.3141 135.067V138.365C22.3141 139.272 23.9093 139.311 23.9093 139.311C23.9093 139.311 25.5045 139.353 25.5045 138.365V133.931" fill="url(#paint74_linear_168_4213)"/>
<path opacity="0.643" d="M32.6693 147.291V150.59C32.6693 151.559 34.2915 151.509 34.2915 151.509C34.2915 151.509 35.8867 151.541 35.8867 150.59V146.156" fill="url(#paint75_linear_168_4213)"/>
</g>
<path opacity="0.69" d="M78.6552 169.808C78.6552 169.808 78.3972 170.076 79.2006 170.128C79.2298 170.128 106.954 153.987 120.963 146.47C121.314 146.281 121.548 146.018 121.548 145.612C121.538 145.418 121.48 145.229 121.378 145.063C121.276 144.898 121.133 144.761 120.963 144.666L117.899 143.044C117.744 143.126 117.576 143.181 117.403 143.206L120.759 145.018C120.87 145.074 120.963 145.159 121.03 145.264C121.096 145.368 121.134 145.489 121.139 145.612C121.139 145.856 120.993 145.983 120.759 146.118L78.6552 169.808Z" fill="#39FFEE"/>
<path opacity="0.69" d="M103.656 154.786C103.656 155.273 104.444 155.651 105.407 155.651C106.37 155.651 107.158 155.273 107.158 154.786C107.155 154.705 107.132 154.625 107.092 154.554C107.051 154.483 106.994 154.424 106.925 154.38L106.867 154.326C106.763 154.256 106.656 154.193 106.546 154.137C106.516 154.137 106.487 154.11 106.458 154.11C106.112 153.984 105.746 153.921 105.378 153.921C104.444 153.921 103.656 154.299 103.656 154.786Z" fill="#39FFEE"/>
<path opacity="0.69" d="M114.864 142.449C114.864 142.936 115.652 143.314 116.644 143.314C116.899 143.316 117.154 143.289 117.403 143.233C117.578 143.179 117.753 143.125 117.899 143.071C118.22 142.909 118.395 142.693 118.395 142.476C118.395 141.99 117.607 141.611 116.644 141.611C115.652 141.584 114.864 141.99 114.864 142.449Z" fill="#39FFEE"/>
<path opacity="0.69" d="M76.1141 170.644C76.1141 171.13 76.9021 171.509 77.8653 171.509C78.8284 171.509 79.6164 171.13 79.6164 170.644C79.6133 170.562 79.5905 170.482 79.5498 170.412C79.5091 170.341 79.4519 170.281 79.383 170.237L79.3246 170.183C79.2215 170.114 79.1142 170.051 79.0036 169.994C78.9743 169.994 78.9451 169.967 78.9161 169.967C78.5697 169.842 78.2043 169.778 77.8361 169.778C76.9021 169.778 76.1141 170.157 76.1141 170.644Z" fill="#39FFEE"/>
<path opacity="0.231" d="M76.1141 166.053C76.1141 166.54 76.9021 166.918 77.8653 166.918C78.8284 166.918 79.6164 166.54 79.6164 166.053C79.6133 165.972 79.5905 165.892 79.5498 165.821C79.5091 165.751 79.4519 165.691 79.383 165.647L79.3246 165.593C79.2215 165.523 79.1142 165.46 79.0036 165.404C78.9743 165.404 78.9451 165.377 78.9161 165.377C78.5697 165.252 78.2043 165.188 77.8361 165.188C76.9021 165.188 76.1141 165.566 76.1141 166.053Z" fill="#39FFEE"/>
<path opacity="0.643" d="M118.336 138.961V142.26C118.336 143.167 116.615 143.206 116.615 143.206C116.615 143.206 114.893 143.248 114.893 142.26V137.826" fill="url(#paint76_linear_168_4213)"/>
<path opacity="0.643" d="M107.158 151.464V154.763C107.158 155.732 105.407 155.682 105.407 155.682C105.407 155.682 103.685 155.714 103.685 154.763V150.329" fill="url(#paint77_linear_168_4213)"/>
<g opacity="0.266">
<path opacity="0.69" d="M78.7722 165.319C78.8112 165.448 79.0307 165.499 79.3471 165.636C79.6636 165.773 120.963 142.664 120.963 142.664C121.137 142.575 121.284 142.439 121.387 142.272C121.49 142.106 121.545 141.914 121.548 141.718C121.538 141.524 121.48 141.335 121.378 141.17C121.276 141.004 121.133 140.868 120.963 140.772L117.899 139.149C117.744 139.232 117.576 139.287 117.403 139.312L120.759 141.123C120.87 141.18 120.963 141.264 121.03 141.369C121.096 141.474 121.134 141.594 121.139 141.718C121.134 141.846 121.097 141.97 121.031 142.079C120.964 142.188 120.871 142.278 120.759 142.34L78.7722 165.319Z" fill="#39FFEE"/>
<path opacity="0.69" d="M103.656 151.169C103.656 151.656 104.444 152.035 105.407 152.035C106.371 152.035 107.159 151.656 107.159 151.169C107.155 151.088 107.133 151.008 107.092 150.938C107.051 150.867 106.994 150.807 106.925 150.763L106.867 150.709C106.764 150.64 106.656 150.576 106.546 150.52C106.516 150.52 106.487 150.493 106.458 150.493C106.112 150.368 105.746 150.304 105.378 150.304C104.444 150.304 103.656 150.683 103.656 151.169Z" fill="#39FFEE"/>
<path opacity="0.69" d="M114.864 138.554C114.864 139.041 115.652 139.419 116.644 139.419C116.899 139.421 117.154 139.394 117.403 139.338C117.578 139.284 117.753 139.23 117.899 139.176C118.22 139.014 118.395 138.798 118.395 138.581C118.395 138.094 117.607 137.716 116.644 137.716C115.652 137.689 114.864 138.095 114.864 138.554Z" fill="#39FFEE"/>
<path opacity="0.643" d="M118.336 135.067V138.365C118.336 139.272 116.615 139.311 116.615 139.311C116.615 139.311 114.893 139.354 114.893 138.365V133.931" fill="url(#paint78_linear_168_4213)"/>
<path opacity="0.643" d="M107.158 147.708V151.007C107.158 151.976 105.407 151.926 105.407 151.926C105.407 151.926 103.685 151.958 103.685 151.007V146.573" fill="url(#paint79_linear_168_4213)"/>
</g>
<path opacity="0.643" d="M79.6164 167.322V170.62C79.6164 171.589 77.8652 171.539 77.8652 171.539C77.8652 171.539 76.1433 171.571 76.1433 170.62V166.186" fill="url(#paint80_linear_168_4213)"/>
<path opacity="0.209" d="M79.6164 162.731V166.03C79.6164 166.999 77.8652 166.949 77.8652 166.949C77.8652 166.949 76.1433 166.981 76.1433 166.03V161.596" fill="url(#paint81_linear_168_4213)"/>
<path opacity="0.69" d="M33.2099 149.964C33.1014 150.011 33.001 150.075 32.9125 150.153C32.892 150.156 32.873 150.165 32.8584 150.18L26.3697 146.422L19.8807 142.664C19.7155 142.567 19.5785 142.429 19.4836 142.263C19.3887 142.097 19.3392 141.909 19.34 141.717C19.3458 141.528 19.3982 141.342 19.4925 141.177C19.5867 141.012 19.72 140.873 19.8807 140.772L22.7201 139.149C22.8619 139.231 23.0175 139.286 23.1792 139.311L20.07 141.123C19.9652 141.183 19.8779 141.27 19.8163 141.374C19.7548 141.478 19.7211 141.596 19.7185 141.717C19.7207 141.842 19.754 141.964 19.8154 142.073C19.8768 142.181 19.9643 142.273 20.07 142.339L33.2099 149.964Z" fill="#39FFEE"/>
<path opacity="0.69" d="M52.0495 164.523C52.0495 165.01 51.3195 165.388 50.4273 165.388C49.5351 165.388 48.8051 165.01 48.8051 164.523C48.807 164.443 48.8276 164.365 48.8652 164.294C48.9027 164.224 48.9562 164.163 49.0214 164.117L49.0755 164.063C49.1706 163.993 49.2699 163.93 49.3729 163.873C49.3999 163.873 49.427 163.846 49.454 163.846C49.7728 163.722 50.1121 163.658 50.4544 163.658C51.3195 163.658 52.0495 164.036 52.0495 164.523Z" fill="#39FFEE"/>
<path opacity="0.69" d="M51.7429 164.91C51.7608 165.063 51.6474 164.907 51.6188 165.047C51.6373 165.077 51.4368 165.159 51.4368 165.159L59.6149 169.765L68.2028 174.66C68.7909 174.999 69.4057 175.357 70.6139 174.659C71.0044 174.415 72.4255 173.714 72.4255 173.714L77.0119 171.436C76.8687 171.359 76.4956 171.214 76.4956 171.214L70.7096 174.104C70.0532 174.446 69.8816 174.588 69.2818 174.575C68.6821 174.562 68.0988 174.11 67.6957 173.874L51.7429 164.91Z" fill="#39FFEE"/>
<path opacity="0.643" d="M48.8051 161.062V164.361C48.8051 165.33 50.4273 165.28 50.4273 165.28C50.4273 165.28 52.0225 165.312 52.0225 164.361V159.927" fill="url(#paint82_linear_168_4213)"/>
<path opacity="0.239" d="M52.0121 160.484C52.0301 160.637 51.9823 160.519 51.9539 160.659C51.9724 160.689 51.7703 160.832 51.7703 160.832L68.2026 169.93C68.7907 170.27 69.4055 170.627 70.6137 169.93C71.0043 169.686 72.4253 168.985 72.4253 168.985L77.0117 166.707C76.8685 166.63 76.4954 166.485 76.4954 166.485L70.7094 169.374C70.0531 169.717 69.8814 169.859 69.2817 169.846C68.6819 169.832 68.0986 169.381 67.6955 169.145L52.0121 160.484Z" fill="#39FFEE"/>
<path opacity="0.146" d="M52.0495 160.35C52.0495 160.836 51.3195 161.215 50.4273 161.215C49.5351 161.215 48.8051 160.836 48.8051 160.35C48.807 160.27 48.8276 160.191 48.8652 160.121C48.9027 160.05 48.9562 159.99 49.0214 159.943L49.0755 159.889C49.1706 159.82 49.2699 159.757 49.3729 159.7C49.3999 159.7 49.427 159.673 49.454 159.673C49.7728 159.548 50.1121 159.484 50.4544 159.484C51.3195 159.484 52.0495 159.863 52.0495 160.35Z" fill="#39FFEE"/>
<path opacity="0.172" d="M48.8051 157.028V160.327C48.8051 161.296 50.4273 161.246 50.4273 161.246C50.4273 161.246 52.0225 161.278 52.0225 160.327V155.893" fill="url(#paint83_linear_168_4213)"/>
<g filter="url(#filter4_f_168_4213)">
<path d="M91.1742 83.113C99.7853 83.113 106.766 77.6053 106.766 70.8111C106.766 64.017 99.7853 58.5093 91.1742 58.5093C82.563 58.5093 75.5823 64.017 75.5823 70.8111C75.5823 77.6053 82.563 83.113 91.1742 83.113Z" fill="#26DFCD" fill-opacity="0.6"/>
</g>
<defs>
<filter id="filter0_d_168_4213" x="50.2495" y="86.3916" width="38.6484" height="29.9214" filterUnits="userSpaceOnUse" color-interpolation-filters="sRGB">
<feFlood flood-opacity="0" result="BackgroundImageFix"/>
<feColorMatrix in="SourceAlpha" type="matrix" values="0 0 0 0 0 0 0 0 0 0 0 0 0 0 0 0 0 0 127 0" result="hardAlpha"/>
<feOffset dy="-1"/>
<feColorMatrix type="matrix" values="0 0 0 0 0 0 0 0 0 0 0 0 0 0 0 0 0 0 0.957 0"/>
<feBlend mode="normal" in2="BackgroundImageFix" result="effect1_dropShadow_168_4213"/>
<feBlend mode="normal" in="SourceGraphic" in2="effect1_dropShadow_168_4213" result="shape"/>
</filter>
<filter id="filter1_d_168_4213" x="57.2688" y="91.9795" width="24.8976" height="17.8872" filterUnits="userSpaceOnUse" color-interpolation-filters="sRGB">
<feFlood flood-opacity="0" result="BackgroundImageFix"/>
<feColorMatrix in="SourceAlpha" type="matrix" values="0 0 0 0 0 0 0 0 0 0 0 0 0 0 0 0 0 0 127 0" result="hardAlpha"/>
<feOffset dy="-1"/>
<feColorMatrix type="matrix" values="0 0 0 0 0 0 0 0 0 0 0 0 0 0 0 0 0 0 0.957 0"/>
<feBlend mode="normal" in2="BackgroundImageFix" result="effect1_dropShadow_168_4213"/>
<feBlend mode="normal" in="SourceGraphic" in2="effect1_dropShadow_168_4213" result="shape"/>
</filter>
<filter id="filter2_d_168_4213" x="33.4976" y="80.2095" width="72.1162" height="46.1973" filterUnits="userSpaceOnUse" color-interpolation-filters="sRGB">
<feFlood flood-opacity="0" result="BackgroundImageFix"/>
<feColorMatrix in="SourceAlpha" type="matrix" values="0 0 0 0 0 0 0 0 0 0 0 0 0 0 0 0 0 0 127 0" result="hardAlpha"/>
<feOffset dy="2"/>
<feColorMatrix type="matrix" values="0 0 0 0 0 0 0 0 0 0 0 0 0 0 0 0 0 0 0.749 0"/>
<feBlend mode="normal" in2="BackgroundImageFix" result="effect1_dropShadow_168_4213"/>
<feBlend mode="normal" in="SourceGraphic" in2="effect1_dropShadow_168_4213" result="shape"/>
</filter>
<filter id="filter3_d_168_4213" x="34.9977" y="81.2798" width="69.0784" height="48.7021" filterUnits="userSpaceOnUse" color-interpolation-filters="sRGB">
<feFlood flood-opacity="0" result="BackgroundImageFix"/>
<feColorMatrix in="SourceAlpha" type="matrix" values="0 0 0 0 0 0 0 0 0 0 0 0 0 0 0 0 0 0 127 0" result="hardAlpha"/>
<feOffset dy="2"/>
<feColorMatrix type="matrix" values="0 0 0 0 0 0 0 0 0 0 0 0 0 0 0 0 0 0 0.749 0"/>
<feBlend mode="normal" in2="BackgroundImageFix" result="effect1_dropShadow_168_4213"/>
<feBlend mode="normal" in="SourceGraphic" in2="effect1_dropShadow_168_4213" result="shape"/>
</filter>
<filter id="filter4_f_168_4213" x="17.5823" y="0.509277" width="147.184" height="140.604" filterUnits="userSpaceOnUse" color-interpolation-filters="sRGB">
<feFlood flood-opacity="0" result="BackgroundImageFix"/>
<feBlend mode="normal" in="SourceGraphic" in2="BackgroundImageFix" result="shape"/>
<feGaussianBlur stdDeviation="29" result="effect1_foregroundBlur_168_4213"/>
</filter>
<radialGradient id="paint0_radial_168_4213" cx="0" cy="0" r="1" gradientUnits="userSpaceOnUse" gradientTransform="translate(7.45614 70.7482) rotate(-87.2437) scale(172.037 69.9742)">
<stop stop-color="#00F2CD"/>
<stop offset="0.274" stop-color="#37364E"/>
<stop offset="0.946" stop-color="#262536"/>
<stop offset="1" stop-color="#222222"/>
</radialGradient>
<linearGradient id="paint1_linear_168_4213" x1="68.461" y1="240.405" x2="68.8524" y2="81.9949" gradientUnits="userSpaceOnUse">
<stop stop-color="#BDA0FF"/>
<stop offset="0.244" stop-color="#37364E"/>
<stop offset="0.731" stop-color="#262536"/>
<stop offset="1" stop-color="#222222"/>
</linearGradient>
<radialGradient id="paint2_radial_168_4213" cx="0" cy="0" r="1" gradientUnits="userSpaceOnUse" gradientTransform="translate(-64.6418 101.517) rotate(170.929) scale(86.7829 96.9725)">
<stop stop-color="#00F2CD"/>
<stop offset="0.274" stop-color="#37364E"/>
<stop offset="0.946" stop-color="#262536"/>
<stop offset="1" stop-color="#222222"/>
</radialGradient>
<linearGradient id="paint3_linear_168_4213" x1="110.357" y1="59.9023" x2="110.357" y2="141.037" gradientUnits="userSpaceOnUse">
<stop stop-color="#0BB5E3"/>
<stop offset="1" stop-color="#2AF698"/>
</linearGradient>
<linearGradient id="paint4_linear_168_4213" x1="113.377" y1="58.5" x2="113.377" y2="139.635" gradientUnits="userSpaceOnUse">
<stop stop-color="#0BB5E3"/>
<stop offset="1" stop-color="#2AF698"/>
</linearGradient>
<linearGradient id="paint5_linear_168_4213" x1="69.6577" y1="85.5677" x2="69.6577" y2="169.757" gradientUnits="userSpaceOnUse">
<stop stop-color="#BDA0FF"/>
<stop offset="0.244" stop-color="#37364E"/>
<stop offset="0.731" stop-color="#262536"/>
<stop offset="1" stop-color="#222222"/>
</linearGradient>
<linearGradient id="paint6_linear_168_4213" x1="70.5116" y1="192.632" x2="70.5116" y2="118.723" gradientUnits="userSpaceOnUse">
<stop stop-color="#BDA0FF"/>
<stop offset="0.244" stop-color="#37364E"/>
<stop offset="0.731" stop-color="#262536"/>
<stop offset="1" stop-color="#222222"/>
</linearGradient>
<linearGradient id="paint7_linear_168_4213" x1="70.5116" y1="170.317" x2="70.5116" y2="96.408" gradientUnits="userSpaceOnUse">
<stop stop-color="#BDA0FF"/>
<stop offset="0.244" stop-color="#37364E"/>
<stop offset="0.731" stop-color="#262536"/>
<stop offset="1" stop-color="#222222"/>
</linearGradient>
<linearGradient id="paint8_linear_168_4213" x1="72.6362" y1="154.983" x2="73.3565" y2="80.6825" gradientUnits="userSpaceOnUse">
<stop stop-color="#0BB5E3"/>
<stop offset="1" stop-color="#2AF698"/>
</linearGradient>
<linearGradient id="paint9_linear_168_4213" x1="72.7748" y1="174.074" x2="73.3839" y2="81.4348" gradientUnits="userSpaceOnUse">
<stop stop-color="#BDA0FF"/>
<stop offset="0.244" stop-color="#37364E"/>
<stop offset="0.731" stop-color="#262536"/>
<stop offset="1" stop-color="#222222"/>
</linearGradient>
<linearGradient id="paint10_linear_168_4213" x1="70.5115" y1="150.371" x2="70.5115" y2="76.5296" gradientUnits="userSpaceOnUse">
<stop stop-color="#BDA0FF"/>
<stop offset="0.244" stop-color="#37364E"/>
<stop offset="0.731" stop-color="#262536"/>
<stop offset="1" stop-color="#222222"/>
</linearGradient>
<linearGradient id="paint11_linear_168_4213" x1="155.099" y1="138.849" x2="-70.2709" y2="138.408" gradientUnits="userSpaceOnUse">
<stop stop-color="#BDA0FF"/>
<stop offset="0.244" stop-color="#37364E"/>
<stop offset="0.397" stop-color="#262536"/>
<stop offset="1" stop-color="#222222"/>
</linearGradient>
<linearGradient id="paint12_linear_168_4213" x1="127.349" y1="138.031" x2="24.0829" y2="143.2" gradientUnits="userSpaceOnUse">
<stop stop-color="#6AFFD8"/>
<stop offset="0.263" stop-color="#37364E"/>
<stop offset="0.559" stop-color="#262536"/>
<stop offset="1" stop-color="#222222"/>
</linearGradient>
<linearGradient id="paint13_linear_168_4213" x1="127.625" y1="111.445" x2="33.0325" y2="112.95" gradientUnits="userSpaceOnUse">
<stop stop-color="#6AFFD8"/>
<stop offset="0.289" stop-color="#37364E"/>
<stop offset="0.654" stop-color="#262536"/>
<stop offset="1" stop-color="#222222"/>
</linearGradient>
<linearGradient id="paint14_linear_168_4213" x1="141.07" y1="88.9058" x2="111.574" y2="139.167" gradientUnits="userSpaceOnUse">
<stop stop-color="#BDA0FF" stop-opacity="0"/>
<stop offset="0.384" stop-color="#1A12ED"/>
<stop offset="0.837" stop-color="#1B1786" stop-opacity="0"/>
<stop offset="1"/>
</linearGradient>
<linearGradient id="paint15_linear_168_4213" x1="80.0772" y1="53.9157" x2="102.385" y2="104.668" gradientUnits="userSpaceOnUse">
<stop stop-color="#BDA0FF"/>
<stop offset="0.286" stop-color="#1A12ED"/>
<stop offset="0.837" stop-color="#1B1786" stop-opacity="0"/>
<stop offset="1"/>
</linearGradient>
<linearGradient id="paint16_linear_168_4213" x1="69.536" y1="87.8066" x2="69.536" y2="83.6005" gradientUnits="userSpaceOnUse">
<stop stop-color="#0BB5E3" stop-opacity="0.282"/>
<stop offset="1" stop-color="#2AF698"/>
</linearGradient>
<linearGradient id="paint17_linear_168_4213" x1="69.536" y1="83.6077" x2="69.536" y2="87.5812" gradientUnits="userSpaceOnUse">
<stop stop-color="#0BB5E3"/>
<stop offset="1" stop-color="#00FFC4"/>
</linearGradient>
<linearGradient id="paint18_linear_168_4213" x1="69.5315" y1="86.9555" x2="69.5315" y2="84.182" gradientUnits="userSpaceOnUse">
<stop stop-color="#007FFF"/>
<stop offset="1" stop-color="#2AF698"/>
</linearGradient>
<linearGradient id="paint19_linear_168_4213" x1="69.5362" y1="86.5594" x2="69.5362" y2="84.819" gradientUnits="userSpaceOnUse">
<stop stop-color="#0BB5E3" stop-opacity="0.282"/>
<stop offset="1" stop-color="#2AF698"/>
</linearGradient>
<linearGradient id="paint20_linear_168_4213" x1="69.536" y1="84.8223" x2="69.536" y2="86.4662" gradientUnits="userSpaceOnUse">
<stop stop-color="#0BB5E3"/>
<stop offset="1" stop-color="#00FFC4"/>
</linearGradient>
<linearGradient id="paint21_linear_168_4213" x1="69.5342" y1="86.2076" x2="69.5342" y2="85.0601" gradientUnits="userSpaceOnUse">
<stop stop-color="#007FFF"/>
<stop offset="1" stop-color="#2AF698"/>
</linearGradient>
<linearGradient id="paint22_linear_168_4213" x1="69.5744" y1="96.9883" x2="69.5744" y2="104.713" gradientUnits="userSpaceOnUse">
<stop stop-color="#0BB5E3"/>
<stop offset="1" stop-color="#2AF698"/>
</linearGradient>
<linearGradient id="paint23_linear_168_4213" x1="69.7678" y1="77.9805" x2="52.9409" y2="97.2307" gradientUnits="userSpaceOnUse">
<stop stop-color="#0BB5E3" stop-opacity="0"/>
<stop offset="0.438" stop-color="#34BCBC" stop-opacity="0.4"/>
<stop offset="0.729" stop-color="#28DBF2" stop-opacity="0.376"/>
<stop offset="1" stop-color="#2AE6F6" stop-opacity="0.404"/>
</linearGradient>
<linearGradient id="paint24_linear_168_4213" x1="38.8684" y1="149.49" x2="34.3509" y2="171.721" gradientUnits="userSpaceOnUse">
<stop stop-color="#0BB5E3"/>
<stop offset="0.298" stop-color="#23E8A8"/>
<stop offset="1" stop-color="#2AF698" stop-opacity="0"/>
</linearGradient>
<linearGradient id="paint25_linear_168_4213" x1="50.9332" y1="149.718" x2="50.9332" y2="156.648" gradientUnits="userSpaceOnUse">
<stop stop-color="#24D8B5"/>
<stop offset="1" stop-color="#43BEFF"/>
</linearGradient>
<linearGradient id="paint26_linear_168_4213" x1="50.9332" y1="145.426" x2="50.9332" y2="152.356" gradientUnits="userSpaceOnUse">
<stop stop-color="#24D8B5"/>
<stop offset="1" stop-color="#43BEFF"/>
</linearGradient>
<linearGradient id="paint27_linear_168_4213" x1="50.9332" y1="140.992" x2="50.9332" y2="147.922" gradientUnits="userSpaceOnUse">
<stop stop-color="#24D8B5"/>
<stop offset="1" stop-color="#43BEFF"/>
</linearGradient>
<linearGradient id="paint28_linear_168_4213" x1="50.9332" y1="136.558" x2="50.9332" y2="143.488" gradientUnits="userSpaceOnUse">
<stop stop-color="#24D8B5"/>
<stop offset="1" stop-color="#43BEFF"/>
</linearGradient>
<linearGradient id="paint29_linear_168_4213" x1="38.8684" y1="149.49" x2="34.3509" y2="171.721" gradientUnits="userSpaceOnUse">
<stop stop-color="#0BB5E3"/>
<stop offset="0.298" stop-color="#23E8A8"/>
<stop offset="1" stop-color="#2AF698" stop-opacity="0"/>
</linearGradient>
<linearGradient id="paint30_linear_168_4213" x1="32.2494" y1="92.3803" x2="52.4522" y2="143.353" gradientUnits="userSpaceOnUse">
<stop stop-color="#BDA0FF"/>
<stop offset="0.331" stop-color="#37364E"/>
<stop offset="0.451" stop-color="#3F3C59"/>
<stop offset="1" stop-color="#222222"/>
</linearGradient>
<linearGradient id="paint31_linear_168_4213" x1="58.1222" y1="102.741" x2="53.3963" y2="102.925" gradientUnits="userSpaceOnUse">
<stop stop-color="#BDA0FF"/>
<stop offset="0.244" stop-color="#37364E"/>
<stop offset="0.355" stop-color="#262536"/>
<stop offset="1" stop-color="#222222"/>
</linearGradient>
<linearGradient id="paint32_linear_168_4213" x1="76.8018" y1="106.947" x2="58.4506" y2="118.207" gradientUnits="userSpaceOnUse">
<stop stop-color="#BDA0FF"/>
<stop offset="0.244" stop-color="#37364E"/>
<stop offset="0.355" stop-color="#262536"/>
<stop offset="1" stop-color="#222222"/>
</linearGradient>
<linearGradient id="paint33_linear_168_4213" x1="46.5266" y1="104.445" x2="64.1557" y2="127.545" gradientUnits="userSpaceOnUse">
<stop stop-color="#BDA0FF"/>
<stop offset="0.151" stop-color="#37364E"/>
<stop offset="0.731" stop-color="#262536"/>
<stop offset="1" stop-color="#222222"/>
</linearGradient>
<linearGradient id="paint34_linear_168_4213" x1="85.5792" y1="104.445" x2="103.208" y2="127.546" gradientUnits="userSpaceOnUse">
<stop stop-color="#BDA0FF"/>
<stop offset="0.151" stop-color="#37364E"/>
<stop offset="0.731" stop-color="#262536"/>
<stop offset="1" stop-color="#222222"/>
</linearGradient>
<linearGradient id="paint35_linear_168_4213" x1="65.9337" y1="92.3803" x2="86.1365" y2="143.353" gradientUnits="userSpaceOnUse">
<stop stop-color="#BDA0FF"/>
<stop offset="0.331" stop-color="#37364E"/>
<stop offset="0.451" stop-color="#3F3C59"/>
<stop offset="1" stop-color="#222222"/>
</linearGradient>
<linearGradient id="paint36_linear_168_4213" x1="88.8804" y1="102.741" x2="84.1545" y2="102.925" gradientUnits="userSpaceOnUse">
<stop stop-color="#BDA0FF"/>
<stop offset="0.244" stop-color="#37364E"/>
<stop offset="0.355" stop-color="#262536"/>
<stop offset="1" stop-color="#222222"/>
</linearGradient>
<linearGradient id="paint37_linear_168_4213" x1="103.198" y1="106.947" x2="84.8463" y2="118.207" gradientUnits="userSpaceOnUse">
<stop stop-color="#BDA0FF"/>
<stop offset="0.244" stop-color="#37364E"/>
<stop offset="0.355" stop-color="#262536"/>
<stop offset="1" stop-color="#222222"/>
</linearGradient>
<linearGradient id="paint38_linear_168_4213" x1="65.1498" y1="73.6416" x2="85.3526" y2="124.614" gradientUnits="userSpaceOnUse">
<stop stop-color="#BDA0FF"/>
<stop offset="0.331" stop-color="#37364E"/>
<stop offset="0.451" stop-color="#3F3C59"/>
<stop offset="1" stop-color="#222222"/>
</linearGradient>
<linearGradient id="paint39_linear_168_4213" x1="110.753" y1="86.1488" x2="87.0689" y2="102.042" gradientUnits="userSpaceOnUse">
<stop stop-color="#BDA0FF"/>
<stop offset="0.244" stop-color="#37364E"/>
<stop offset="0.355" stop-color="#262536"/>
<stop offset="1" stop-color="#222222"/>
</linearGradient>
<linearGradient id="paint40_linear_168_4213" x1="109.451" y1="88.2812" x2="91.4305" y2="99.417" gradientUnits="userSpaceOnUse">
<stop stop-color="#BDA0FF"/>
<stop offset="0.244" stop-color="#37364E"/>
<stop offset="0.355" stop-color="#262536"/>
<stop offset="1" stop-color="#222222"/>
</linearGradient>
<linearGradient id="paint41_linear_168_4213" x1="32.3181" y1="73.6416" x2="52.5209" y2="124.614" gradientUnits="userSpaceOnUse">
<stop stop-color="#BDA0FF"/>
<stop offset="0.331" stop-color="#37364E"/>
<stop offset="0.451" stop-color="#3F3C59"/>
<stop offset="1" stop-color="#222222"/>
</linearGradient>
<linearGradient id="paint42_linear_168_4213" x1="83.141" y1="86.1488" x2="59.4566" y2="102.042" gradientUnits="userSpaceOnUse">
<stop stop-color="#BDA0FF"/>
<stop offset="0.244" stop-color="#37364E"/>
<stop offset="0.355" stop-color="#262536"/>
<stop offset="1" stop-color="#222222"/>
</linearGradient>
<linearGradient id="paint43_linear_168_4213" x1="69.2562" y1="88.2812" x2="51.2353" y2="99.417" gradientUnits="userSpaceOnUse">
<stop stop-color="#BDA0FF"/>
<stop offset="0.244" stop-color="#37364E"/>
<stop offset="0.355" stop-color="#262536"/>
<stop offset="1" stop-color="#222222"/>
</linearGradient>
<linearGradient id="paint44_linear_168_4213" x1="52.6758" y1="90.7084" x2="55.9522" y2="92.7562" gradientUnits="userSpaceOnUse">
<stop stop-color="#24D8B5"/>
<stop offset="1" stop-color="#43BEFF"/>
</linearGradient>
<linearGradient id="paint45_linear_168_4213" x1="84.1458" y1="108.446" x2="87.4222" y2="110.493" gradientUnits="userSpaceOnUse">
<stop stop-color="#24D8B5"/>
<stop offset="1" stop-color="#43BEFF"/>
</linearGradient>
<linearGradient id="paint46_linear_168_4213" x1="55.7243" y1="108.451" x2="52.5212" y2="110.611" gradientUnits="userSpaceOnUse">
<stop stop-color="#24D8B5"/>
<stop offset="1" stop-color="#43BEFF"/>
</linearGradient>
<linearGradient id="paint47_linear_168_4213" x1="86.1928" y1="90.8566" x2="82.9897" y2="93.0172" gradientUnits="userSpaceOnUse">
<stop stop-color="#24D8B5"/>
<stop offset="1" stop-color="#43BEFF"/>
</linearGradient>
<linearGradient id="paint48_linear_168_4213" x1="69.536" y1="120.707" x2="69.536" y2="116.501" gradientUnits="userSpaceOnUse">
<stop stop-color="#0BB5E3" stop-opacity="0.282"/>
<stop offset="1" stop-color="#2AF698"/>
</linearGradient>
<linearGradient id="paint49_linear_168_4213" x1="69.536" y1="116.508" x2="69.536" y2="120.481" gradientUnits="userSpaceOnUse">
<stop stop-color="#0BB5E3"/>
<stop offset="1" stop-color="#00FFC4"/>
</linearGradient>
<linearGradient id="paint50_linear_168_4213" x1="69.5315" y1="119.856" x2="69.5315" y2="117.082" gradientUnits="userSpaceOnUse">
<stop stop-color="#007FFF"/>
<stop offset="1" stop-color="#2AF698"/>
</linearGradient>
<linearGradient id="paint51_linear_168_4213" x1="40.641" y1="103.971" x2="40.641" y2="99.7646" gradientUnits="userSpaceOnUse">
<stop stop-color="#0BB5E3" stop-opacity="0.282"/>
<stop offset="1" stop-color="#2AF698"/>
</linearGradient>
<linearGradient id="paint52_linear_168_4213" x1="40.641" y1="99.7717" x2="40.641" y2="103.745" gradientUnits="userSpaceOnUse">
<stop stop-color="#0BB5E3"/>
<stop offset="1" stop-color="#00FFC4"/>
</linearGradient>
<linearGradient id="paint53_linear_168_4213" x1="40.6365" y1="103.12" x2="40.6365" y2="100.346" gradientUnits="userSpaceOnUse">
<stop stop-color="#007FFF"/>
<stop offset="1" stop-color="#2AF698"/>
</linearGradient>
<linearGradient id="paint54_linear_168_4213" x1="98.2881" y1="103.971" x2="98.2881" y2="99.7646" gradientUnits="userSpaceOnUse">
<stop stop-color="#0BB5E3" stop-opacity="0.282"/>
<stop offset="1" stop-color="#2AF698"/>
</linearGradient>
<linearGradient id="paint55_linear_168_4213" x1="98.2881" y1="99.7717" x2="98.2881" y2="103.745" gradientUnits="userSpaceOnUse">
<stop stop-color="#0BB5E3"/>
<stop offset="1" stop-color="#00FFC4"/>
</linearGradient>
<linearGradient id="paint56_linear_168_4213" x1="98.2836" y1="103.12" x2="98.2836" y2="100.346" gradientUnits="userSpaceOnUse">
<stop stop-color="#007FFF"/>
<stop offset="1" stop-color="#2AF698"/>
</linearGradient>
<linearGradient id="paint57_linear_168_4213" x1="69.5362" y1="119.46" x2="69.5362" y2="117.719" gradientUnits="userSpaceOnUse">
<stop stop-color="#0BB5E3" stop-opacity="0.282"/>
<stop offset="1" stop-color="#2AF698"/>
</linearGradient>
<linearGradient id="paint58_linear_168_4213" x1="69.536" y1="117.723" x2="69.536" y2="119.367" gradientUnits="userSpaceOnUse">
<stop stop-color="#0BB5E3"/>
<stop offset="1" stop-color="#00FFC4"/>
</linearGradient>
<linearGradient id="paint59_linear_168_4213" x1="69.5342" y1="119.108" x2="69.5342" y2="117.961" gradientUnits="userSpaceOnUse">
<stop stop-color="#007FFF"/>
<stop offset="1" stop-color="#2AF698"/>
</linearGradient>
<linearGradient id="paint60_linear_168_4213" x1="98.2883" y1="102.724" x2="98.2883" y2="100.983" gradientUnits="userSpaceOnUse">
<stop stop-color="#0BB5E3" stop-opacity="0.282"/>
<stop offset="1" stop-color="#2AF698"/>
</linearGradient>
<linearGradient id="paint61_linear_168_4213" x1="98.2881" y1="100.986" x2="98.2881" y2="102.63" gradientUnits="userSpaceOnUse">
<stop stop-color="#0BB5E3"/>
<stop offset="1" stop-color="#00FFC4"/>
</linearGradient>
<linearGradient id="paint62_linear_168_4213" x1="98.2863" y1="102.372" x2="98.2863" y2="101.224" gradientUnits="userSpaceOnUse">
<stop stop-color="#007FFF"/>
<stop offset="1" stop-color="#2AF698"/>
</linearGradient>
<linearGradient id="paint63_linear_168_4213" x1="40.6411" y1="102.724" x2="40.6411" y2="100.983" gradientUnits="userSpaceOnUse">
<stop stop-color="#0BB5E3" stop-opacity="0.282"/>
<stop offset="1" stop-color="#2AF698"/>
</linearGradient>
<linearGradient id="paint64_linear_168_4213" x1="40.6409" y1="100.986" x2="40.6409" y2="102.63" gradientUnits="userSpaceOnUse">
<stop stop-color="#0BB5E3"/>
<stop offset="1" stop-color="#00FFC4"/>
</linearGradient>
<linearGradient id="paint65_linear_168_4213" x1="40.6391" y1="102.372" x2="40.6391" y2="101.224" gradientUnits="userSpaceOnUse">
<stop stop-color="#007FFF"/>
<stop offset="1" stop-color="#2AF698"/>
</linearGradient>
<linearGradient id="paint66_linear_168_4213" x1="89.4207" y1="169.301" x2="89.4207" y2="139.222" gradientUnits="userSpaceOnUse">
<stop stop-color="#BDA0FF"/>
<stop offset="0.244" stop-color="#37364E"/>
<stop offset="0.731" stop-color="#262536"/>
<stop offset="1" stop-color="#222222"/>
</linearGradient>
<linearGradient id="paint67_linear_168_4213" x1="63.8499" y1="168.208" x2="90.3564" y2="145.173" gradientUnits="userSpaceOnUse">
<stop stop-color="#BDA0FF"/>
<stop offset="0.244" stop-color="#37364E"/>
<stop offset="0.731" stop-color="#262536"/>
<stop offset="1" stop-color="#222222"/>
</linearGradient>
<linearGradient id="paint68_linear_168_4213" x1="89.4207" y1="158.43" x2="89.4207" y2="128.351" gradientUnits="userSpaceOnUse">
<stop stop-color="#BDA0FF"/>
<stop offset="0.244" stop-color="#37364E"/>
<stop offset="0.731" stop-color="#262536"/>
<stop offset="1" stop-color="#222222"/>
</linearGradient>
<linearGradient id="paint69_linear_168_4213" x1="63.8499" y1="157.336" x2="90.3564" y2="134.302" gradientUnits="userSpaceOnUse">
<stop stop-color="#BDA0FF"/>
<stop offset="0.244" stop-color="#37364E"/>
<stop offset="0.731" stop-color="#262536"/>
<stop offset="1" stop-color="#222222"/>
</linearGradient>
<linearGradient id="paint70_linear_168_4213" x1="52.2656" y1="162.766" x2="88.5908" y2="137.908" gradientUnits="userSpaceOnUse">
<stop stop-color="#BDA0FF"/>
<stop offset="0.244" stop-color="#37364E"/>
<stop offset="0.731" stop-color="#262536"/>
<stop offset="1" stop-color="#222222"/>
</linearGradient>
<linearGradient id="paint71_linear_168_4213" x1="52.2656" y1="173.637" x2="88.5908" y2="148.779" gradientUnits="userSpaceOnUse">
<stop stop-color="#BDA0FF"/>
<stop offset="0.244" stop-color="#37364E"/>
<stop offset="0.731" stop-color="#262536"/>
<stop offset="1" stop-color="#222222"/>
</linearGradient>
<linearGradient id="paint72_linear_168_4213" x1="23.9093" y1="139.822" x2="23.9093" y2="142.442" gradientUnits="userSpaceOnUse">
<stop stop-color="#0BB5E3" stop-opacity="0"/>
<stop offset="1" stop-color="#2AF698"/>
</linearGradient>
<linearGradient id="paint73_linear_168_4213" x1="34.278" y1="151.282" x2="34.278" y2="153.996" gradientUnits="userSpaceOnUse">
<stop stop-color="#0BB5E3" stop-opacity="0"/>
<stop offset="1" stop-color="#2AF698"/>
</linearGradient>
<linearGradient id="paint74_linear_168_4213" x1="23.9093" y1="135.927" x2="23.9093" y2="138.547" gradientUnits="userSpaceOnUse">
<stop stop-color="#0BB5E3" stop-opacity="0"/>
<stop offset="1" stop-color="#2AF698"/>
</linearGradient>
<linearGradient id="paint75_linear_168_4213" x1="34.278" y1="147.526" x2="34.278" y2="150.241" gradientUnits="userSpaceOnUse">
<stop stop-color="#0BB5E3" stop-opacity="0"/>
<stop offset="1" stop-color="#2AF698"/>
</linearGradient>
<linearGradient id="paint76_linear_168_4213" x1="116.615" y1="139.822" x2="116.615" y2="142.442" gradientUnits="userSpaceOnUse">
<stop stop-color="#0BB5E3" stop-opacity="0"/>
<stop offset="1" stop-color="#2AF698"/>
</linearGradient>
<linearGradient id="paint77_linear_168_4213" x1="105.422" y1="151.699" x2="105.422" y2="154.414" gradientUnits="userSpaceOnUse">
<stop stop-color="#0BB5E3" stop-opacity="0"/>
<stop offset="1" stop-color="#2AF698"/>
</linearGradient>
<linearGradient id="paint78_linear_168_4213" x1="116.615" y1="135.927" x2="116.615" y2="138.547" gradientUnits="userSpaceOnUse">
<stop stop-color="#0BB5E3" stop-opacity="0"/>
<stop offset="1" stop-color="#2AF698"/>
</linearGradient>
<linearGradient id="paint79_linear_168_4213" x1="105.422" y1="147.943" x2="105.422" y2="150.658" gradientUnits="userSpaceOnUse">
<stop stop-color="#0BB5E3" stop-opacity="0"/>
<stop offset="1" stop-color="#2AF698"/>
</linearGradient>
<linearGradient id="paint80_linear_168_4213" x1="77.8799" y1="167.557" x2="77.8799" y2="170.271" gradientUnits="userSpaceOnUse">
<stop stop-color="#0BB5E3" stop-opacity="0"/>
<stop offset="1" stop-color="#2AF698"/>
</linearGradient>
<linearGradient id="paint81_linear_168_4213" x1="77.8799" y1="162.966" x2="77.8799" y2="165.681" gradientUnits="userSpaceOnUse">
<stop stop-color="#0BB5E3" stop-opacity="0"/>
<stop offset="1" stop-color="#2AF698"/>
</linearGradient>
<linearGradient id="paint82_linear_168_4213" x1="50.4138" y1="161.297" x2="50.4138" y2="164.012" gradientUnits="userSpaceOnUse">
<stop stop-color="#0BB5E3" stop-opacity="0"/>
<stop offset="1" stop-color="#2AF698"/>
</linearGradient>
<linearGradient id="paint83_linear_168_4213" x1="50.4138" y1="157.263" x2="50.4138" y2="159.978" gradientUnits="userSpaceOnUse">
<stop stop-color="#0BB5E3" stop-opacity="0"/>
<stop offset="1" stop-color="#2AF698"/>
</linearGradient>
</defs>
</svg>
