<svg width="120" height="121" viewBox="0 0 120 121" fill="none" xmlns="http://www.w3.org/2000/svg">
<g opacity="0.5">
<path d="M65.1184 83.1645C61.9951 83.1667 58.9413 82.2423 56.3435 80.5081C53.7458 78.774 51.7209 76.3082 50.5252 73.4228C49.3295 70.5374 49.0167 67.3621 49.6264 64.2988C50.0399 62.2214 50.865 60.2588 52.0424 58.5222C52.9721 57.151 54.8998 57.1631 56.0715 58.334V58.334C57.2443 59.506 57.192 61.3976 56.4281 62.8691C55.7112 64.25 55.3269 65.795 55.3268 67.3797C55.3265 69.9765 56.3579 72.4671 58.194 74.3036C60.03 76.14 62.5204 77.1718 65.1173 77.1721C67.7142 77.1724 70.2048 76.141 72.0412 74.3049L90.1312 56.2149C91.9675 54.3785 92.999 51.8878 92.9989 49.2908C92.9988 46.6938 91.9671 44.2032 90.1306 42.3669C88.2942 40.5306 85.8035 39.4991 83.2065 39.4992C81.6207 39.4993 80.0747 39.884 78.693 40.6016C77.2229 41.3653 75.333 41.4179 74.1615 40.2464V40.2464C72.9902 39.0751 72.9782 37.1471 74.3496 36.2179C76.9451 34.4595 80.0263 33.5001 83.2065 33.5C85.2803 33.4999 87.3337 33.9083 89.2496 34.7018C91.1655 35.4954 92.9064 36.6585 94.3728 38.1248C95.8392 39.5911 97.0024 41.3318 97.796 43.2477C98.5897 45.1635 98.9982 47.217 98.9983 49.2907C98.9983 51.3644 98.59 53.4179 97.7964 55.3338C97.0029 57.2497 95.8398 58.9905 94.3735 60.4569L76.2835 78.5469C74.8184 80.0141 73.0778 81.1774 71.1617 81.9698C69.2457 82.7623 67.1919 83.1683 65.1184 83.1645Z" fill="white" fill-opacity="0.4"/>
<path d="M39.7925 90.4008C36.6695 90.4021 33.6163 89.4771 31.0192 87.7428C28.422 86.0084 26.3977 83.5427 25.2023 80.6576C24.0069 77.7725 23.6941 74.5976 24.3035 71.5347C24.9129 68.4717 26.4171 65.6584 28.6259 63.4506L46.7159 45.3606C48.1801 43.8851 49.9213 42.7132 51.8396 41.9122C53.7578 41.1111 55.8153 40.6968 57.8941 40.6928C59.9728 40.6888 62.0319 41.0953 63.9532 41.889C65.8745 42.6826 67.6202 43.8479 69.0901 45.3178C70.56 46.7877 71.7252 48.5333 72.5189 50.4546C73.3125 52.3759 73.719 54.435 73.7151 56.5138C73.7111 58.5925 73.2967 60.65 72.4957 62.5683C72.0795 63.5649 71.5632 64.5137 70.9563 65.4008C70.0237 66.7636 68.103 66.7477 66.9353 65.5801V65.5801C65.7606 64.4053 65.8174 62.5084 66.5883 61.0367C66.7186 60.7877 66.8385 60.5328 66.9473 60.2727C67.4451 59.0829 67.7029 57.8064 67.706 56.5167C67.709 55.2269 67.4572 53.9493 66.9651 52.7571C66.4729 51.5649 65.7501 50.4817 64.8381 49.5697C63.9261 48.6577 62.8429 47.9349 61.6507 47.4427C60.4586 46.9506 59.1809 46.6988 57.8912 46.7019C56.6014 46.7049 55.3249 46.9627 54.1351 47.4605C52.9453 47.9583 51.8655 48.6863 50.9579 49.6026L32.8679 67.6926C31.0445 69.5315 30.0239 72.0179 30.0293 74.6076C30.0348 77.1973 31.0659 79.6793 32.897 81.5106C34.728 83.3419 37.21 84.3732 39.7996 84.379C41.3799 84.3824 42.9217 84.0039 44.3015 83.2939C45.7739 82.5364 47.6614 82.4877 48.8322 83.6586V83.6586C50.0059 84.8324 50.0187 86.7642 48.6442 87.6949C47.7637 88.2911 46.8229 88.7979 45.8355 89.2063C43.9195 89.9987 41.8658 90.4046 39.7925 90.4008Z" fill="white"/>
<g filter="url(#filter0_d_168_944)">
<rect x="54" y="54.5" width="12" height="12" rx="2" fill="#FFFDFF"/>
</g>
</g>
<defs>
<filter id="filter0_d_168_944" x="42" y="42.5" width="36" height="36" filterUnits="userSpaceOnUse" color-interpolation-filters="sRGB">
<feFlood flood-opacity="0" result="BackgroundImageFix"/>
<feColorMatrix in="SourceAlpha" type="matrix" values="0 0 0 0 0 0 0 0 0 0 0 0 0 0 0 0 0 0 127 0" result="hardAlpha"/>
<feMorphology radius="4" operator="dilate" in="SourceAlpha" result="effect1_dropShadow_168_944"/>
<feOffset/>
<feGaussianBlur stdDeviation="4"/>
<feComposite in2="hardAlpha" operator="out"/>
<feColorMatrix type="matrix" values="0 0 0 0 0.113725 0 0 0 0 0.333333 0 0 0 0 0.188392 0 0 0 1 0"/>
<feBlend mode="normal" in2="BackgroundImageFix" result="effect1_dropShadow_168_944"/>
<feBlend mode="normal" in="SourceGraphic" in2="effect1_dropShadow_168_944" result="shape"/>
</filter>
</defs>
</svg>
