<svg width="71" height="20" viewBox="0 0 71 20" fill="none" xmlns="http://www.w3.org/2000/svg">
<path d="M9.24858 0.454545H12.3239V9.90057C12.3239 10.9612 12.0705 11.8892 11.5639 12.6847C11.062 13.4801 10.3589 14.1004 9.45455 14.5455C8.55019 14.9858 7.49669 15.206 6.29403 15.206C5.08665 15.206 4.03078 14.9858 3.12642 14.5455C2.22206 14.1004 1.51894 13.4801 1.01705 12.6847C0.515152 11.8892 0.264205 10.9612 0.264205 9.90057V0.454545H3.33949V9.63778C3.33949 10.1918 3.46023 10.6842 3.7017 11.1151C3.94792 11.5459 4.29356 11.8845 4.73864 12.1307C5.18371 12.3769 5.70218 12.5 6.29403 12.5C6.89063 12.5 7.40909 12.3769 7.84943 12.1307C8.29451 11.8845 8.63778 11.5459 8.87926 11.1151C9.12547 10.6842 9.24858 10.1918 9.24858 9.63778V0.454545ZM12.5298 15L12.8698 13.24L18.4898 6.36H14.6098L15.1098 4.08H22.4298L22.0098 6.04L16.4898 12.72H20.7698L20.2898 15H12.5298ZM36.1221 7.72727C36.1221 9.31345 35.8214 10.6629 35.2201 11.7756C34.6235 12.8883 33.8091 13.7382 32.7769 14.3253C31.7495 14.9077 30.5942 15.1989 29.311 15.1989C28.0184 15.1989 26.8584 14.9053 25.8309 14.3182C24.8034 13.7311 23.9914 12.8812 23.3948 11.7685C22.7982 10.6558 22.4999 9.30871 22.4999 7.72727C22.4999 6.1411 22.7982 4.79167 23.3948 3.67898C23.9914 2.56629 24.8034 1.71875 25.8309 1.13636C26.8584 0.549242 28.0184 0.255681 29.311 0.255681C30.5942 0.255681 31.7495 0.549242 32.7769 1.13636C33.8091 1.71875 34.6235 2.56629 35.2201 3.67898C35.8214 4.79167 36.1221 6.1411 36.1221 7.72727ZM33.0042 7.72727C33.0042 6.69981 32.8503 5.83333 32.5425 5.12784C32.2395 4.42235 31.811 3.88731 31.257 3.52273C30.7031 3.15814 30.0544 2.97585 29.311 2.97585C28.5676 2.97585 27.919 3.15814 27.365 3.52273C26.811 3.88731 26.3801 4.42235 26.0724 5.12784C25.7693 5.83333 25.6178 6.69981 25.6178 7.72727C25.6178 8.75473 25.7693 9.62121 26.0724 10.3267C26.3801 11.0322 26.811 11.5672 27.365 11.9318C27.919 12.2964 28.5676 12.4787 29.311 12.4787C30.0544 12.4787 30.7031 12.2964 31.257 11.9318C31.811 11.5672 32.2395 11.0322 32.5425 10.3267C32.8503 9.62121 33.0042 8.75473 33.0042 7.72727ZM37.8001 15V0.454545H43.5388C44.642 0.454545 45.5819 0.665246 46.3584 1.08665C47.1349 1.50331 47.7268 2.08333 48.1339 2.8267C48.5459 3.56534 48.7518 4.41761 48.7518 5.38352C48.7518 6.34943 48.5435 7.2017 48.1268 7.94034C47.7102 8.67898 47.1065 9.25426 46.3158 9.66619C45.5298 10.0781 44.5781 10.2841 43.4607 10.2841H39.803V7.8196H42.9635C43.5554 7.8196 44.043 7.7178 44.4266 7.5142C44.8148 7.30587 45.1036 7.01941 45.293 6.65483C45.4872 6.28551 45.5842 5.86174 45.5842 5.38352C45.5842 4.90057 45.4872 4.47917 45.293 4.11932C45.1036 3.75473 44.8148 3.47301 44.4266 3.27415C44.0383 3.07055 43.5459 2.96875 42.9493 2.96875H40.8754V15H37.8001ZM52.9104 15.206C52.2143 15.206 51.5941 15.0852 51.0496 14.8438C50.5051 14.5975 50.0742 14.2353 49.757 13.7571C49.4445 13.2741 49.2882 12.6728 49.2882 11.9531C49.2882 11.3471 49.3995 10.8381 49.622 10.4261C49.8446 10.0142 50.1476 9.68277 50.5311 9.43182C50.9146 9.18087 51.3502 8.99148 51.8379 8.86364C52.3303 8.7358 52.8464 8.64583 53.3862 8.59375C54.0207 8.52746 54.5321 8.46591 54.9203 8.40909C55.3086 8.34754 55.5903 8.25758 55.7655 8.1392C55.9407 8.02083 56.0283 7.84564 56.0283 7.61364V7.57102C56.0283 7.12121 55.8862 6.7732 55.6021 6.52699C55.3228 6.28078 54.925 6.15767 54.4089 6.15767C53.8644 6.15767 53.4312 6.27841 53.1092 6.51989C52.7873 6.75663 52.5742 7.05492 52.47 7.41477L49.6717 7.1875C49.8138 6.52462 50.0931 5.9517 50.5098 5.46875C50.9265 4.98106 51.4639 4.60701 52.122 4.34659C52.7849 4.08144 53.5519 3.94886 54.4232 3.94886C55.0292 3.94886 55.6092 4.01989 56.1632 4.16193C56.7219 4.30398 57.2167 4.52415 57.6476 4.82244C58.0832 5.12074 58.4265 5.50426 58.6774 5.97301C58.9284 6.43703 59.0538 6.99337 59.0538 7.64205V15H56.1845V13.4872H56.0993C55.9241 13.8281 55.6897 14.1288 55.3962 14.3892C55.1026 14.6449 54.7499 14.8461 54.3379 14.9929C53.926 15.1349 53.4501 15.206 52.9104 15.206ZM53.7768 13.1179C54.2219 13.1179 54.6149 13.0303 54.9558 12.8551C55.2967 12.6752 55.5643 12.4337 55.7584 12.1307C55.9525 11.8277 56.0496 11.4844 56.0496 11.1009V9.94318C55.9549 10.0047 55.8247 10.0616 55.6589 10.1136C55.498 10.161 55.3157 10.206 55.1121 10.2486C54.9085 10.2865 54.7049 10.322 54.5013 10.3551C54.2977 10.3835 54.113 10.4096 53.9473 10.4332C53.5922 10.4853 53.2821 10.5682 53.0169 10.6818C52.7518 10.7955 52.5458 10.9493 52.399 11.1435C52.2522 11.3329 52.1788 11.5696 52.1788 11.8537C52.1788 12.2656 52.328 12.5805 52.6263 12.7983C52.9293 13.0114 53.3128 13.1179 53.7768 13.1179ZM62.2784 19.0909C61.8949 19.0909 61.535 19.0601 61.1989 18.9986C60.8674 18.9418 60.5928 18.8684 60.375 18.7784L61.0568 16.5199C61.4119 16.6288 61.7315 16.688 62.0156 16.6974C62.3045 16.7069 62.553 16.6406 62.7614 16.4986C62.9744 16.3565 63.1473 16.1151 63.2798 15.7741L63.4574 15.3125L59.544 4.09091H62.7259L64.9844 12.1023H65.098L67.3778 4.09091H70.581L66.3409 16.179C66.1373 16.7661 65.8603 17.2775 65.5099 17.7131C65.1643 18.1534 64.7263 18.492 64.196 18.7287C63.6657 18.9702 63.0265 19.0909 62.2784 19.0909Z" fill="white"/>
</svg>
