<svg width="185" height="177" viewBox="0 0 185 177" fill="none" xmlns="http://www.w3.org/2000/svg">
<path d="M152.94 82.3135L179.735 97.5764C182.042 99.0483 183.542 101.418 179.735 103.445L81.9191 159.39C78.3632 161.443 75.6835 160.353 70.6356 157.28L29.539 133.647C26.1977 131.729 28.6699 129.071 29.5388 128.59L126.6 72.8624C128.512 71.8602 130.674 69.4652 135.869 72.4757L152.94 82.3135Z" fill="url(#paint0_linear_168_1361)"/>
<path d="M131.077 35.7506L155.456 49.3604C157.365 50.3935 158.853 55.5114 156.488 58.7333L84.0612 157.622C78.9737 162.494 73.3594 159.973 68.3117 156.901L30.0575 134.857C26.7162 132.939 29.6854 129.076 30.9075 127.357L104.33 27.126C105.964 24.8547 108.847 22.9674 114.042 25.9777L131.077 35.7506Z" fill="url(#paint1_linear_168_1361)"/>
<path d="M130.825 33.6581L152.985 46.3961C154.894 47.4293 157.78 51.2623 155.416 54.484L82.7579 153.442C79.2933 159.288 72.1102 156.792 69.2526 155.032L28.6374 131.82C25.2961 129.902 27.4146 125.604 28.6373 123.885L101.3 25.7156C102.934 23.4443 107.208 20.6824 112.979 23.5827L130.825 33.6581Z" fill="url(#paint2_linear_168_1361)"/>
<path opacity="0.848" d="M153.975 47.0807C158.77 50.4846 158.083 53.3045 158.049 54.6201C158.015 55.9357 157.51 57.2141 156.286 58.9951C155.062 60.776 125.726 100.677 125.726 100.677L123.758 97.589L154.801 55.5645C154.801 55.5645 158.232 51.2682 153.975 47.0807Z" fill="url(#paint3_linear_168_1361)"/>
<path opacity="0.499" d="M151.791 59.5497C152.795 60.1665 153.719 62.004 153.719 62.6039L155.421 60.2873C155.421 60.2873 155.488 58.402 153.439 57.293C152.517 58.5673 152.774 58.0571 151.791 59.5497Z" fill="url(#paint4_linear_168_1361)"/>
<path opacity="0.499" d="M83.8576 151.969C84.8619 152.586 86.1272 154.318 86.1272 154.918L87.8295 152.601C87.8295 152.601 87.8439 150.405 85.7945 149.296C84.872 150.57 84.8404 150.477 83.8576 151.969Z" fill="url(#paint5_linear_168_1361)"/>
<path opacity="0.499" d="M142.471 74.085C142.072 74.5876 142.984 75.4266 143.489 74.641C143.489 74.641 146.647 70.4706 147.2 69.7732C147.258 69.7111 147.301 69.6374 147.328 69.557C147.355 69.4767 147.364 69.3916 147.354 69.3074C147.345 69.2232 147.318 69.142 147.275 69.0691C147.232 68.9963 147.174 68.9336 147.104 68.8853C147.035 68.8369 146.956 68.804 146.872 68.7889C146.789 68.7737 146.703 68.7766 146.621 68.7973C146.539 68.8181 146.463 68.8562 146.397 68.9091C146.331 68.962 146.277 69.0285 146.238 69.1041C145.315 70.3784 143.72 72.5652 142.471 74.085Z" fill="url(#paint6_linear_168_1361)"/>
<path opacity="0.499" d="M142.644 74.085C142.245 74.5876 143.157 75.4266 143.662 74.641C143.662 74.641 146.82 70.4706 147.373 69.7732C147.43 69.7111 147.474 69.6374 147.501 69.557C147.527 69.4767 147.536 69.3916 147.527 69.3074C147.518 69.2232 147.491 69.142 147.448 69.0691C147.405 68.9963 147.347 68.9336 147.277 68.8853C147.208 68.8369 147.128 68.804 147.045 68.7889C146.962 68.7737 146.876 68.7766 146.794 68.7973C146.712 68.8181 146.635 68.8562 146.569 68.9091C146.503 68.962 146.449 69.0285 146.411 69.1041C145.488 70.3784 143.893 72.5652 142.644 74.085Z" fill="url(#paint7_linear_168_1361)"/>
<path opacity="0.499" d="M136.285 82.4261C135.894 82.9355 136.821 83.759 137.312 82.9648C137.312 82.9648 140.399 78.7408 140.94 78.0339C140.997 77.9708 141.039 77.8964 141.064 77.8156C141.089 77.7348 141.097 77.6496 141.086 77.5656C141.076 77.4817 141.047 77.4009 141.003 77.3289C140.959 77.2569 140.899 77.1952 140.829 77.1481C140.759 77.1009 140.679 77.0694 140.596 77.0557C140.512 77.0419 140.427 77.0462 140.345 77.0683C140.263 77.0904 140.187 77.1298 140.122 77.1837C140.057 77.2377 140.004 77.305 139.967 77.3812C139.066 78.6712 137.508 80.8851 136.285 82.4261Z" fill="url(#paint8_linear_168_1361)"/>
<path opacity="0.499" d="M136.457 82.4237C136.067 82.9331 136.993 83.7566 137.485 82.9624C137.485 82.9624 140.571 78.7383 141.113 78.0315C141.169 77.9684 141.212 77.894 141.237 77.8132C141.262 77.7324 141.27 77.6471 141.259 77.5632C141.249 77.4792 141.22 77.3985 141.176 77.3265C141.131 77.2544 141.072 77.1928 141.002 77.1456C140.931 77.0985 140.852 77.067 140.768 77.0532C140.685 77.0395 140.599 77.0438 140.518 77.0659C140.436 77.088 140.36 77.1273 140.295 77.1813C140.23 77.2353 140.177 77.3026 140.14 77.3787C139.239 78.6688 137.681 80.8827 136.457 82.4237Z" fill="url(#paint9_linear_168_1361)"/>
<path opacity="0.848" d="M26.8059 128.388C26.7708 129.031 26.919 129.671 27.2333 130.233C27.5475 130.796 28.0149 131.257 28.5811 131.564C30.5643 132.65 29.0974 131.894 30.9968 132.924C32.8961 133.955 71.5859 156.344 71.5859 156.344L72.2 159.09L30.41 135.027C30.41 135.027 28.2576 133.921 27.5356 132.581C26.8135 131.241 26.8059 128.388 26.8059 128.388Z" fill="url(#paint10_linear_168_1361)"/>
<path d="M126.546 35.0742L132.539 38.5343C132.606 38.5645 132.665 38.6092 132.713 38.6652C132.761 38.7211 132.796 38.787 132.815 38.858C132.835 38.929 132.838 39.0034 132.825 39.0758C132.813 39.1483 132.784 39.2171 132.742 39.2773C132.539 39.5573 132.253 39.6365 131.991 39.485L125.962 36.0456C125.898 36.0132 125.842 35.9677 125.797 35.9121C125.752 35.8565 125.719 35.7921 125.701 35.7229C125.682 35.6538 125.679 35.5816 125.69 35.5111C125.702 35.4405 125.728 35.3732 125.768 35.3135C125.841 35.1808 125.963 35.0819 126.108 35.0373C126.254 34.9927 126.41 35.0059 126.546 35.0742Z" fill="#2536EB"/>
<path d="M126.579 35.0353L132.568 38.4936C132.831 38.645 132.98 38.9449 132.788 39.2057C132.751 39.2654 132.703 39.3175 132.647 39.3587C132.59 39.4 132.526 39.4297 132.458 39.4461C132.39 39.4625 132.32 39.4654 132.25 39.4545C132.181 39.4436 132.115 39.4192 132.055 39.3826L126.031 35.9439C125.968 35.9146 125.913 35.8723 125.867 35.8199C125.822 35.7675 125.788 35.7062 125.768 35.6399C125.748 35.5736 125.743 35.5038 125.752 35.4351C125.761 35.3665 125.784 35.3004 125.82 35.2414C125.895 35.1156 126.016 35.0239 126.158 34.9855C126.299 34.9471 126.45 34.965 126.579 35.0353Z" fill="#303789"/>
<path d="M47.6615 143.238L52.595 146.098C52.6507 146.125 52.7001 146.163 52.7398 146.21C52.7796 146.258 52.8087 146.313 52.8254 146.373C52.842 146.432 52.8457 146.495 52.8363 146.556C52.8268 146.617 52.8045 146.675 52.7706 146.727C52.6093 146.968 52.3782 147.04 52.1623 146.914L47.2002 144.073C47.1473 144.044 47.1006 144.006 47.0632 143.959C47.0257 143.912 46.9982 143.857 46.9824 143.799C46.9666 143.741 46.9627 143.681 46.9711 143.621C46.9794 143.562 46.9999 143.505 47.0311 143.453C47.058 143.397 47.0958 143.347 47.1422 143.306C47.1885 143.265 47.2426 143.234 47.3013 143.214C47.3599 143.194 47.422 143.185 47.4838 143.189C47.5456 143.194 47.606 143.21 47.6615 143.238Z" fill="#2536EB"/>
<path d="M47.4994 143.047L52.5216 145.978C52.7374 146.103 52.9327 146.363 52.7804 146.588C52.6281 146.813 52.5395 146.956 52.3241 146.83L47.2551 143.985C47.0393 143.86 46.757 143.456 46.8846 143.233C46.9124 143.181 46.9504 143.134 46.9965 143.096C47.0426 143.058 47.0958 143.029 47.153 143.012C47.2102 142.994 47.2702 142.988 47.3297 142.995C47.3892 143.001 47.4468 143.018 47.4994 143.047Z" fill="#1C247B"/>
<path opacity="0.309" d="M137.018 41.9733C137.657 41.4734 137.818 40.6107 137.377 40.0464C136.936 39.4821 136.06 39.4299 135.42 39.9298C134.781 40.4297 134.62 41.2924 135.061 41.8567C135.502 42.421 136.378 42.4732 137.018 41.9733Z" fill="url(#paint11_linear_168_1361)"/>
<path opacity="0.522" d="M136.577 41.4148C136.878 41.1795 136.955 40.7753 136.749 40.512C136.543 40.2487 136.133 40.2259 135.832 40.4612C135.531 40.6965 135.454 41.1007 135.659 41.364C135.865 41.6273 136.276 41.6501 136.577 41.4148Z" fill="url(#paint12_linear_168_1361)"/>
<path opacity="0.309" d="M123.361 34.194C124 33.6941 124.161 32.8314 123.72 32.2671C123.279 31.7028 122.403 31.6506 121.763 32.1505C121.124 32.6504 120.963 33.5131 121.404 34.0774C121.845 34.6417 122.721 34.6939 123.361 34.194Z" fill="url(#paint13_linear_168_1361)"/>
<path opacity="0.522" d="M122.92 33.636C123.221 33.4007 123.298 32.9965 123.092 32.7332C122.887 32.4699 122.476 32.4471 122.175 32.6824C121.874 32.9177 121.797 33.3219 122.003 33.5852C122.208 33.8485 122.619 33.8712 122.92 33.636Z" fill="url(#paint14_linear_168_1361)"/>
<path d="M58.8058 149.692L60.2952 150.564C60.3538 150.603 60.5263 150.65 60.3802 151.083C60.234 151.516 60.1385 151.448 60.0795 151.41L58.5337 150.526C58.4754 150.488 58.4332 150.338 58.5119 150.049C58.5906 149.76 58.7472 149.654 58.8058 149.692Z" fill="#1C247B"/>
<path d="M61.3988 151.248L62.8882 152.12C62.9468 152.158 63.1193 152.206 62.9731 152.639C62.827 153.072 62.7314 153.004 62.6725 152.965L61.1267 152.081C61.0684 152.043 61.0262 151.894 61.1049 151.605C61.1836 151.316 61.3402 151.209 61.3988 151.248Z" fill="#1C247B"/>
<path d="M64.1648 152.803L65.6542 153.676C65.7128 153.714 65.8853 153.762 65.7391 154.195C65.593 154.628 65.4974 154.56 65.4385 154.521L63.8927 153.637C63.8344 153.599 63.7922 153.45 63.8709 153.161C63.9496 152.872 64.1062 152.765 64.1648 152.803Z" fill="#1C247B"/>
<path d="M34.258 135.689L35.7474 136.562C35.806 136.6 35.9785 136.648 35.8323 137.081C35.6862 137.514 35.5906 137.446 35.5317 137.407L33.9859 136.523C33.9276 136.485 33.8854 136.336 33.9641 136.047C34.0428 135.758 34.1994 135.651 34.258 135.689Z" fill="#1C247B"/>
<path d="M37.024 137.245L38.5134 138.118C38.572 138.156 38.7445 138.204 38.5983 138.637C38.4522 139.07 38.3566 139.001 38.2977 138.963L36.7519 138.079C36.6936 138.041 36.6514 137.892 36.7301 137.603C36.8088 137.314 36.9654 137.207 37.024 137.245Z" fill="#1C247B"/>
<path d="M39.7898 138.801L41.2792 139.673C41.3378 139.712 41.5103 139.759 41.3642 140.192C41.218 140.625 41.1225 140.557 41.0636 140.519L39.5177 139.635C39.4594 139.597 39.4173 139.447 39.4959 139.158C39.5746 138.869 39.7312 138.762 39.7898 138.801Z" fill="#1C247B"/>
<path d="M80.5388 159.374C81.8056 158.67 83.2146 158.762 86.23 154.736C89.2454 150.71 154.179 61.8981 154.179 61.8981C154.179 61.8981 158.188 57.4732 158.074 53.9394C158.546 53.8887 155.722 58.0817 155.722 58.0817L135.253 86.5843C135.253 86.5843 86.2607 153.723 84.7221 155.096C83.1835 156.47 82.7964 157.249 79.0814 158.412C75.3665 159.576 79.2706 160.079 80.5388 159.374Z" fill="url(#paint15_linear_168_1361)"/>
<path d="M119.826 34.9886C123.319 36.8902 131.821 41.8126 135.724 43.9401C139.627 46.0676 140.895 42.0479 144.664 44.1793C148.433 46.3108 148.091 46.095 150.958 47.8357C153.825 49.5765 154.787 51.2207 152.611 54.1857L82.1823 149.802C78.2645 156.164 74.3992 154.093 69.7539 151.265L31.9333 129.516C28.8585 127.751 31.5908 124.196 32.7162 122.614L103.917 26.1469C104.87 24.9511 107.108 22.7941 111.8 25.1641C111.8 25.1641 111.871 25.2522 116.895 28.2435C121.919 31.2348 116.332 33.0872 119.826 34.9886Z" fill="url(#paint16_linear_168_1361)"/>
<g opacity="0.218">
<path d="M137.442 44.7823C137.442 44.7823 134.909 43.4813 130.624 41.0913C122.976 57.7222 110.879 87.3517 119.352 92.0408C120.729 92.7868 122.25 93.2311 123.812 93.3441C135.886 76.8996 147.051 61.777 147.051 61.777C147.051 61.777 144.114 42.7478 140.881 43.8584C137.647 44.9691 137.442 44.7823 137.442 44.7823Z" fill="url(#paint17_linear_168_1361)"/>
<path d="M64.9498 79.2827C110.377 101.838 70.0246 93.5634 87.7254 62.4739C93.3463 52.6017 95.2675 44.5956 95.2626 38.2389C88.1178 47.7557 68.7703 74.0418 64.9498 79.2827Z" fill="url(#paint18_linear_168_1361)"/>
<path d="M101.148 123.96C96.2217 103.315 83.4552 69.5397 55.5239 95.3887C32.1064 117.061 35.9311 129 44.7572 136.798C51.1393 140.399 63.6967 147.664 66.8573 149.616C71.7499 150.146 78.386 148.496 84.698 146.258C90.9788 137.832 92.7768 135.42 101.148 123.96Z" fill="url(#paint19_linear_168_1361)"/>
</g>
<path d="M152.688 43.4253C152.377 42.8877 151.981 42.3686 151.542 41.9241C151.136 41.5131 150.714 41.1832 150.32 40.9702L150.316 40.9678L128.545 28.4535L111.014 18.5561C109.704 17.8981 108.396 17.5055 107.127 17.3893C106.016 17.2874 104.929 17.3962 103.898 17.7127C103.006 17.9864 102.171 18.4085 101.416 18.9674C100.772 19.4437 100.208 20.0066 99.7842 20.5952L99.7827 20.5973L28.3919 117.048C28.2022 117.314 27.9141 117.753 27.6173 118.327C27.3276 118.887 27.0989 119.443 26.9377 119.98C26.7475 120.612 26.6555 121.206 26.664 121.745C26.6737 122.357 26.8144 122.903 27.0823 123.367C27.3594 123.847 27.78 124.251 28.3326 124.568L69.8687 148.525L69.9669 148.586C71.7691 149.696 74.2374 151.217 76.618 150.63C77.2872 150.465 77.9232 150.136 78.5085 149.654C79.1591 149.118 79.7688 148.373 80.3208 147.442L80.3255 147.434L80.3309 147.427L152.645 48.6372C153.239 47.8276 153.52 46.9262 153.479 45.958C153.444 45.1369 153.17 44.2611 152.688 43.4253ZM152.852 43.3303C153.765 44.9105 154.135 46.9292 152.798 48.7497L80.4843 147.539C77.0804 153.283 72.5766 150.416 69.769 148.687L28.2376 124.733C24.9548 122.848 27.0361 118.626 28.2376 116.937L99.6299 20.4842C101.235 18.2527 105.434 15.5391 111.104 18.3883L128.638 28.2879L150.411 40.803C151.208 41.2343 152.178 42.1626 152.852 43.3303Z" fill="#06D6D5"/>
<path d="M112.463 90.8607C116.757 93.3066 116.778 93.3408 114.116 97.2111L101.988 113.458C98.6511 118.174 97.4678 117.253 93.3986 114.758L53.5561 91.9782C50.4814 90.2129 52.6972 87.8247 53.8227 86.2429L65.8731 69.719C69.0033 65.743 68.9803 65.6617 73.3056 68.1894C73.3056 68.1894 108.17 88.4164 112.463 90.8607Z" fill="url(#paint20_linear_168_1361)"/>
<path opacity="0.349" d="M95.6944 122.324C99.9881 124.769 100.009 124.804 97.3476 128.674L85.2199 144.921C81.8825 149.637 80.6993 148.716 76.6301 146.221L36.7876 123.441C33.7128 121.676 35.9286 119.288 37.0541 117.706L49.1046 101.182C52.2348 97.2059 52.2117 97.1246 56.5371 99.6523C56.5371 99.6523 91.401 119.879 95.6944 122.324Z" fill="url(#paint21_linear_168_1361)"/>
<g opacity="0.309">
<path d="M152.515 41.3506C152.204 40.813 151.808 40.2939 151.369 39.8494C150.963 39.4384 150.541 39.1085 150.147 38.8955L150.143 38.8931L128.372 26.3788L110.841 16.4814C109.531 15.8234 108.223 15.4308 106.954 15.3146C105.843 15.2127 104.756 15.3215 103.725 15.638C102.833 15.9117 101.998 16.3338 101.243 16.8927C100.599 17.369 100.035 17.9319 99.6112 18.5205L99.6097 18.5226L28.2189 114.973C28.0292 115.24 27.7411 115.678 27.4443 116.252C27.1546 116.813 26.9259 117.369 26.7647 117.905C26.5745 118.537 26.4824 119.131 26.491 119.67C26.5006 120.282 26.6414 120.828 26.9093 121.292C27.1864 121.772 27.607 122.177 28.1596 122.494L69.6957 146.45L69.7939 146.511C71.5961 147.621 74.0644 149.142 76.445 148.555C77.1142 148.39 77.7502 148.062 78.3355 147.579C78.9861 147.043 79.5958 146.299 80.1478 145.367L80.1525 145.359L80.1579 145.352L152.472 46.5625C153.066 45.7529 153.347 44.8515 153.306 43.8833C153.271 43.0622 152.997 42.1864 152.515 41.3506ZM152.679 41.2556C153.592 42.8358 153.962 44.8545 152.625 46.675L80.3113 145.464C76.9074 151.208 72.4036 148.341 69.596 146.612L28.0646 122.658C24.7818 120.774 26.8631 116.551 28.0646 114.862L99.4569 18.4095C101.062 16.1779 105.261 13.4644 110.931 16.3136L128.465 26.2132L150.238 38.7283C151.035 39.1596 152.005 40.0879 152.679 41.2556Z" fill="#06D6D5"/>
</g>
<path d="M128.886 58.7064C133.18 61.1523 133.201 61.1865 130.539 65.0568L118.411 81.3039C115.074 86.0199 113.891 85.0992 109.822 82.6033L69.9791 59.8239C66.9044 58.0586 69.1202 55.6704 70.2457 54.0886L82.2961 37.5647C85.4263 33.5887 85.4033 33.5074 89.7286 36.0351C89.7286 36.0351 124.593 56.2621 128.886 58.7064Z" fill="url(#paint22_linear_168_1361)"/>
<path d="M68.4204 57.9726C68.7103 51.7587 68.7982 8.18604 68.7982 8.18604C68.7982 8.18604 132.076 18.2893 132.076 30.3613C132.035 35.0132 132.488 61.3119 132.327 61.8337C132.229 61.8002 132.384 62.5859 131.595 63.6167C127.045 69.8037 120.114 79.0864 117.747 82.1419C115.379 85.1974 114.367 85.5213 110.224 82.8072C98.157 76.0756 77.6262 64.2106 70.0218 59.8377C68.3101 58.8727 68.6331 58.1501 68.4204 57.9726Z" fill="url(#paint23_linear_168_1361)"/>
<defs>
<linearGradient id="paint0_linear_168_1361" x1="169.608" y1="78.5091" x2="40.1815" y2="153.234" gradientUnits="userSpaceOnUse">
<stop stop-color="#0BB5E3" stop-opacity="0"/>
<stop offset="1" stop-color="#2AF698" stop-opacity="0.275"/>
</linearGradient>
<linearGradient id="paint1_linear_168_1361" x1="159.031" y1="54.747" x2="27.2027" y2="130.858" gradientUnits="userSpaceOnUse">
<stop stop-color="#0BB5E3"/>
<stop offset="1" stop-color="#2AF698" stop-opacity="0.275"/>
</linearGradient>
<linearGradient id="paint2_linear_168_1361" x1="157.278" y1="52.0988" x2="25.8296" y2="127.99" gradientUnits="userSpaceOnUse">
<stop stop-color="#0BB5E3"/>
<stop offset="1" stop-color="#2AF698"/>
</linearGradient>
<linearGradient id="paint3_linear_168_1361" x1="164.76" y1="44.8669" x2="100.987" y2="62.3435" gradientUnits="userSpaceOnUse">
<stop stop-color="#BDA0FF"/>
<stop offset="0.286" stop-color="#1A12ED"/>
<stop offset="0.837" stop-color="#1B1786" stop-opacity="0"/>
<stop offset="1"/>
</linearGradient>
<linearGradient id="paint4_linear_168_1361" x1="153.606" y1="57.293" x2="153.606" y2="62.6039" gradientUnits="userSpaceOnUse">
<stop stop-color="#0BB5E3"/>
<stop offset="1" stop-color="#2AF698"/>
</linearGradient>
<linearGradient id="paint5_linear_168_1361" x1="85.8436" y1="149.296" x2="85.8436" y2="154.918" gradientUnits="userSpaceOnUse">
<stop stop-color="#0BB5E3"/>
<stop offset="1" stop-color="#2AF698"/>
</linearGradient>
<linearGradient id="paint6_linear_168_1361" x1="144.865" y1="68.7793" x2="144.865" y2="74.9625" gradientUnits="userSpaceOnUse">
<stop stop-color="#0BB5E3"/>
<stop offset="1" stop-color="#2AF698"/>
</linearGradient>
<linearGradient id="paint7_linear_168_1361" x1="145.038" y1="68.7793" x2="145.038" y2="74.9625" gradientUnits="userSpaceOnUse">
<stop stop-color="#0BB5E3"/>
<stop offset="1" stop-color="#2AF698"/>
</linearGradient>
<linearGradient id="paint8_linear_168_1361" x1="138.588" y1="77.0802" x2="138.694" y2="83.2629" gradientUnits="userSpaceOnUse">
<stop stop-color="#0BB5E3"/>
<stop offset="1" stop-color="#2AF698"/>
</linearGradient>
<linearGradient id="paint9_linear_168_1361" x1="138.761" y1="77.0777" x2="138.866" y2="83.2605" gradientUnits="userSpaceOnUse">
<stop stop-color="#0BB5E3"/>
<stop offset="1" stop-color="#2AF698"/>
</linearGradient>
<linearGradient id="paint10_linear_168_1361" x1="24.0553" y1="122.687" x2="53.5736" y2="181.329" gradientUnits="userSpaceOnUse">
<stop stop-color="#BDA0FF"/>
<stop offset="0.286" stop-color="#1A12ED"/>
<stop offset="0.837" stop-color="#1B1786" stop-opacity="0"/>
<stop offset="1"/>
</linearGradient>
<linearGradient id="paint11_linear_168_1361" x1="135.42" y1="39.9298" x2="137.018" y2="41.9733" gradientUnits="userSpaceOnUse">
<stop stop-color="#BDA0FF"/>
<stop offset="0.568" stop-color="#1A12ED"/>
<stop offset="1"/>
</linearGradient>
<linearGradient id="paint12_linear_168_1361" x1="135.832" y1="40.4612" x2="136.577" y2="41.4148" gradientUnits="userSpaceOnUse">
<stop stop-color="#BDA0FF"/>
<stop offset="0.568" stop-color="#1A12ED"/>
<stop offset="1"/>
</linearGradient>
<linearGradient id="paint13_linear_168_1361" x1="121.763" y1="32.1505" x2="123.361" y2="34.194" gradientUnits="userSpaceOnUse">
<stop stop-color="#BDA0FF"/>
<stop offset="0.568" stop-color="#1A12ED"/>
<stop offset="1"/>
</linearGradient>
<linearGradient id="paint14_linear_168_1361" x1="122.175" y1="32.6824" x2="122.92" y2="33.636" gradientUnits="userSpaceOnUse">
<stop stop-color="#BDA0FF"/>
<stop offset="0.568" stop-color="#1A12ED"/>
<stop offset="1"/>
</linearGradient>
<linearGradient id="paint15_linear_168_1361" x1="63.4915" y1="179.369" x2="181.71" y2="87.7007" gradientUnits="userSpaceOnUse">
<stop stop-color="#0BB5E3" stop-opacity="0.431"/>
<stop offset="1" stop-color="#2AF698" stop-opacity="0.243"/>
</linearGradient>
<linearGradient id="paint16_linear_168_1361" x1="15.3843" y1="99.9779" x2="230.709" y2="53.4025" gradientUnits="userSpaceOnUse">
<stop stop-color="#37364E"/>
<stop offset="1" stop-color="#0B0B10"/>
</linearGradient>
<linearGradient id="paint17_linear_168_1361" x1="87.0006" y1="84.8791" x2="185.742" y2="73.0123" gradientUnits="userSpaceOnUse">
<stop stop-color="#BDA0FF"/>
<stop offset="0.315" stop-color="#37364E"/>
<stop offset="0.514" stop-color="#262536"/>
<stop offset="1" stop-color="#222222"/>
</linearGradient>
<linearGradient id="paint18_linear_168_1361" x1="32.6098" y1="81.1773" x2="100.025" y2="75.6047" gradientUnits="userSpaceOnUse">
<stop stop-color="#BDA0FF"/>
<stop offset="0.315" stop-color="#37364E"/>
<stop offset="0.65" stop-color="#262536"/>
<stop offset="1" stop-color="#222222"/>
</linearGradient>
<linearGradient id="paint19_linear_168_1361" x1="84.1752" y1="44.884" x2="50.1201" y2="178.187" gradientUnits="userSpaceOnUse">
<stop stop-color="#BDA0FF"/>
<stop offset="0.388" stop-color="#37364E"/>
<stop offset="0.628" stop-color="#262536"/>
<stop offset="1" stop-color="#222222"/>
</linearGradient>
<linearGradient id="paint20_linear_168_1361" x1="52.1846" y1="90.0208" x2="131.702" y2="63.0868" gradientUnits="userSpaceOnUse">
<stop stop-color="#BDA0FF" stop-opacity="0.129"/>
<stop offset="0.151" stop-color="#173586" stop-opacity="0.294"/>
<stop offset="0.736" stop-color="#7A31C3"/>
<stop offset="1"/>
</linearGradient>
<linearGradient id="paint21_linear_168_1361" x1="35.416" y1="121.484" x2="114.933" y2="94.5497" gradientUnits="userSpaceOnUse">
<stop stop-color="#BDA0FF" stop-opacity="0.129"/>
<stop offset="0.151" stop-color="#173586" stop-opacity="0.294"/>
<stop offset="0.736" stop-color="#7A31C3"/>
<stop offset="1"/>
</linearGradient>
<linearGradient id="paint22_linear_168_1361" x1="68.6076" y1="57.8665" x2="148.125" y2="30.9325" gradientUnits="userSpaceOnUse">
<stop stop-color="#BDA0FF"/>
<stop offset="0.41" stop-color="#1A12ED"/>
<stop offset="0.935" stop-color="#1B1786" stop-opacity="0"/>
<stop offset="1"/>
</linearGradient>
<linearGradient id="paint23_linear_168_1361" x1="97.9613" y1="31.6617" x2="81.0237" y2="173.673" gradientUnits="userSpaceOnUse">
<stop stop-color="#F393FF" stop-opacity="0"/>
<stop offset="0.337" stop-color="#6F3FDE" stop-opacity="0.639"/>
<stop offset="0.577" stop-color="#BDA0FF" stop-opacity="0.373"/>
<stop offset="1" stop-color="#BDA0FF"/>
</linearGradient>
</defs>
</svg>
