<svg width="562" height="322" viewBox="0 0 562 322" fill="none" xmlns="http://www.w3.org/2000/svg">
<g clip-path="url(#clip0_0_3262)">
<g clip-path="url(#clip1_0_3262)">
<g clip-path="url(#clip2_0_3262)">
<path d="M25.0869 230.821C25.0869 224.398 30.2942 219.191 36.7178 219.191H214.72C221.143 219.191 226.351 224.398 226.351 230.821V275.322C226.351 281.745 221.143 286.953 214.72 286.953H36.7178C30.2942 286.953 25.0869 281.745 25.0869 275.322V230.821Z" stroke="#313138"/>
<path d="M182.356 263.186H42.786C39.4346 263.186 36.7178 265.902 36.7178 269.254C36.7178 272.605 39.4346 275.322 42.786 275.322H182.356C185.708 275.322 188.424 272.605 188.424 269.254C188.424 265.902 185.708 263.186 182.356 263.186Z" fill="white" fill-opacity="0.06"/>
<path d="M50.8771 230.821H42.786C39.4346 230.821 36.7178 233.538 36.7178 236.89V244.981C36.7178 248.332 39.4346 251.049 42.786 251.049H50.8771C54.2285 251.049 56.9453 248.332 56.9453 244.981V236.89C56.9453 233.538 54.2285 230.821 50.8771 230.821Z" fill="#313138"/>
<path d="M139.878 234.867H71.1046C67.7532 234.867 65.0363 237.584 65.0363 240.935C65.0363 244.287 67.7532 247.003 71.1046 247.003H139.878C143.23 247.003 145.947 244.287 145.947 240.935C145.947 237.584 143.23 234.867 139.878 234.867Z" fill="white" fill-opacity="0.06"/>
<path d="M25.0869 36.6366C25.0869 30.2131 30.2942 25.0057 36.7178 25.0057H214.72C221.143 25.0057 226.351 30.2131 226.351 36.6366V81.1373C226.351 87.5609 221.143 92.7681 214.72 92.7681H36.7178C30.2942 92.7681 25.0869 87.5609 25.0869 81.1373V36.6366Z" stroke="#313138"/>
<path d="M182.356 69.0007H42.786C39.4346 69.0007 36.7178 71.7176 36.7178 75.069C36.7178 78.4204 39.4346 81.1373 42.786 81.1373H182.356C185.708 81.1373 188.424 78.4204 188.424 75.069C188.424 71.7176 185.708 69.0007 182.356 69.0007Z" fill="white" fill-opacity="0.06"/>
<path d="M50.8771 36.6366H42.786C39.4346 36.6366 36.7178 39.3535 36.7178 42.7049V50.7959C36.7178 54.1473 39.4346 56.8642 42.786 56.8642H50.8771C54.2285 56.8642 56.9453 54.1473 56.9453 50.7959V42.7049C56.9453 39.3535 54.2285 36.6366 50.8771 36.6366Z" fill="#313138"/>
<path d="M139.878 40.6821H71.1046C67.7532 40.6821 65.0363 43.399 65.0363 46.7504C65.0363 50.1018 67.7532 52.8187 71.1046 52.8187H139.878C143.23 52.8187 145.947 50.1018 145.947 46.7504C145.947 43.399 143.23 40.6821 139.878 40.6821Z" fill="white" fill-opacity="0.06"/>
<path d="M25.0869 133.729C25.0869 127.306 30.2942 122.098 36.7178 122.098H214.72C221.143 122.098 226.351 127.306 226.351 133.729V178.23C226.351 184.653 221.143 189.861 214.72 189.861H36.7178C30.2942 189.861 25.0869 184.653 25.0869 178.23V133.729Z" fill="#041E28" stroke="#44C7FC" stroke-opacity="0.46"/>
<path d="M67.874 147.591C67.276 147.591 66.7387 147.487 66.262 147.279C65.794 147.062 65.4257 146.768 65.157 146.395C64.8883 146.014 64.7497 145.576 64.741 145.082H66.002C66.0453 145.507 66.2187 145.866 66.522 146.161C66.834 146.447 67.2847 146.59 67.874 146.59C68.4373 146.59 68.8793 146.451 69.2 146.174C69.5293 145.888 69.694 145.524 69.694 145.082C69.694 144.735 69.5987 144.454 69.408 144.237C69.2173 144.02 68.979 143.856 68.693 143.743C68.407 143.63 68.0213 143.509 67.536 143.379C66.938 143.223 66.457 143.067 66.093 142.911C65.7377 142.755 65.43 142.512 65.17 142.183C64.9187 141.845 64.793 141.394 64.793 140.831C64.793 140.337 64.9187 139.899 65.17 139.518C65.4213 139.137 65.7723 138.842 66.223 138.634C66.6823 138.426 67.2067 138.322 67.796 138.322C68.6453 138.322 69.3387 138.534 69.876 138.959C70.422 139.384 70.7297 139.947 70.799 140.649H69.499C69.4557 140.302 69.2737 139.999 68.953 139.739C68.6323 139.47 68.2077 139.336 67.679 139.336C67.185 139.336 66.782 139.466 66.47 139.726C66.158 139.977 66.002 140.333 66.002 140.792C66.002 141.121 66.093 141.39 66.275 141.598C66.4657 141.806 66.6953 141.966 66.964 142.079C67.2413 142.183 67.627 142.304 68.121 142.443C68.719 142.608 69.2 142.772 69.564 142.937C69.928 143.093 70.24 143.34 70.5 143.678C70.76 144.007 70.89 144.458 70.89 145.03C70.89 145.472 70.773 145.888 70.539 146.278C70.305 146.668 69.9583 146.984 69.499 147.227C69.0397 147.47 68.498 147.591 67.874 147.591ZM72.1889 143.912C72.1889 143.184 72.3362 142.547 72.6309 142.001C72.9255 141.446 73.3285 141.017 73.8399 140.714C74.3599 140.411 74.9362 140.259 75.5689 140.259C76.1929 140.259 76.7345 140.393 77.1939 140.662C77.6532 140.931 77.9955 141.269 78.2209 141.676V140.376H79.4169V147.5H78.2209V146.174C77.9869 146.59 77.6359 146.937 77.1679 147.214C76.7085 147.483 76.1712 147.617 75.5559 147.617C74.9232 147.617 74.3512 147.461 73.8399 147.149C73.3285 146.837 72.9255 146.399 72.6309 145.836C72.3362 145.273 72.1889 144.631 72.1889 143.912ZM78.2209 143.925C78.2209 143.388 78.1125 142.92 77.8959 142.521C77.6792 142.122 77.3845 141.819 77.0119 141.611C76.6479 141.394 76.2449 141.286 75.8029 141.286C75.3609 141.286 74.9579 141.39 74.5939 141.598C74.2299 141.806 73.9395 142.109 73.7229 142.508C73.5062 142.907 73.3979 143.375 73.3979 143.912C73.3979 144.458 73.5062 144.935 73.7229 145.342C73.9395 145.741 74.2299 146.048 74.5939 146.265C74.9579 146.473 75.3609 146.577 75.8029 146.577C76.2449 146.577 76.6479 146.473 77.0119 146.265C77.3845 146.048 77.6792 145.741 77.8959 145.342C78.1125 144.935 78.2209 144.462 78.2209 143.925ZM84.887 140.246C85.7537 140.246 86.4557 140.51 86.993 141.039C87.5304 141.559 87.799 142.313 87.799 143.301V147.5H86.629V143.47C86.629 142.759 86.4514 142.218 86.096 141.845C85.7407 141.464 85.2554 141.273 84.64 141.273C84.016 141.273 83.5177 141.468 83.145 141.858C82.781 142.248 82.599 142.816 82.599 143.561V147.5H81.416V140.376H82.599V141.39C82.833 141.026 83.1494 140.744 83.548 140.545C83.9554 140.346 84.4017 140.246 84.887 140.246ZM89.2895 143.912C89.2895 143.184 89.4368 142.547 89.7315 142.001C90.0261 141.446 90.4291 141.017 90.9405 140.714C91.4605 140.411 92.0411 140.259 92.6825 140.259C93.2371 140.259 93.7528 140.389 94.2295 140.649C94.7061 140.9 95.0701 141.234 95.3215 141.65V137.88H96.5175V147.5H95.3215V146.161C95.0875 146.586 94.7408 146.937 94.2815 147.214C93.8221 147.483 93.2848 147.617 92.6695 147.617C92.0368 147.617 91.4605 147.461 90.9405 147.149C90.4291 146.837 90.0261 146.399 89.7315 145.836C89.4368 145.273 89.2895 144.631 89.2895 143.912ZM95.3215 143.925C95.3215 143.388 95.2131 142.92 94.9965 142.521C94.7798 142.122 94.4851 141.819 94.1125 141.611C93.7485 141.394 93.3455 141.286 92.9035 141.286C92.4615 141.286 92.0585 141.39 91.6945 141.598C91.3305 141.806 91.0401 142.109 90.8235 142.508C90.6068 142.907 90.4985 143.375 90.4985 143.912C90.4985 144.458 90.6068 144.935 90.8235 145.342C91.0401 145.741 91.3305 146.048 91.6945 146.265C92.0585 146.473 92.4615 146.577 92.9035 146.577C93.3455 146.577 93.7485 146.473 94.1125 146.265C94.4851 146.048 94.7798 145.741 94.9965 145.342C95.2131 144.935 95.3215 144.462 95.3215 143.925ZM99.6996 141.702C99.9423 141.277 100.298 140.931 100.766 140.662C101.234 140.393 101.767 140.259 102.365 140.259C103.006 140.259 103.582 140.411 104.094 140.714C104.605 141.017 105.008 141.446 105.303 142.001C105.597 142.547 105.745 143.184 105.745 143.912C105.745 144.631 105.597 145.273 105.303 145.836C105.008 146.399 104.601 146.837 104.081 147.149C103.569 147.461 102.997 147.617 102.365 147.617C101.749 147.617 101.208 147.483 100.74 147.214C100.28 146.945 99.9336 146.603 99.6996 146.187V147.5H98.5166V137.88H99.6996V141.702ZM104.536 143.912C104.536 143.375 104.427 142.907 104.211 142.508C103.994 142.109 103.699 141.806 103.327 141.598C102.963 141.39 102.56 141.286 102.118 141.286C101.684 141.286 101.281 141.394 100.909 141.611C100.545 141.819 100.25 142.127 100.025 142.534C99.808 142.933 99.6996 143.396 99.6996 143.925C99.6996 144.462 99.808 144.935 100.025 145.342C100.25 145.741 100.545 146.048 100.909 146.265C101.281 146.473 101.684 146.577 102.118 146.577C102.56 146.577 102.963 146.473 103.327 146.265C103.699 146.048 103.994 145.741 104.211 145.342C104.427 144.935 104.536 144.458 104.536 143.912ZM110.409 147.617C109.741 147.617 109.135 147.465 108.589 147.162C108.051 146.859 107.627 146.43 107.315 145.875C107.011 145.312 106.86 144.662 106.86 143.925C106.86 143.197 107.016 142.556 107.328 142.001C107.648 141.438 108.082 141.009 108.628 140.714C109.174 140.411 109.785 140.259 110.461 140.259C111.137 140.259 111.748 140.411 112.294 140.714C112.84 141.009 113.269 141.433 113.581 141.988C113.901 142.543 114.062 143.188 114.062 143.925C114.062 144.662 113.897 145.312 113.568 145.875C113.247 146.43 112.809 146.859 112.255 147.162C111.7 147.465 111.085 147.617 110.409 147.617ZM110.409 146.577C110.833 146.577 111.232 146.477 111.605 146.278C111.977 146.079 112.276 145.78 112.502 145.381C112.736 144.982 112.853 144.497 112.853 143.925C112.853 143.353 112.74 142.868 112.515 142.469C112.289 142.07 111.995 141.776 111.631 141.585C111.267 141.386 110.872 141.286 110.448 141.286C110.014 141.286 109.616 141.386 109.252 141.585C108.896 141.776 108.61 142.07 108.394 142.469C108.177 142.868 108.069 143.353 108.069 143.925C108.069 144.506 108.173 144.995 108.381 145.394C108.597 145.793 108.883 146.092 109.239 146.291C109.594 146.482 109.984 146.577 110.409 146.577ZM119.335 147.5L117.645 144.848L116.02 147.5H114.785L117.086 143.964L114.785 140.376H116.124L117.814 143.015L119.426 140.376H120.661L118.373 143.899L120.674 147.5H119.335ZM126.487 139.401V142.43H129.789V143.405H126.487V146.525H130.179V147.5H125.304V138.426H130.179V139.401H126.487ZM135.44 140.246C136.306 140.246 137.008 140.51 137.546 141.039C138.083 141.559 138.352 142.313 138.352 143.301V147.5H137.182V143.47C137.182 142.759 137.004 142.218 136.649 141.845C136.293 141.464 135.808 141.273 135.193 141.273C134.569 141.273 134.07 141.468 133.698 141.858C133.334 142.248 133.152 142.816 133.152 143.561V147.5H131.969V140.376H133.152V141.39C133.386 141.026 133.702 140.744 134.101 140.545C134.508 140.346 134.954 140.246 135.44 140.246ZM142.936 146.408L145.146 140.376H146.407L143.612 147.5H142.234L139.439 140.376H140.713L142.936 146.408ZM148.182 139.219C147.957 139.219 147.766 139.141 147.61 138.985C147.454 138.829 147.376 138.638 147.376 138.413C147.376 138.188 147.454 137.997 147.61 137.841C147.766 137.685 147.957 137.607 148.182 137.607C148.399 137.607 148.581 137.685 148.728 137.841C148.884 137.997 148.962 138.188 148.962 138.413C148.962 138.638 148.884 138.829 148.728 138.985C148.581 139.141 148.399 139.219 148.182 139.219ZM148.754 140.376V147.5H147.571V140.376H148.754ZM151.954 141.533C152.162 141.126 152.456 140.809 152.838 140.584C153.228 140.359 153.7 140.246 154.255 140.246V141.468H153.943C152.617 141.468 151.954 142.187 151.954 143.626V147.5H150.771V140.376H151.954V141.533ZM158.727 147.617C158.06 147.617 157.453 147.465 156.907 147.162C156.37 146.859 155.945 146.43 155.633 145.875C155.33 145.312 155.178 144.662 155.178 143.925C155.178 143.197 155.334 142.556 155.646 142.001C155.967 141.438 156.4 141.009 156.946 140.714C157.492 140.411 158.103 140.259 158.779 140.259C159.455 140.259 160.066 140.411 160.612 140.714C161.158 141.009 161.587 141.433 161.899 141.988C162.22 142.543 162.38 143.188 162.38 143.925C162.38 144.662 162.215 145.312 161.886 145.875C161.565 146.43 161.128 146.859 160.573 147.162C160.018 147.465 159.403 147.617 158.727 147.617ZM158.727 146.577C159.152 146.577 159.55 146.477 159.923 146.278C160.296 146.079 160.595 145.78 160.82 145.381C161.054 144.982 161.171 144.497 161.171 143.925C161.171 143.353 161.058 142.868 160.833 142.469C160.608 142.07 160.313 141.776 159.949 141.585C159.585 141.386 159.191 141.286 158.766 141.286C158.333 141.286 157.934 141.386 157.57 141.585C157.215 141.776 156.929 142.07 156.712 142.469C156.495 142.868 156.387 143.353 156.387 143.925C156.387 144.506 156.491 144.995 156.699 145.394C156.916 145.793 157.202 146.092 157.557 146.291C157.912 146.482 158.302 146.577 158.727 146.577ZM167.407 140.246C168.273 140.246 168.975 140.51 169.513 141.039C170.05 141.559 170.319 142.313 170.319 143.301V147.5H169.149V143.47C169.149 142.759 168.971 142.218 168.616 141.845C168.26 141.464 167.775 141.273 167.16 141.273C166.536 141.273 166.037 141.468 165.665 141.858C165.301 142.248 165.119 142.816 165.119 143.561V147.5H163.936V140.376H165.119V141.39C165.353 141.026 165.669 140.744 166.068 140.545C166.475 140.346 166.921 140.246 167.407 140.246ZM180.818 140.246C181.373 140.246 181.867 140.363 182.3 140.597C182.733 140.822 183.076 141.165 183.327 141.624C183.578 142.083 183.704 142.642 183.704 143.301V147.5H182.534V143.47C182.534 142.759 182.356 142.218 182.001 141.845C181.654 141.464 181.182 141.273 180.584 141.273C179.969 141.273 179.479 141.472 179.115 141.871C178.751 142.261 178.569 142.829 178.569 143.574V147.5H177.399V143.47C177.399 142.759 177.221 142.218 176.866 141.845C176.519 141.464 176.047 141.273 175.449 141.273C174.834 141.273 174.344 141.472 173.98 141.871C173.616 142.261 173.434 142.829 173.434 143.574V147.5H172.251V140.376H173.434V141.403C173.668 141.03 173.98 140.744 174.37 140.545C174.769 140.346 175.206 140.246 175.683 140.246C176.281 140.246 176.81 140.38 177.269 140.649C177.728 140.918 178.071 141.312 178.296 141.832C178.495 141.329 178.825 140.939 179.284 140.662C179.743 140.385 180.255 140.246 180.818 140.246ZM192.145 143.665C192.145 143.89 192.132 144.129 192.106 144.38H186.412C186.455 145.082 186.693 145.632 187.127 146.031C187.569 146.421 188.102 146.616 188.726 146.616C189.237 146.616 189.662 146.499 190 146.265C190.346 146.022 190.589 145.702 190.728 145.303H192.002C191.811 145.988 191.43 146.547 190.858 146.98C190.286 147.405 189.575 147.617 188.726 147.617C188.05 147.617 187.443 147.465 186.906 147.162C186.377 146.859 185.961 146.43 185.658 145.875C185.354 145.312 185.203 144.662 185.203 143.925C185.203 143.188 185.35 142.543 185.645 141.988C185.939 141.433 186.351 141.009 186.88 140.714C187.417 140.411 188.032 140.259 188.726 140.259C189.402 140.259 190 140.406 190.52 140.701C191.04 140.996 191.438 141.403 191.716 141.923C192.002 142.434 192.145 143.015 192.145 143.665ZM190.923 143.418C190.923 142.967 190.823 142.582 190.624 142.261C190.424 141.932 190.151 141.685 189.805 141.52C189.467 141.347 189.09 141.26 188.674 141.26C188.076 141.26 187.564 141.451 187.14 141.832C186.724 142.213 186.485 142.742 186.425 143.418H190.923ZM197.177 140.246C198.044 140.246 198.746 140.51 199.283 141.039C199.82 141.559 200.089 142.313 200.089 143.301V147.5H198.919V143.47C198.919 142.759 198.741 142.218 198.386 141.845C198.031 141.464 197.545 141.273 196.93 141.273C196.306 141.273 195.808 141.468 195.435 141.858C195.071 142.248 194.889 142.816 194.889 143.561V147.5H193.706V140.376H194.889V141.39C195.123 141.026 195.439 140.744 195.838 140.545C196.245 140.346 196.692 140.246 197.177 140.246ZM203.465 141.351V145.55C203.465 145.897 203.538 146.144 203.686 146.291C203.833 146.43 204.089 146.499 204.453 146.499H205.324V147.5H204.258C203.599 147.5 203.105 147.348 202.776 147.045C202.446 146.742 202.282 146.243 202.282 145.55V141.351H201.359V140.376H202.282V138.582H203.465V140.376H205.324V141.351H203.465Z" fill="white"/>
<path d="M52.8998 132.718H40.7633C38.529 132.718 36.7178 134.529 36.7178 136.763V148.9C36.7178 151.134 38.529 152.945 40.7633 152.945H52.8998C55.1341 152.945 56.9453 151.134 56.9453 148.9V136.763C56.9453 134.529 55.1341 132.718 52.8998 132.718Z" fill="url(#paint0_linear_0_3262)"/>
<path d="M47.9009 138.219C47.8999 137.8 47.3702 137.615 47.1065 137.941L43.1375 142.869C42.9493 143.102 43.0415 143.45 43.3208 143.561L45.1123 144.27L45.083 148.071C45.0797 148.491 45.6074 148.681 45.8744 148.357L49.8906 143.476C50.0811 143.244 49.9927 142.895 49.7149 142.781L47.9099 142.044L47.9009 138.219Z" fill="white"/>
<path d="M42.4419 137.773C42.2358 137.845 42.2358 138.149 42.4419 138.221L42.8083 138.347C43.0782 138.441 43.2901 138.661 43.3801 138.942L43.5022 139.323C43.5708 139.537 43.8623 139.537 43.9311 139.323L44.0532 138.942C44.1432 138.661 44.3551 138.441 44.625 138.347L44.9913 138.221C45.1974 138.149 45.1974 137.845 44.9913 137.773L44.625 137.647C44.3551 137.553 44.1432 137.333 44.0532 137.052L43.9311 136.671C43.8623 136.457 43.5708 136.457 43.5022 136.671L43.3801 137.052C43.2901 137.333 43.0782 137.553 42.8083 137.647L42.4419 137.773Z" fill="white" fill-opacity="0.6"/>
<path d="M40.6342 140.822C40.4692 140.765 40.4692 140.522 40.6342 140.466L40.864 140.386C40.9991 140.338 41.1049 140.229 41.15 140.088L41.2266 139.849C41.2815 139.678 41.5148 139.678 41.5697 139.849L41.6463 140.088C41.6913 140.229 41.7972 140.338 41.9323 140.386L42.1621 140.466C42.327 140.522 42.327 140.765 42.1621 140.822L41.9323 140.902C41.7972 140.949 41.6913 141.059 41.6463 141.199L41.5697 141.439C41.5148 141.61 41.2815 141.61 41.2266 141.439L41.15 141.199C41.1049 141.059 40.9991 140.949 40.864 140.902L40.6342 140.822Z" fill="white" fill-opacity="0.6"/>
<path d="M52.0991 137.353C52.3597 137.353 52.4744 137.62 52.607 137.928C52.7102 138.168 52.8242 138.434 53.0262 138.617C53.2283 138.801 53.52 138.904 53.7842 138.998C54.1233 139.119 54.4169 139.223 54.4169 139.46C54.4169 139.697 54.1233 139.801 53.7842 139.922C53.52 140.016 53.2283 140.119 53.0262 140.303C52.8242 140.487 52.7102 140.752 52.607 140.992C52.4744 141.3 52.3597 141.567 52.0991 141.567C51.8386 141.567 51.7238 141.3 51.5913 140.992C51.4881 140.752 51.3742 140.487 51.1721 140.303C50.97 140.119 50.6782 140.016 50.4141 139.922C50.075 139.801 49.7814 139.697 49.7814 139.46C49.7814 139.223 50.075 139.119 50.4141 138.998C50.6782 138.904 50.97 138.801 51.1721 138.617C51.3742 138.434 51.4881 138.168 51.5913 137.928C51.7238 137.62 51.8386 137.353 52.0991 137.353Z" fill="white" fill-opacity="0.6"/>
<path d="M125.719 120.581L128.639 115.524H122.799L125.719 120.581ZM125.213 94.2852V116.03H126.225V94.2852H125.213Z" fill="#545454"/>
<path d="M125.719 217.673L128.639 212.617H122.799L125.719 217.673ZM125.213 191.378V213.122H126.225V191.378H125.213Z" fill="#545454"/>
<g filter="url(#filter0_d_0_3262)">
<path d="M267.312 40.6821C267.312 31.745 274.556 24.5 283.494 24.5H566.68C575.617 24.5 582.862 31.745 582.862 40.6821V326.902H267.312V40.6821Z" fill="url(#paint1_linear_0_3262)"/>
<path d="M267.818 40.6821C267.818 32.0243 274.836 25.0057 283.494 25.0057H566.68C575.337 25.0057 582.356 32.0243 582.356 40.6821V326.397H267.818V40.6821Z" stroke="#313138"/>
</g>
<path d="M283.494 115.524C283.494 112.173 286.21 109.456 289.562 109.456H568.702C572.054 109.456 574.771 112.173 574.771 115.524V185.309C574.771 188.661 572.054 191.378 568.702 191.378H289.562C286.21 191.378 283.494 188.661 283.494 185.309V115.524Z" fill="#222222"/>
<path d="M293.608 123.615C293.608 121.381 295.419 119.57 297.653 119.57H332.04C334.274 119.57 336.086 121.381 336.086 123.615C336.086 125.849 334.274 127.661 332.04 127.661H297.653C295.419 127.661 293.608 125.849 293.608 123.615Z" fill="white" fill-opacity="0.06"/>
<path d="M340.131 123.615C340.131 121.381 341.942 119.57 344.176 119.57H410.927C413.162 119.57 414.973 121.381 414.973 123.615C414.973 125.849 413.162 127.661 410.927 127.661H344.176C341.942 127.661 340.131 125.849 340.131 123.615Z" fill="white" fill-opacity="0.06"/>
<path d="M419.018 123.615C419.018 121.381 420.83 119.57 423.064 119.57H489.815C492.049 119.57 493.86 121.381 493.86 123.615C493.86 125.849 492.049 127.661 489.815 127.661H423.064C420.83 127.661 419.018 125.849 419.018 123.615Z" fill="white" fill-opacity="0.06"/>
<path d="M497.906 123.615C497.906 121.381 499.717 119.57 501.951 119.57H568.702C570.936 119.57 572.748 121.381 572.748 123.615C572.748 125.849 570.936 127.661 568.702 127.661H501.951C499.717 127.661 497.906 125.849 497.906 123.615Z" fill="white" fill-opacity="0.06"/>
<path d="M293.608 139.797C293.608 137.563 295.419 135.752 297.653 135.752H321.926C324.16 135.752 325.972 137.563 325.972 139.797C325.972 142.031 324.16 143.843 321.926 143.843H297.653C295.419 143.843 293.608 142.031 293.608 139.797Z" fill="white" fill-opacity="0.06"/>
<path d="M330.017 139.797C330.017 137.563 331.829 135.752 334.063 135.752H380.586C382.82 135.752 384.632 137.563 384.632 139.797C384.632 142.031 382.82 143.843 380.586 143.843H334.063C331.829 143.843 330.017 142.031 330.017 139.797Z" fill="white" fill-opacity="0.06"/>
<path d="M388.677 139.797C388.677 137.563 390.489 135.752 392.723 135.752H409.916C412.15 135.752 413.962 137.563 413.962 139.797C413.962 142.031 412.15 143.843 409.916 143.843H392.723C390.489 143.843 388.677 142.031 388.677 139.797Z" fill="white" fill-opacity="0.06"/>
<path d="M418.007 139.797C418.007 137.563 419.818 135.752 422.053 135.752H463.519C465.753 135.752 467.565 137.563 467.565 139.797C467.565 142.031 465.753 143.843 463.519 143.843H422.053C419.818 143.843 418.007 142.031 418.007 139.797Z" fill="white" fill-opacity="0.06"/>
<path d="M471.61 139.797C471.61 137.563 473.421 135.752 475.656 135.752H558.589C560.823 135.752 562.634 137.563 562.634 139.797C562.634 142.031 560.823 143.843 558.589 143.843H475.656C473.421 143.843 471.61 142.031 471.61 139.797Z" fill="white" fill-opacity="0.06"/>
<path d="M307.767 40.6821H291.585C287.116 40.6821 283.494 44.3046 283.494 48.7732V64.9552C283.494 69.4238 287.116 73.0463 291.585 73.0463H307.767C312.235 73.0463 315.858 69.4238 315.858 64.9552V48.7732C315.858 44.3046 312.235 40.6821 307.767 40.6821Z" fill="#9A39E6"/>
<path d="M301.387 49.4851C301.385 48.8133 300.538 48.517 300.116 49.0406L293.765 56.9233C293.464 57.2971 293.612 57.8548 294.059 58.0316L296.925 59.1655L296.878 65.2472C296.873 65.9189 297.717 66.2238 298.145 65.7047L304.57 57.8949C304.875 57.5244 304.734 56.9657 304.289 56.7839L301.401 55.6034L301.387 49.4851Z" fill="white"/>
<path d="M292.653 48.7722C292.323 48.8866 292.323 49.3717 292.653 49.4861L293.239 49.6893C293.67 49.839 294.009 50.1916 294.154 50.641L294.349 51.2506C294.459 51.5937 294.925 51.5937 295.035 51.2506L295.231 50.641C295.375 50.1916 295.713 49.839 296.145 49.6893L296.732 49.4861C297.062 49.3717 297.062 48.8866 296.732 48.7722L296.145 48.5691C295.713 48.4193 295.375 48.0666 295.231 47.6172L295.035 47.0076C294.925 46.6646 294.459 46.6646 294.349 47.0076L294.154 47.6172C294.009 48.0666 293.67 48.4193 293.239 48.5691L292.653 48.7722Z" fill="white" fill-opacity="0.6"/>
<path d="M289.76 53.6496C289.496 53.5581 289.496 53.17 289.76 53.0785L290.127 52.951C290.344 52.8761 290.513 52.6998 290.586 52.4751L290.708 52.0925C290.796 51.8181 291.169 51.8181 291.257 52.0925L291.38 52.4751C291.451 52.6998 291.621 52.8761 291.837 52.951L292.205 53.0785C292.469 53.17 292.469 53.5581 292.205 53.6496L291.837 53.7772C291.621 53.852 291.451 54.0283 291.38 54.253L291.257 54.6356C291.169 54.91 290.796 54.91 290.708 54.6356L290.586 54.253C290.513 54.0283 290.344 53.852 290.127 53.7772L289.76 53.6496Z" fill="white" fill-opacity="0.6"/>
<path d="M308.104 48.0989C308.521 48.0989 308.704 48.526 308.917 49.0192C309.082 49.4035 309.264 49.8277 309.587 50.1216C309.911 50.4156 310.377 50.5814 310.8 50.7315C311.342 50.9243 311.812 51.0911 311.812 51.4702C311.812 51.8492 311.342 52.0161 310.8 52.2088C310.377 52.3589 309.911 52.5248 309.587 52.8187C309.264 53.1126 309.082 53.537 308.917 53.9211C308.704 54.4143 308.521 54.8414 308.104 54.8414C307.687 54.8414 307.504 54.4143 307.292 53.9211C307.127 53.537 306.944 53.1126 306.621 52.8187C306.297 52.5248 305.831 52.3589 305.408 52.2088C304.865 52.0161 304.396 51.8492 304.396 51.4702C304.396 51.0911 304.865 50.9243 305.408 50.7315C305.831 50.5814 306.297 50.4156 306.621 50.1216C306.944 49.8277 307.127 49.4035 307.292 49.0192C307.504 48.526 307.687 48.0989 308.104 48.0989Z" fill="white" fill-opacity="0.6"/>
<path d="M333.54 63.48L331.455 61.395C330.945 61.535 330.425 61.605 329.895 61.605C328.925 61.605 328.04 61.38 327.24 60.93C326.44 60.47 325.805 59.835 325.335 59.025C324.875 58.205 324.645 57.285 324.645 56.265C324.645 55.245 324.875 54.33 325.335 53.52C325.805 52.7 326.44 52.065 327.24 51.615C328.04 51.155 328.925 50.925 329.895 50.925C330.875 50.925 331.765 51.155 332.565 51.615C333.365 52.065 333.995 52.695 334.455 53.505C334.915 54.315 335.145 55.235 335.145 56.265C335.145 57.265 334.925 58.165 334.485 58.965C334.045 59.765 333.44 60.395 332.67 60.855L335.31 63.48H333.54ZM326.04 56.265C326.04 57.095 326.205 57.825 326.535 58.455C326.875 59.085 327.335 59.57 327.915 59.91C328.505 60.25 329.165 60.42 329.895 60.42C330.625 60.42 331.28 60.25 331.86 59.91C332.45 59.57 332.91 59.085 333.24 58.455C333.58 57.825 333.75 57.095 333.75 56.265C333.75 55.425 333.58 54.695 333.24 54.075C332.91 53.445 332.455 52.96 331.875 52.62C331.295 52.28 330.635 52.11 329.895 52.11C329.155 52.11 328.495 52.28 327.915 52.62C327.335 52.96 326.875 53.445 326.535 54.075C326.205 54.695 326.04 55.425 326.04 56.265ZM344.266 53.28V61.5H342.901V60.285C342.641 60.705 342.276 61.035 341.806 61.275C341.346 61.505 340.836 61.62 340.276 61.62C339.636 61.62 339.061 61.49 338.551 61.23C338.041 60.96 337.636 60.56 337.336 60.03C337.046 59.5 336.901 58.855 336.901 58.095V53.28H338.251V57.915C338.251 58.725 338.456 59.35 338.866 59.79C339.276 60.22 339.836 60.435 340.546 60.435C341.276 60.435 341.851 60.21 342.271 59.76C342.691 59.31 342.901 58.655 342.901 57.795V53.28H344.266ZM347.276 51.945C347.016 51.945 346.796 51.855 346.616 51.675C346.436 51.495 346.346 51.275 346.346 51.015C346.346 50.755 346.436 50.535 346.616 50.355C346.796 50.175 347.016 50.085 347.276 50.085C347.526 50.085 347.736 50.175 347.906 50.355C348.086 50.535 348.176 50.755 348.176 51.015C348.176 51.275 348.086 51.495 347.906 51.675C347.736 51.855 347.526 51.945 347.276 51.945ZM347.936 53.28V61.5H346.571V53.28H347.936ZM349.752 57.375C349.752 56.525 349.922 55.785 350.262 55.155C350.602 54.515 351.072 54.02 351.672 53.67C352.282 53.32 352.977 53.145 353.757 53.145C354.767 53.145 355.597 53.39 356.247 53.88C356.907 54.37 357.342 55.05 357.552 55.92H356.082C355.942 55.42 355.667 55.025 355.257 54.735C354.857 54.445 354.357 54.3 353.757 54.3C352.977 54.3 352.347 54.57 351.867 55.11C351.387 55.64 351.147 56.395 351.147 57.375C351.147 58.365 351.387 59.13 351.867 59.67C352.347 60.21 352.977 60.48 353.757 60.48C354.357 60.48 354.857 60.34 355.257 60.06C355.657 59.78 355.932 59.38 356.082 58.86H357.552C357.332 59.7 356.892 60.375 356.232 60.885C355.572 61.385 354.747 61.635 353.757 61.635C352.977 61.635 352.282 61.46 351.672 61.11C351.072 60.76 350.602 60.265 350.262 59.625C349.922 58.985 349.752 58.235 349.752 57.375ZM363.964 61.5L360.739 57.87V61.5H359.374V50.4H360.739V56.925L363.904 53.28H365.809L361.939 57.375L365.824 61.5H363.964ZM374.408 61.605C373.718 61.605 373.098 61.485 372.548 61.245C372.008 60.995 371.583 60.655 371.273 60.225C370.963 59.785 370.803 59.28 370.793 58.71H372.248C372.298 59.2 372.498 59.615 372.848 59.955C373.208 60.285 373.728 60.45 374.408 60.45C375.058 60.45 375.568 60.29 375.938 59.97C376.318 59.64 376.508 59.22 376.508 58.71C376.508 58.31 376.398 57.985 376.178 57.735C375.958 57.485 375.683 57.295 375.353 57.165C375.023 57.035 374.578 56.895 374.018 56.745C373.328 56.565 372.773 56.385 372.353 56.205C371.943 56.025 371.588 55.745 371.288 55.365C370.998 54.975 370.853 54.455 370.853 53.805C370.853 53.235 370.998 52.73 371.288 52.29C371.578 51.85 371.983 51.51 372.503 51.27C373.033 51.03 373.638 50.91 374.318 50.91C375.298 50.91 376.098 51.155 376.718 51.645C377.348 52.135 377.703 52.785 377.783 53.595H376.283C376.233 53.195 376.023 52.845 375.653 52.545C375.283 52.235 374.793 52.08 374.183 52.08C373.613 52.08 373.148 52.23 372.788 52.53C372.428 52.82 372.248 53.23 372.248 53.76C372.248 54.14 372.353 54.45 372.563 54.69C372.783 54.93 373.048 55.115 373.358 55.245C373.678 55.365 374.123 55.505 374.693 55.665C375.383 55.855 375.938 56.045 376.358 56.235C376.778 56.415 377.138 56.7 377.438 57.09C377.738 57.47 377.888 57.99 377.888 58.65C377.888 59.16 377.753 59.64 377.483 60.09C377.213 60.54 376.813 60.905 376.283 61.185C375.753 61.465 375.128 61.605 374.408 61.605ZM381.561 54.405V59.25C381.561 59.65 381.646 59.935 381.816 60.105C381.986 60.265 382.281 60.345 382.701 60.345H383.706V61.5H382.476C381.716 61.5 381.146 61.325 380.766 60.975C380.386 60.625 380.196 60.05 380.196 59.25V54.405H379.131V53.28H380.196V51.21H381.561V53.28H383.706V54.405H381.561ZM384.85 57.36C384.85 56.52 385.02 55.785 385.36 55.155C385.7 54.515 386.165 54.02 386.755 53.67C387.355 53.32 388.02 53.145 388.75 53.145C389.47 53.145 390.095 53.3 390.625 53.61C391.155 53.92 391.55 54.31 391.81 54.78V53.28H393.19V61.5H391.81V59.97C391.54 60.45 391.135 60.85 390.595 61.17C390.065 61.48 389.445 61.635 388.735 61.635C388.005 61.635 387.345 61.455 386.755 61.095C386.165 60.735 385.7 60.23 385.36 59.58C385.02 58.93 384.85 58.19 384.85 57.36ZM391.81 57.375C391.81 56.755 391.685 56.215 391.435 55.755C391.185 55.295 390.845 54.945 390.415 54.705C389.995 54.455 389.53 54.33 389.02 54.33C388.51 54.33 388.045 54.45 387.625 54.69C387.205 54.93 386.87 55.28 386.62 55.74C386.37 56.2 386.245 56.74 386.245 57.36C386.245 57.99 386.37 58.54 386.62 59.01C386.87 59.47 387.205 59.825 387.625 60.075C388.045 60.315 388.51 60.435 389.02 60.435C389.53 60.435 389.995 60.315 390.415 60.075C390.845 59.825 391.185 59.47 391.435 59.01C391.685 58.54 391.81 57.995 391.81 57.375ZM396.862 54.615C397.102 54.145 397.442 53.78 397.882 53.52C398.332 53.26 398.877 53.13 399.517 53.13V54.54H399.157C397.627 54.54 396.862 55.37 396.862 57.03V61.5H395.497V53.28H396.862V54.615ZM402.758 54.405V59.25C402.758 59.65 402.843 59.935 403.013 60.105C403.183 60.265 403.478 60.345 403.897 60.345H404.903V61.5H403.673C402.913 61.5 402.343 61.325 401.963 60.975C401.583 60.625 401.393 60.05 401.393 59.25V54.405H400.328V53.28H401.393V51.21H402.758V53.28H404.903V54.405H402.758ZM413.87 61.605C413.18 61.605 412.56 61.485 412.01 61.245C411.47 60.995 411.045 60.655 410.735 60.225C410.425 59.785 410.265 59.28 410.255 58.71H411.71C411.76 59.2 411.96 59.615 412.31 59.955C412.67 60.285 413.19 60.45 413.87 60.45C414.52 60.45 415.03 60.29 415.4 59.97C415.78 59.64 415.97 59.22 415.97 58.71C415.97 58.31 415.86 57.985 415.64 57.735C415.42 57.485 415.145 57.295 414.815 57.165C414.485 57.035 414.04 56.895 413.48 56.745C412.79 56.565 412.235 56.385 411.815 56.205C411.405 56.025 411.05 55.745 410.75 55.365C410.46 54.975 410.315 54.455 410.315 53.805C410.315 53.235 410.46 52.73 410.75 52.29C411.04 51.85 411.445 51.51 411.965 51.27C412.495 51.03 413.1 50.91 413.78 50.91C414.76 50.91 415.56 51.155 416.18 51.645C416.81 52.135 417.165 52.785 417.245 53.595H415.745C415.695 53.195 415.485 52.845 415.115 52.545C414.745 52.235 414.255 52.08 413.645 52.08C413.075 52.08 412.61 52.23 412.25 52.53C411.89 52.82 411.71 53.23 411.71 53.76C411.71 54.14 411.815 54.45 412.025 54.69C412.245 54.93 412.51 55.115 412.82 55.245C413.14 55.365 413.585 55.505 414.155 55.665C414.845 55.855 415.4 56.045 415.82 56.235C416.24 56.415 416.6 56.7 416.9 57.09C417.2 57.47 417.35 57.99 417.35 58.65C417.35 59.16 417.215 59.64 416.945 60.09C416.675 60.54 416.275 60.905 415.745 61.185C415.215 61.465 414.59 61.605 413.87 61.605ZM422.614 51.045C423.754 51.045 424.739 51.26 425.569 51.69C426.409 52.11 427.049 52.715 427.489 53.505C427.939 54.295 428.164 55.225 428.164 56.295C428.164 57.365 427.939 58.295 427.489 59.085C427.049 59.865 426.409 60.465 425.569 60.885C424.739 61.295 423.754 61.5 422.614 61.5H419.359V51.045H422.614ZM422.614 60.375C423.964 60.375 424.994 60.02 425.704 59.31C426.414 58.59 426.769 57.585 426.769 56.295C426.769 54.995 426.409 53.98 425.689 53.25C424.979 52.52 423.954 52.155 422.614 52.155H420.724V60.375H422.614ZM435.635 61.5L431.33 56.73V61.5H429.965V51.045H431.33V55.89L435.65 51.045H437.375L432.635 56.28L437.42 61.5H435.635ZM441.854 61.635C441.224 61.635 440.659 61.53 440.159 61.32C439.659 61.1 439.264 60.8 438.974 60.42C438.684 60.03 438.524 59.585 438.494 59.085H439.904C439.944 59.495 440.134 59.83 440.474 60.09C440.824 60.35 441.279 60.48 441.839 60.48C442.359 60.48 442.769 60.365 443.069 60.135C443.369 59.905 443.519 59.615 443.519 59.265C443.519 58.905 443.359 58.64 443.039 58.47C442.719 58.29 442.224 58.115 441.554 57.945C440.944 57.785 440.444 57.625 440.054 57.465C439.674 57.295 439.344 57.05 439.064 56.73C438.794 56.4 438.659 55.97 438.659 55.44C438.659 55.02 438.784 54.635 439.034 54.285C439.284 53.935 439.639 53.66 440.099 53.46C440.559 53.25 441.084 53.145 441.674 53.145C442.584 53.145 443.319 53.375 443.879 53.835C444.439 54.295 444.739 54.925 444.779 55.725H443.414C443.384 55.295 443.209 54.95 442.889 54.69C442.579 54.43 442.159 54.3 441.629 54.3C441.139 54.3 440.749 54.405 440.459 54.615C440.169 54.825 440.024 55.1 440.024 55.44C440.024 55.71 440.109 55.935 440.279 56.115C440.459 56.285 440.679 56.425 440.939 56.535C441.209 56.635 441.579 56.75 442.049 56.88C442.639 57.04 443.119 57.2 443.489 57.36C443.859 57.51 444.174 57.74 444.434 58.05C444.704 58.36 444.844 58.765 444.854 59.265C444.854 59.715 444.729 60.12 444.479 60.48C444.229 60.84 443.874 61.125 443.414 61.335C442.964 61.535 442.444 61.635 441.854 61.635Z" fill="white"/>
<path d="M290.43 97.57C290.43 98.15 290.23 98.6333 289.83 99.02C289.437 99.4 288.833 99.59 288.02 99.59H286.68V102.5H285.77V95.53H288.02C288.807 95.53 289.403 95.72 289.81 96.1C290.223 96.48 290.43 96.97 290.43 97.57ZM288.02 98.84C288.527 98.84 288.9 98.73 289.14 98.51C289.38 98.29 289.5 97.9767 289.5 97.57C289.5 96.71 289.007 96.28 288.02 96.28H286.68V98.84H288.02ZM292.471 97.91C292.631 97.5967 292.858 97.3533 293.151 97.18C293.451 97.0067 293.814 96.92 294.241 96.92V97.86H294.001C292.981 97.86 292.471 98.4133 292.471 99.52V102.5H291.561V97.02H292.471V97.91ZM297.681 102.59C297.168 102.59 296.701 102.473 296.281 102.24C295.868 102.007 295.541 101.677 295.301 101.25C295.068 100.817 294.951 100.317 294.951 99.75C294.951 99.19 295.071 98.6967 295.311 98.27C295.558 97.8367 295.891 97.5067 296.311 97.28C296.731 97.0467 297.201 96.93 297.721 96.93C298.241 96.93 298.711 97.0467 299.131 97.28C299.551 97.5067 299.881 97.8333 300.121 98.26C300.368 98.6867 300.491 99.1833 300.491 99.75C300.491 100.317 300.365 100.817 300.111 101.25C299.865 101.677 299.528 102.007 299.101 102.24C298.675 102.473 298.201 102.59 297.681 102.59ZM297.681 101.79C298.008 101.79 298.315 101.713 298.601 101.56C298.888 101.407 299.118 101.177 299.291 100.87C299.471 100.563 299.561 100.19 299.561 99.75C299.561 99.31 299.475 98.9367 299.301 98.63C299.128 98.3233 298.901 98.0967 298.621 97.95C298.341 97.7967 298.038 97.72 297.711 97.72C297.378 97.72 297.071 97.7967 296.791 97.95C296.518 98.0967 296.298 98.3233 296.131 98.63C295.965 98.9367 295.881 99.31 295.881 99.75C295.881 100.197 295.961 100.573 296.121 100.88C296.288 101.187 296.508 101.417 296.781 101.57C297.055 101.717 297.355 101.79 297.681 101.79ZM303.948 96.93C304.421 96.93 304.835 97.0333 305.188 97.24C305.548 97.4467 305.815 97.7067 305.988 98.02V97.02H306.908V102.62C306.908 103.12 306.801 103.563 306.588 103.95C306.375 104.343 306.068 104.65 305.668 104.87C305.275 105.09 304.815 105.2 304.288 105.2C303.568 105.2 302.968 105.03 302.488 104.69C302.008 104.35 301.725 103.887 301.638 103.3H302.538C302.638 103.633 302.845 103.9 303.158 104.1C303.471 104.307 303.848 104.41 304.288 104.41C304.788 104.41 305.195 104.253 305.508 103.94C305.828 103.627 305.988 103.187 305.988 102.62V101.47C305.808 101.79 305.541 102.057 305.188 102.27C304.835 102.483 304.421 102.59 303.948 102.59C303.461 102.59 303.018 102.47 302.618 102.23C302.225 101.99 301.915 101.653 301.688 101.22C301.461 100.787 301.348 100.293 301.348 99.74C301.348 99.18 301.461 98.69 301.688 98.27C301.915 97.8433 302.225 97.5133 302.618 97.28C303.018 97.0467 303.461 96.93 303.948 96.93ZM305.988 99.75C305.988 99.3367 305.905 98.9767 305.738 98.67C305.571 98.3633 305.345 98.13 305.058 97.97C304.778 97.8033 304.468 97.72 304.128 97.72C303.788 97.72 303.478 97.8 303.198 97.96C302.918 98.12 302.695 98.3533 302.528 98.66C302.361 98.9667 302.278 99.3267 302.278 99.74C302.278 100.16 302.361 100.527 302.528 100.84C302.695 101.147 302.918 101.383 303.198 101.55C303.478 101.71 303.788 101.79 304.128 101.79C304.468 101.79 304.778 101.71 305.058 101.55C305.345 101.383 305.571 101.147 305.738 100.84C305.905 100.527 305.988 100.163 305.988 99.75ZM309.356 97.91C309.516 97.5967 309.742 97.3533 310.036 97.18C310.336 97.0067 310.699 96.92 311.126 96.92V97.86H310.886C309.866 97.86 309.356 98.4133 309.356 99.52V102.5H308.446V97.02H309.356V97.91ZM311.836 99.74C311.836 99.18 311.95 98.69 312.176 98.27C312.403 97.8433 312.713 97.5133 313.106 97.28C313.506 97.0467 313.95 96.93 314.436 96.93C314.916 96.93 315.333 97.0333 315.686 97.24C316.04 97.4467 316.303 97.7067 316.476 98.02V97.02H317.396V102.5H316.476V101.48C316.296 101.8 316.026 102.067 315.666 102.28C315.313 102.487 314.9 102.59 314.426 102.59C313.94 102.59 313.5 102.47 313.106 102.23C312.713 101.99 312.403 101.653 312.176 101.22C311.95 100.787 311.836 100.293 311.836 99.74ZM316.476 99.75C316.476 99.3367 316.393 98.9767 316.226 98.67C316.06 98.3633 315.833 98.13 315.546 97.97C315.266 97.8033 314.956 97.72 314.616 97.72C314.276 97.72 313.966 97.8 313.686 97.96C313.406 98.12 313.183 98.3533 313.016 98.66C312.85 98.9667 312.766 99.3267 312.766 99.74C312.766 100.16 312.85 100.527 313.016 100.84C313.183 101.147 313.406 101.383 313.686 101.55C313.966 101.71 314.276 101.79 314.616 101.79C314.956 101.79 315.266 101.71 315.546 101.55C315.833 101.383 316.06 101.147 316.226 100.84C316.393 100.527 316.476 100.163 316.476 99.75ZM325.524 96.92C325.951 96.92 326.331 97.01 326.664 97.19C326.997 97.3633 327.261 97.6267 327.454 97.98C327.647 98.3333 327.744 98.7633 327.744 99.27V102.5H326.844V99.4C326.844 98.8533 326.707 98.4367 326.434 98.15C326.167 97.8567 325.804 97.71 325.344 97.71C324.871 97.71 324.494 97.8633 324.214 98.17C323.934 98.47 323.794 98.9067 323.794 99.48V102.5H322.894V99.4C322.894 98.8533 322.757 98.4367 322.484 98.15C322.217 97.8567 321.854 97.71 321.394 97.71C320.921 97.71 320.544 97.8633 320.264 98.17C319.984 98.47 319.844 98.9067 319.844 99.48V102.5H318.934V97.02H319.844V97.81C320.024 97.5233 320.264 97.3033 320.564 97.15C320.871 96.9967 321.207 96.92 321.574 96.92C322.034 96.92 322.441 97.0233 322.794 97.23C323.147 97.4367 323.411 97.74 323.584 98.14C323.737 97.7533 323.991 97.4533 324.344 97.24C324.697 97.0267 325.091 96.92 325.524 96.92ZM335.827 96.92C336.253 96.92 336.633 97.01 336.967 97.19C337.3 97.3633 337.563 97.6267 337.757 97.98C337.95 98.3333 338.047 98.7633 338.047 99.27V102.5H337.147V99.4C337.147 98.8533 337.01 98.4367 336.737 98.15C336.47 97.8567 336.107 97.71 335.647 97.71C335.173 97.71 334.797 97.8633 334.517 98.17C334.237 98.47 334.097 98.9067 334.097 99.48V102.5H333.197V99.4C333.197 98.8533 333.06 98.4367 332.787 98.15C332.52 97.8567 332.157 97.71 331.697 97.71C331.223 97.71 330.847 97.8633 330.567 98.17C330.287 98.47 330.147 98.9067 330.147 99.48V102.5H329.237V97.02H330.147V97.81C330.327 97.5233 330.567 97.3033 330.867 97.15C331.173 96.9967 331.51 96.92 331.877 96.92C332.337 96.92 332.743 97.0233 333.097 97.23C333.45 97.4367 333.713 97.74 333.887 98.14C334.04 97.7533 334.293 97.4533 334.647 97.24C335 97.0267 335.393 96.92 335.827 96.92ZM340.01 96.13C339.836 96.13 339.69 96.07 339.57 95.95C339.45 95.83 339.39 95.6833 339.39 95.51C339.39 95.3367 339.45 95.19 339.57 95.07C339.69 94.95 339.836 94.89 340.01 94.89C340.176 94.89 340.316 94.95 340.43 95.07C340.55 95.19 340.61 95.3367 340.61 95.51C340.61 95.6833 340.55 95.83 340.43 95.95C340.316 96.07 340.176 96.13 340.01 96.13ZM340.45 97.02V102.5H339.54V97.02H340.45ZM344.67 96.92C345.337 96.92 345.877 97.1233 346.29 97.53C346.704 97.93 346.91 98.51 346.91 99.27V102.5H346.01V99.4C346.01 98.8533 345.874 98.4367 345.6 98.15C345.327 97.8567 344.954 97.71 344.48 97.71C344 97.71 343.617 97.86 343.33 98.16C343.05 98.46 342.91 98.8967 342.91 99.47V102.5H342V97.02H342.91V97.8C343.09 97.52 343.334 97.3033 343.64 97.15C343.954 96.9967 344.297 96.92 344.67 96.92ZM350.657 96.93C351.13 96.93 351.544 97.0333 351.897 97.24C352.257 97.4467 352.524 97.7067 352.697 98.02V97.02H353.617V102.62C353.617 103.12 353.51 103.563 353.297 103.95C353.084 104.343 352.777 104.65 352.377 104.87C351.984 105.09 351.524 105.2 350.997 105.2C350.277 105.2 349.677 105.03 349.197 104.69C348.717 104.35 348.434 103.887 348.347 103.3H349.247C349.347 103.633 349.554 103.9 349.867 104.1C350.18 104.307 350.557 104.41 350.997 104.41C351.497 104.41 351.904 104.253 352.217 103.94C352.537 103.627 352.697 103.187 352.697 102.62V101.47C352.517 101.79 352.25 102.057 351.897 102.27C351.544 102.483 351.13 102.59 350.657 102.59C350.17 102.59 349.727 102.47 349.327 102.23C348.934 101.99 348.624 101.653 348.397 101.22C348.17 100.787 348.057 100.293 348.057 99.74C348.057 99.18 348.17 98.69 348.397 98.27C348.624 97.8433 348.934 97.5133 349.327 97.28C349.727 97.0467 350.17 96.93 350.657 96.93ZM352.697 99.75C352.697 99.3367 352.614 98.9767 352.447 98.67C352.28 98.3633 352.054 98.13 351.767 97.97C351.487 97.8033 351.177 97.72 350.837 97.72C350.497 97.72 350.187 97.8 349.907 97.96C349.627 98.12 349.404 98.3533 349.237 98.66C349.07 98.9667 348.987 99.3267 348.987 99.74C348.987 100.16 349.07 100.527 349.237 100.84C349.404 101.147 349.627 101.383 349.907 101.55C350.187 101.71 350.497 101.79 350.837 101.79C351.177 101.79 351.487 101.71 351.767 101.55C352.054 101.383 352.28 101.147 352.447 100.84C352.614 100.527 352.697 100.163 352.697 99.75ZM358.731 101.76H361.171V102.5H357.821V95.53H358.731V101.76ZM361.797 99.74C361.797 99.18 361.911 98.69 362.137 98.27C362.364 97.8433 362.674 97.5133 363.067 97.28C363.467 97.0467 363.911 96.93 364.397 96.93C364.877 96.93 365.294 97.0333 365.647 97.24C366.001 97.4467 366.264 97.7067 366.437 98.02V97.02H367.357V102.5H366.437V101.48C366.257 101.8 365.987 102.067 365.627 102.28C365.274 102.487 364.861 102.59 364.387 102.59C363.901 102.59 363.461 102.47 363.067 102.23C362.674 101.99 362.364 101.653 362.137 101.22C361.911 100.787 361.797 100.293 361.797 99.74ZM366.437 99.75C366.437 99.3367 366.354 98.9767 366.187 98.67C366.021 98.3633 365.794 98.13 365.507 97.97C365.227 97.8033 364.917 97.72 364.577 97.72C364.237 97.72 363.927 97.8 363.647 97.96C363.367 98.12 363.144 98.3533 362.977 98.66C362.811 98.9667 362.727 99.3267 362.727 99.74C362.727 100.16 362.811 100.527 362.977 100.84C363.144 101.147 363.367 101.383 363.647 101.55C363.927 101.71 364.237 101.79 364.577 101.79C364.917 101.79 365.227 101.71 365.507 101.55C365.794 101.383 366.021 101.147 366.187 100.84C366.354 100.527 366.437 100.163 366.437 99.75ZM371.565 96.92C372.232 96.92 372.772 97.1233 373.185 97.53C373.598 97.93 373.805 98.51 373.805 99.27V102.5H372.905V99.4C372.905 98.8533 372.768 98.4367 372.495 98.15C372.222 97.8567 371.848 97.71 371.375 97.71C370.895 97.71 370.512 97.86 370.225 98.16C369.945 98.46 369.805 98.8967 369.805 99.47V102.5H368.895V97.02H369.805V97.8C369.985 97.52 370.228 97.3033 370.535 97.15C370.848 96.9967 371.192 96.92 371.565 96.92ZM377.551 96.93C378.025 96.93 378.438 97.0333 378.791 97.24C379.151 97.4467 379.418 97.7067 379.591 98.02V97.02H380.511V102.62C380.511 103.12 380.405 103.563 380.191 103.95C379.978 104.343 379.671 104.65 379.271 104.87C378.878 105.09 378.418 105.2 377.891 105.2C377.171 105.2 376.571 105.03 376.091 104.69C375.611 104.35 375.328 103.887 375.241 103.3H376.141C376.241 103.633 376.448 103.9 376.761 104.1C377.075 104.307 377.451 104.41 377.891 104.41C378.391 104.41 378.798 104.253 379.111 103.94C379.431 103.627 379.591 103.187 379.591 102.62V101.47C379.411 101.79 379.145 102.057 378.791 102.27C378.438 102.483 378.025 102.59 377.551 102.59C377.065 102.59 376.621 102.47 376.221 102.23C375.828 101.99 375.518 101.653 375.291 101.22C375.065 100.787 374.951 100.293 374.951 99.74C374.951 99.18 375.065 98.69 375.291 98.27C375.518 97.8433 375.828 97.5133 376.221 97.28C376.621 97.0467 377.065 96.93 377.551 96.93ZM379.591 99.75C379.591 99.3367 379.508 98.9767 379.341 98.67C379.175 98.3633 378.948 98.13 378.661 97.97C378.381 97.8033 378.071 97.72 377.731 97.72C377.391 97.72 377.081 97.8 376.801 97.96C376.521 98.12 376.298 98.3533 376.131 98.66C375.965 98.9667 375.881 99.3267 375.881 99.74C375.881 100.16 375.965 100.527 376.131 100.84C376.298 101.147 376.521 101.383 376.801 101.55C377.081 101.71 377.391 101.79 377.731 101.79C378.071 101.79 378.381 101.71 378.661 101.55C378.948 101.383 379.175 101.147 379.341 100.84C379.508 100.527 379.591 100.163 379.591 99.75ZM386.909 97.02V102.5H385.999V101.69C385.826 101.97 385.583 102.19 385.269 102.35C384.963 102.503 384.623 102.58 384.249 102.58C383.823 102.58 383.439 102.493 383.099 102.32C382.759 102.14 382.489 101.873 382.289 101.52C382.096 101.167 381.999 100.737 381.999 100.23V97.02H382.899V100.11C382.899 100.65 383.036 101.067 383.309 101.36C383.583 101.647 383.956 101.79 384.429 101.79C384.916 101.79 385.299 101.64 385.579 101.34C385.859 101.04 385.999 100.603 385.999 100.03V97.02H386.909ZM388.106 99.74C388.106 99.18 388.219 98.69 388.446 98.27C388.672 97.8433 388.982 97.5133 389.376 97.28C389.776 97.0467 390.219 96.93 390.706 96.93C391.186 96.93 391.602 97.0333 391.956 97.24C392.309 97.4467 392.572 97.7067 392.746 98.02V97.02H393.666V102.5H392.746V101.48C392.566 101.8 392.296 102.067 391.936 102.28C391.582 102.487 391.169 102.59 390.696 102.59C390.209 102.59 389.769 102.47 389.376 102.23C388.982 101.99 388.672 101.653 388.446 101.22C388.219 100.787 388.106 100.293 388.106 99.74ZM392.746 99.75C392.746 99.3367 392.662 98.9767 392.496 98.67C392.329 98.3633 392.102 98.13 391.816 97.97C391.536 97.8033 391.226 97.72 390.886 97.72C390.546 97.72 390.236 97.8 389.956 97.96C389.676 98.12 389.452 98.3533 389.286 98.66C389.119 98.9667 389.036 99.3267 389.036 99.74C389.036 100.16 389.119 100.527 389.286 100.84C389.452 101.147 389.676 101.383 389.956 101.55C390.236 101.71 390.546 101.79 390.886 101.79C391.226 101.79 391.536 101.71 391.816 101.55C392.102 101.383 392.329 101.147 392.496 100.84C392.662 100.527 392.746 100.163 392.746 99.75ZM397.464 96.93C397.937 96.93 398.35 97.0333 398.704 97.24C399.064 97.4467 399.33 97.7067 399.504 98.02V97.02H400.424V102.62C400.424 103.12 400.317 103.563 400.104 103.95C399.89 104.343 399.584 104.65 399.184 104.87C398.79 105.09 398.33 105.2 397.804 105.2C397.084 105.2 396.484 105.03 396.004 104.69C395.524 104.35 395.24 103.887 395.154 103.3H396.054C396.154 103.633 396.36 103.9 396.674 104.1C396.987 104.307 397.364 104.41 397.804 104.41C398.304 104.41 398.71 104.253 399.024 103.94C399.344 103.627 399.504 103.187 399.504 102.62V101.47C399.324 101.79 399.057 102.057 398.704 102.27C398.35 102.483 397.937 102.59 397.464 102.59C396.977 102.59 396.534 102.47 396.134 102.23C395.74 101.99 395.43 101.653 395.204 101.22C394.977 100.787 394.864 100.293 394.864 99.74C394.864 99.18 394.977 98.69 395.204 98.27C395.43 97.8433 395.74 97.5133 396.134 97.28C396.534 97.0467 396.977 96.93 397.464 96.93ZM399.504 99.75C399.504 99.3367 399.42 98.9767 399.254 98.67C399.087 98.3633 398.86 98.13 398.574 97.97C398.294 97.8033 397.984 97.72 397.644 97.72C397.304 97.72 396.994 97.8 396.714 97.96C396.434 98.12 396.21 98.3533 396.044 98.66C395.877 98.9667 395.794 99.3267 395.794 99.74C395.794 100.16 395.877 100.527 396.044 100.84C396.21 101.147 396.434 101.383 396.714 101.55C396.994 101.71 397.304 101.79 397.644 101.79C397.984 101.79 398.294 101.71 398.574 101.55C398.86 101.383 399.087 101.147 399.254 100.84C399.42 100.527 399.504 100.163 399.504 99.75ZM406.961 99.55C406.961 99.7233 406.951 99.9067 406.931 100.1H402.551C402.585 100.64 402.768 101.063 403.101 101.37C403.441 101.67 403.851 101.82 404.331 101.82C404.725 101.82 405.051 101.73 405.311 101.55C405.578 101.363 405.765 101.117 405.871 100.81H406.851C406.705 101.337 406.411 101.767 405.971 102.1C405.531 102.427 404.985 102.59 404.331 102.59C403.811 102.59 403.345 102.473 402.931 102.24C402.525 102.007 402.205 101.677 401.971 101.25C401.738 100.817 401.621 100.317 401.621 99.75C401.621 99.1833 401.735 98.6867 401.961 98.26C402.188 97.8333 402.505 97.5067 402.911 97.28C403.325 97.0467 403.798 96.93 404.331 96.93C404.851 96.93 405.311 97.0433 405.711 97.27C406.111 97.4967 406.418 97.81 406.631 98.21C406.851 98.6033 406.961 99.05 406.961 99.55ZM406.021 99.36C406.021 99.0133 405.945 98.7167 405.791 98.47C405.638 98.2167 405.428 98.0267 405.161 97.9C404.901 97.7667 404.611 97.7 404.291 97.7C403.831 97.7 403.438 97.8467 403.111 98.14C402.791 98.4333 402.608 98.84 402.561 99.36H406.021ZM410.103 102.59C409.683 102.59 409.306 102.52 408.973 102.38C408.639 102.233 408.376 102.033 408.183 101.78C407.989 101.52 407.883 101.223 407.863 100.89H408.803C408.829 101.163 408.956 101.387 409.183 101.56C409.416 101.733 409.719 101.82 410.093 101.82C410.439 101.82 410.713 101.743 410.913 101.59C411.113 101.437 411.213 101.243 411.213 101.01C411.213 100.77 411.106 100.593 410.893 100.48C410.679 100.36 410.349 100.243 409.903 100.13C409.496 100.023 409.163 99.9167 408.903 99.81C408.649 99.6967 408.429 99.5333 408.243 99.32C408.063 99.1 407.973 98.8133 407.973 98.46C407.973 98.18 408.056 97.9233 408.223 97.69C408.389 97.4567 408.626 97.2733 408.933 97.14C409.239 97 409.589 96.93 409.983 96.93C410.589 96.93 411.079 97.0833 411.453 97.39C411.826 97.6967 412.026 98.1167 412.053 98.65H411.143C411.123 98.3633 411.006 98.1333 410.793 97.96C410.586 97.7867 410.306 97.7 409.953 97.7C409.626 97.7 409.366 97.77 409.173 97.91C408.979 98.05 408.883 98.2333 408.883 98.46C408.883 98.64 408.939 98.79 409.053 98.91C409.173 99.0233 409.319 99.1167 409.493 99.19C409.673 99.2567 409.919 99.3333 410.233 99.42C410.626 99.5267 410.946 99.6333 411.193 99.74C411.439 99.84 411.649 99.9933 411.823 100.2C412.003 100.407 412.096 100.677 412.103 101.01C412.103 101.31 412.019 101.58 411.853 101.82C411.686 102.06 411.449 102.25 411.143 102.39C410.843 102.523 410.496 102.59 410.103 102.59Z" fill="white"/>
<path d="M283.494 237.901C283.494 234.549 286.21 231.833 289.562 231.833H569.714C573.065 231.833 575.782 234.549 575.782 237.901V258.129C575.782 261.48 573.065 264.197 569.714 264.197H289.562C286.21 264.197 283.494 261.48 283.494 258.129V237.901Z" fill="#222222"/>
<path d="M285.98 222.57C285.52 222.57 285.107 222.49 284.74 222.33C284.38 222.163 284.097 221.937 283.89 221.65C283.683 221.357 283.577 221.02 283.57 220.64H284.54C284.573 220.967 284.707 221.243 284.94 221.47C285.18 221.69 285.527 221.8 285.98 221.8C286.413 221.8 286.753 221.693 287 221.48C287.253 221.26 287.38 220.98 287.38 220.64C287.38 220.373 287.307 220.157 287.16 219.99C287.013 219.823 286.83 219.697 286.61 219.61C286.39 219.523 286.093 219.43 285.72 219.33C285.26 219.21 284.89 219.09 284.61 218.97C284.337 218.85 284.1 218.663 283.9 218.41C283.707 218.15 283.61 217.803 283.61 217.37C283.61 216.99 283.707 216.653 283.9 216.36C284.093 216.067 284.363 215.84 284.71 215.68C285.063 215.52 285.467 215.44 285.92 215.44C286.573 215.44 287.107 215.603 287.52 215.93C287.94 216.257 288.177 216.69 288.23 217.23H287.23C287.197 216.963 287.057 216.73 286.81 216.53C286.563 216.323 286.237 216.22 285.83 216.22C285.45 216.22 285.14 216.32 284.9 216.52C284.66 216.713 284.54 216.987 284.54 217.34C284.54 217.593 284.61 217.8 284.75 217.96C284.897 218.12 285.073 218.243 285.28 218.33C285.493 218.41 285.79 218.503 286.17 218.61C286.63 218.737 287 218.863 287.28 218.99C287.56 219.11 287.8 219.3 288 219.56C288.2 219.813 288.3 220.16 288.3 220.6C288.3 220.94 288.21 221.26 288.03 221.56C287.85 221.86 287.583 222.103 287.23 222.29C286.877 222.477 286.46 222.57 285.98 222.57ZM289.299 219.74C289.299 219.18 289.412 218.69 289.639 218.27C289.866 217.843 290.176 217.513 290.569 217.28C290.969 217.047 291.412 216.93 291.899 216.93C292.379 216.93 292.796 217.033 293.149 217.24C293.502 217.447 293.766 217.707 293.939 218.02V217.02H294.859V222.5H293.939V221.48C293.759 221.8 293.489 222.067 293.129 222.28C292.776 222.487 292.362 222.59 291.889 222.59C291.402 222.59 290.962 222.47 290.569 222.23C290.176 221.99 289.866 221.653 289.639 221.22C289.412 220.787 289.299 220.293 289.299 219.74ZM293.939 219.75C293.939 219.337 293.856 218.977 293.689 218.67C293.522 218.363 293.296 218.13 293.009 217.97C292.729 217.803 292.419 217.72 292.079 217.72C291.739 217.72 291.429 217.8 291.149 217.96C290.869 218.12 290.646 218.353 290.479 218.66C290.312 218.967 290.229 219.327 290.229 219.74C290.229 220.16 290.312 220.527 290.479 220.84C290.646 221.147 290.869 221.383 291.149 221.55C291.429 221.71 291.739 221.79 292.079 221.79C292.419 221.79 292.729 221.71 293.009 221.55C293.296 221.383 293.522 221.147 293.689 220.84C293.856 220.527 293.939 220.163 293.939 219.75ZM299.067 216.92C299.734 216.92 300.274 217.123 300.687 217.53C301.1 217.93 301.307 218.51 301.307 219.27V222.5H300.407V219.4C300.407 218.853 300.27 218.437 299.997 218.15C299.724 217.857 299.35 217.71 298.877 217.71C298.397 217.71 298.014 217.86 297.727 218.16C297.447 218.46 297.307 218.897 297.307 219.47V222.5H296.397V217.02H297.307V217.8C297.487 217.52 297.73 217.303 298.037 217.15C298.35 216.997 298.694 216.92 299.067 216.92ZM302.453 219.74C302.453 219.18 302.567 218.69 302.793 218.27C303.02 217.843 303.33 217.513 303.723 217.28C304.123 217.047 304.57 216.93 305.063 216.93C305.49 216.93 305.887 217.03 306.253 217.23C306.62 217.423 306.9 217.68 307.093 218V215.1H308.013V222.5H307.093V221.47C306.913 221.797 306.647 222.067 306.293 222.28C305.94 222.487 305.527 222.59 305.053 222.59C304.567 222.59 304.123 222.47 303.723 222.23C303.33 221.99 303.02 221.653 302.793 221.22C302.567 220.787 302.453 220.293 302.453 219.74ZM307.093 219.75C307.093 219.337 307.01 218.977 306.843 218.67C306.677 218.363 306.45 218.13 306.163 217.97C305.883 217.803 305.573 217.72 305.233 217.72C304.893 217.72 304.583 217.8 304.303 217.96C304.023 218.12 303.8 218.353 303.633 218.66C303.467 218.967 303.383 219.327 303.383 219.74C303.383 220.16 303.467 220.527 303.633 220.84C303.8 221.147 304.023 221.383 304.303 221.55C304.583 221.71 304.893 221.79 305.233 221.79C305.573 221.79 305.883 221.71 306.163 221.55C306.45 221.383 306.677 221.147 306.843 220.84C307.01 220.527 307.093 220.163 307.093 219.75ZM310.461 218.04C310.648 217.713 310.921 217.447 311.281 217.24C311.641 217.033 312.051 216.93 312.511 216.93C313.005 216.93 313.448 217.047 313.841 217.28C314.235 217.513 314.545 217.843 314.771 218.27C314.998 218.69 315.111 219.18 315.111 219.74C315.111 220.293 314.998 220.787 314.771 221.22C314.545 221.653 314.231 221.99 313.831 222.23C313.438 222.47 312.998 222.59 312.511 222.59C312.038 222.59 311.621 222.487 311.261 222.28C310.908 222.073 310.641 221.81 310.461 221.49V222.5H309.551V215.1H310.461V218.04ZM314.181 219.74C314.181 219.327 314.098 218.967 313.931 218.66C313.765 218.353 313.538 218.12 313.251 217.96C312.971 217.8 312.661 217.72 312.321 217.72C311.988 217.72 311.678 217.803 311.391 217.97C311.111 218.13 310.885 218.367 310.711 218.68C310.545 218.987 310.461 219.343 310.461 219.75C310.461 220.163 310.545 220.527 310.711 220.84C310.885 221.147 311.111 221.383 311.391 221.55C311.678 221.71 311.988 221.79 312.321 221.79C312.661 221.79 312.971 221.71 313.251 221.55C313.538 221.383 313.765 221.147 313.931 220.84C314.098 220.527 314.181 220.16 314.181 219.74ZM318.699 222.59C318.186 222.59 317.719 222.473 317.299 222.24C316.886 222.007 316.559 221.677 316.319 221.25C316.086 220.817 315.969 220.317 315.969 219.75C315.969 219.19 316.089 218.697 316.329 218.27C316.576 217.837 316.909 217.507 317.329 217.28C317.749 217.047 318.219 216.93 318.739 216.93C319.259 216.93 319.729 217.047 320.149 217.28C320.569 217.507 320.899 217.833 321.139 218.26C321.386 218.687 321.509 219.183 321.509 219.75C321.509 220.317 321.382 220.817 321.129 221.25C320.882 221.677 320.546 222.007 320.119 222.24C319.692 222.473 319.219 222.59 318.699 222.59ZM318.699 221.79C319.026 221.79 319.332 221.713 319.619 221.56C319.906 221.407 320.136 221.177 320.309 220.87C320.489 220.563 320.579 220.19 320.579 219.75C320.579 219.31 320.492 218.937 320.319 218.63C320.146 218.323 319.919 218.097 319.639 217.95C319.359 217.797 319.056 217.72 318.729 217.72C318.396 217.72 318.089 217.797 317.809 217.95C317.536 218.097 317.316 218.323 317.149 218.63C316.982 218.937 316.899 219.31 316.899 219.75C316.899 220.197 316.979 220.573 317.139 220.88C317.306 221.187 317.526 221.417 317.799 221.57C318.072 221.717 318.372 221.79 318.699 221.79ZM325.566 222.5L324.266 220.46L323.016 222.5H322.066L323.836 219.78L322.066 217.02H323.096L324.396 219.05L325.636 217.02H326.586L324.826 219.73L326.596 222.5H325.566ZM331.067 216.27V218.6H333.607V219.35H331.067V221.75H333.907V222.5H330.157V215.52H333.907V216.27H331.067ZM337.954 216.92C338.62 216.92 339.16 217.123 339.574 217.53C339.987 217.93 340.194 218.51 340.194 219.27V222.5H339.294V219.4C339.294 218.853 339.157 218.437 338.884 218.15C338.61 217.857 338.237 217.71 337.764 217.71C337.284 217.71 336.9 217.86 336.614 218.16C336.334 218.46 336.194 218.897 336.194 219.47V222.5H335.284V217.02H336.194V217.8C336.374 217.52 336.617 217.303 336.924 217.15C337.237 216.997 337.58 216.92 337.954 216.92ZM343.72 221.66L345.42 217.02H346.39L344.24 222.5H343.18L341.03 217.02H342.01L343.72 221.66ZM347.756 216.13C347.582 216.13 347.436 216.07 347.316 215.95C347.196 215.83 347.136 215.683 347.136 215.51C347.136 215.337 347.196 215.19 347.316 215.07C347.436 214.95 347.582 214.89 347.756 214.89C347.922 214.89 348.062 214.95 348.176 215.07C348.296 215.19 348.356 215.337 348.356 215.51C348.356 215.683 348.296 215.83 348.176 215.95C348.062 216.07 347.922 216.13 347.756 216.13ZM348.196 217.02V222.5H347.286V217.02H348.196ZM350.657 217.91C350.817 217.597 351.043 217.353 351.337 217.18C351.637 217.007 352 216.92 352.427 216.92V217.86H352.187C351.167 217.86 350.657 218.413 350.657 219.52V222.5H349.747V217.02H350.657V217.91ZM355.867 222.59C355.354 222.59 354.887 222.473 354.467 222.24C354.054 222.007 353.727 221.677 353.487 221.25C353.254 220.817 353.137 220.317 353.137 219.75C353.137 219.19 353.257 218.697 353.497 218.27C353.744 217.837 354.077 217.507 354.497 217.28C354.917 217.047 355.387 216.93 355.907 216.93C356.427 216.93 356.897 217.047 357.317 217.28C357.737 217.507 358.067 217.833 358.307 218.26C358.554 218.687 358.677 219.183 358.677 219.75C358.677 220.317 358.55 220.817 358.297 221.25C358.05 221.677 357.714 222.007 357.287 222.24C356.86 222.473 356.387 222.59 355.867 222.59ZM355.867 221.79C356.194 221.79 356.5 221.713 356.787 221.56C357.074 221.407 357.304 221.177 357.477 220.87C357.657 220.563 357.747 220.19 357.747 219.75C357.747 219.31 357.66 218.937 357.487 218.63C357.314 218.323 357.087 218.097 356.807 217.95C356.527 217.797 356.224 217.72 355.897 217.72C355.564 217.72 355.257 217.797 354.977 217.95C354.704 218.097 354.484 218.323 354.317 218.63C354.15 218.937 354.067 219.31 354.067 219.75C354.067 220.197 354.147 220.573 354.307 220.88C354.474 221.187 354.694 221.417 354.967 221.57C355.24 221.717 355.54 221.79 355.867 221.79ZM362.544 216.92C363.21 216.92 363.75 217.123 364.164 217.53C364.577 217.93 364.784 218.51 364.784 219.27V222.5H363.884V219.4C363.884 218.853 363.747 218.437 363.474 218.15C363.2 217.857 362.827 217.71 362.354 217.71C361.874 217.71 361.49 217.86 361.204 218.16C360.924 218.46 360.784 218.897 360.784 219.47V222.5H359.874V217.02H360.784V217.8C360.964 217.52 361.207 217.303 361.514 217.15C361.827 216.997 362.17 216.92 362.544 216.92ZM372.86 216.92C373.287 216.92 373.667 217.01 374 217.19C374.333 217.363 374.597 217.627 374.79 217.98C374.983 218.333 375.08 218.763 375.08 219.27V222.5H374.18V219.4C374.18 218.853 374.043 218.437 373.77 218.15C373.503 217.857 373.14 217.71 372.68 217.71C372.207 217.71 371.83 217.863 371.55 218.17C371.27 218.47 371.13 218.907 371.13 219.48V222.5H370.23V219.4C370.23 218.853 370.093 218.437 369.82 218.15C369.553 217.857 369.19 217.71 368.73 217.71C368.257 217.71 367.88 217.863 367.6 218.17C367.32 218.47 367.18 218.907 367.18 219.48V222.5H366.27V217.02H367.18V217.81C367.36 217.523 367.6 217.303 367.9 217.15C368.207 216.997 368.543 216.92 368.91 216.92C369.37 216.92 369.777 217.023 370.13 217.23C370.483 217.437 370.747 217.74 370.92 218.14C371.073 217.753 371.327 217.453 371.68 217.24C372.033 217.027 372.427 216.92 372.86 216.92ZM381.573 219.55C381.573 219.723 381.563 219.907 381.543 220.1H377.163C377.196 220.64 377.379 221.063 377.713 221.37C378.053 221.67 378.463 221.82 378.943 221.82C379.336 221.82 379.663 221.73 379.923 221.55C380.189 221.363 380.376 221.117 380.483 220.81H381.463C381.316 221.337 381.023 221.767 380.583 222.1C380.143 222.427 379.596 222.59 378.943 222.59C378.423 222.59 377.956 222.473 377.543 222.24C377.136 222.007 376.816 221.677 376.583 221.25C376.349 220.817 376.233 220.317 376.233 219.75C376.233 219.183 376.346 218.687 376.573 218.26C376.799 217.833 377.116 217.507 377.523 217.28C377.936 217.047 378.409 216.93 378.943 216.93C379.463 216.93 379.923 217.043 380.323 217.27C380.723 217.497 381.029 217.81 381.243 218.21C381.463 218.603 381.573 219.05 381.573 219.55ZM380.633 219.36C380.633 219.013 380.556 218.717 380.403 218.47C380.249 218.217 380.039 218.027 379.773 217.9C379.513 217.767 379.223 217.7 378.903 217.7C378.443 217.7 378.049 217.847 377.723 218.14C377.403 218.433 377.219 218.84 377.173 219.36H380.633ZM385.444 216.92C386.111 216.92 386.651 217.123 387.064 217.53C387.477 217.93 387.684 218.51 387.684 219.27V222.5H386.784V219.4C386.784 218.853 386.647 218.437 386.374 218.15C386.101 217.857 385.727 217.71 385.254 217.71C384.774 217.71 384.391 217.86 384.104 218.16C383.824 218.46 383.684 218.897 383.684 219.47V222.5H382.774V217.02H383.684V217.8C383.864 217.52 384.107 217.303 384.414 217.15C384.727 216.997 385.071 216.92 385.444 216.92ZM390.28 217.77V221C390.28 221.267 390.337 221.457 390.45 221.57C390.564 221.677 390.76 221.73 391.04 221.73H391.71V222.5H390.89C390.384 222.5 390.004 222.383 389.75 222.15C389.497 221.917 389.37 221.533 389.37 221V217.77H388.66V217.02H389.37V215.64H390.28V217.02H391.71V217.77H390.28Z" fill="white"/>
<path d="M293.68 245.27V247.6H296.22V248.35H293.68V250.75H296.52V251.5H292.77V244.52H296.52V245.27H293.68ZM300.567 245.92C301.234 245.92 301.774 246.123 302.187 246.53C302.6 246.93 302.807 247.51 302.807 248.27V251.5H301.907V248.4C301.907 247.853 301.77 247.437 301.497 247.15C301.224 246.857 300.85 246.71 300.377 246.71C299.897 246.71 299.514 246.86 299.227 247.16C298.947 247.46 298.807 247.897 298.807 248.47V251.5H297.897V246.02H298.807V246.8C298.987 246.52 299.23 246.303 299.537 246.15C299.85 245.997 300.194 245.92 300.567 245.92ZM306.333 250.66L308.033 246.02H309.003L306.853 251.5H305.793L303.643 246.02H304.623L306.333 250.66ZM310.369 245.13C310.196 245.13 310.049 245.07 309.929 244.95C309.809 244.83 309.749 244.683 309.749 244.51C309.749 244.337 309.809 244.19 309.929 244.07C310.049 243.95 310.196 243.89 310.369 243.89C310.536 243.89 310.676 243.95 310.789 244.07C310.909 244.19 310.969 244.337 310.969 244.51C310.969 244.683 310.909 244.83 310.789 244.95C310.676 245.07 310.536 245.13 310.369 245.13ZM310.809 246.02V251.5H309.899V246.02H310.809ZM313.27 246.91C313.43 246.597 313.657 246.353 313.95 246.18C314.25 246.007 314.613 245.92 315.04 245.92V246.86H314.8C313.78 246.86 313.27 247.413 313.27 248.52V251.5H312.36V246.02H313.27V246.91ZM318.48 251.59C317.967 251.59 317.5 251.473 317.08 251.24C316.667 251.007 316.34 250.677 316.1 250.25C315.867 249.817 315.75 249.317 315.75 248.75C315.75 248.19 315.87 247.697 316.11 247.27C316.357 246.837 316.69 246.507 317.11 246.28C317.53 246.047 318 245.93 318.52 245.93C319.04 245.93 319.51 246.047 319.93 246.28C320.35 246.507 320.68 246.833 320.92 247.26C321.167 247.687 321.29 248.183 321.29 248.75C321.29 249.317 321.164 249.817 320.91 250.25C320.664 250.677 320.327 251.007 319.9 251.24C319.474 251.473 319 251.59 318.48 251.59ZM318.48 250.79C318.807 250.79 319.114 250.713 319.4 250.56C319.687 250.407 319.917 250.177 320.09 249.87C320.27 249.563 320.36 249.19 320.36 248.75C320.36 248.31 320.274 247.937 320.1 247.63C319.927 247.323 319.7 247.097 319.42 246.95C319.14 246.797 318.837 246.72 318.51 246.72C318.177 246.72 317.87 246.797 317.59 246.95C317.317 247.097 317.097 247.323 316.93 247.63C316.764 247.937 316.68 248.31 316.68 248.75C316.68 249.197 316.76 249.573 316.92 249.88C317.087 250.187 317.307 250.417 317.58 250.57C317.854 250.717 318.154 250.79 318.48 250.79ZM325.157 245.92C325.823 245.92 326.363 246.123 326.777 246.53C327.19 246.93 327.397 247.51 327.397 248.27V251.5H326.497V248.4C326.497 247.853 326.36 247.437 326.087 247.15C325.813 246.857 325.44 246.71 324.967 246.71C324.487 246.71 324.103 246.86 323.817 247.16C323.537 247.46 323.397 247.897 323.397 248.47V251.5H322.487V246.02H323.397V246.8C323.577 246.52 323.82 246.303 324.127 246.15C324.44 245.997 324.783 245.92 325.157 245.92ZM335.473 245.92C335.9 245.92 336.28 246.01 336.613 246.19C336.947 246.363 337.21 246.627 337.403 246.98C337.597 247.333 337.693 247.763 337.693 248.27V251.5H336.793V248.4C336.793 247.853 336.657 247.437 336.383 247.15C336.117 246.857 335.753 246.71 335.293 246.71C334.82 246.71 334.443 246.863 334.163 247.17C333.883 247.47 333.743 247.907 333.743 248.48V251.5H332.843V248.4C332.843 247.853 332.707 247.437 332.433 247.15C332.167 246.857 331.803 246.71 331.343 246.71C330.87 246.71 330.493 246.863 330.213 247.17C329.933 247.47 329.793 247.907 329.793 248.48V251.5H328.883V246.02H329.793V246.81C329.973 246.523 330.213 246.303 330.513 246.15C330.82 245.997 331.157 245.92 331.523 245.92C331.983 245.92 332.39 246.023 332.743 246.23C333.097 246.437 333.36 246.74 333.533 247.14C333.687 246.753 333.94 246.453 334.293 246.24C334.647 246.027 335.04 245.92 335.473 245.92ZM344.186 248.55C344.186 248.723 344.176 248.907 344.156 249.1H339.776C339.809 249.64 339.993 250.063 340.326 250.37C340.666 250.67 341.076 250.82 341.556 250.82C341.949 250.82 342.276 250.73 342.536 250.55C342.803 250.363 342.989 250.117 343.096 249.81H344.076C343.929 250.337 343.636 250.767 343.196 251.1C342.756 251.427 342.209 251.59 341.556 251.59C341.036 251.59 340.569 251.473 340.156 251.24C339.749 251.007 339.429 250.677 339.196 250.25C338.963 249.817 338.846 249.317 338.846 248.75C338.846 248.183 338.959 247.687 339.186 247.26C339.413 246.833 339.729 246.507 340.136 246.28C340.549 246.047 341.023 245.93 341.556 245.93C342.076 245.93 342.536 246.043 342.936 246.27C343.336 246.497 343.643 246.81 343.856 247.21C344.076 247.603 344.186 248.05 344.186 248.55ZM343.246 248.36C343.246 248.013 343.169 247.717 343.016 247.47C342.863 247.217 342.653 247.027 342.386 246.9C342.126 246.767 341.836 246.7 341.516 246.7C341.056 246.7 340.663 246.847 340.336 247.14C340.016 247.433 339.833 247.84 339.786 248.36H343.246ZM348.057 245.92C348.724 245.92 349.264 246.123 349.677 246.53C350.091 246.93 350.297 247.51 350.297 248.27V251.5H349.397V248.4C349.397 247.853 349.261 247.437 348.987 247.15C348.714 246.857 348.341 246.71 347.867 246.71C347.387 246.71 347.004 246.86 346.717 247.16C346.437 247.46 346.297 247.897 346.297 248.47V251.5H345.387V246.02H346.297V246.8C346.477 246.52 346.721 246.303 347.027 246.15C347.341 245.997 347.684 245.92 348.057 245.92ZM352.894 246.77V250C352.894 250.267 352.95 250.457 353.064 250.57C353.177 250.677 353.374 250.73 353.654 250.73H354.324V251.5H353.504C352.997 251.5 352.617 251.383 352.364 251.15C352.11 250.917 351.984 250.533 351.984 250V246.77H351.274V246.02H351.984V244.64H352.894V246.02H354.324V246.77H352.894ZM360.302 251.57C359.842 251.57 359.429 251.49 359.062 251.33C358.702 251.163 358.419 250.937 358.212 250.65C358.006 250.357 357.899 250.02 357.892 249.64H358.862C358.896 249.967 359.029 250.243 359.262 250.47C359.502 250.69 359.849 250.8 360.302 250.8C360.736 250.8 361.076 250.693 361.322 250.48C361.576 250.26 361.702 249.98 361.702 249.64C361.702 249.373 361.629 249.157 361.482 248.99C361.336 248.823 361.152 248.697 360.932 248.61C360.712 248.523 360.416 248.43 360.042 248.33C359.582 248.21 359.212 248.09 358.932 247.97C358.659 247.85 358.422 247.663 358.222 247.41C358.029 247.15 357.932 246.803 357.932 246.37C357.932 245.99 358.029 245.653 358.222 245.36C358.416 245.067 358.686 244.84 359.032 244.68C359.386 244.52 359.789 244.44 360.242 244.44C360.896 244.44 361.429 244.603 361.842 244.93C362.262 245.257 362.499 245.69 362.552 246.23H361.552C361.519 245.963 361.379 245.73 361.132 245.53C360.886 245.323 360.559 245.22 360.152 245.22C359.772 245.22 359.462 245.32 359.222 245.52C358.982 245.713 358.862 245.987 358.862 246.34C358.862 246.593 358.932 246.8 359.072 246.96C359.219 247.12 359.396 247.243 359.602 247.33C359.816 247.41 360.112 247.503 360.492 247.61C360.952 247.737 361.322 247.863 361.602 247.99C361.882 248.11 362.122 248.3 362.322 248.56C362.522 248.813 362.622 249.16 362.622 249.6C362.622 249.94 362.532 250.26 362.352 250.56C362.172 250.86 361.906 251.103 361.552 251.29C361.199 251.477 360.782 251.57 360.302 251.57ZM368.961 248.55C368.961 248.723 368.951 248.907 368.931 249.1H364.551C364.585 249.64 364.768 250.063 365.101 250.37C365.441 250.67 365.851 250.82 366.331 250.82C366.725 250.82 367.051 250.73 367.311 250.55C367.578 250.363 367.765 250.117 367.871 249.81H368.851C368.705 250.337 368.411 250.767 367.971 251.1C367.531 251.427 366.985 251.59 366.331 251.59C365.811 251.59 365.345 251.473 364.931 251.24C364.525 251.007 364.205 250.677 363.971 250.25C363.738 249.817 363.621 249.317 363.621 248.75C363.621 248.183 363.735 247.687 363.961 247.26C364.188 246.833 364.505 246.507 364.911 246.28C365.325 246.047 365.798 245.93 366.331 245.93C366.851 245.93 367.311 246.043 367.711 246.27C368.111 246.497 368.418 246.81 368.631 247.21C368.851 247.603 368.961 248.05 368.961 248.55ZM368.021 248.36C368.021 248.013 367.945 247.717 367.791 247.47C367.638 247.217 367.428 247.027 367.161 246.9C366.901 246.767 366.611 246.7 366.291 246.7C365.831 246.7 365.438 246.847 365.111 247.14C364.791 247.433 364.608 247.84 364.561 248.36H368.021ZM371.273 246.77V250C371.273 250.267 371.329 250.457 371.443 250.57C371.556 250.677 371.753 250.73 372.033 250.73H372.703V251.5H371.883C371.376 251.5 370.996 251.383 370.743 251.15C370.489 250.917 370.363 250.533 370.363 250V246.77H369.653V246.02H370.363V244.64H371.273V246.02H372.703V246.77H371.273ZM378.665 246.02V251.5H377.755V250.69C377.582 250.97 377.338 251.19 377.025 251.35C376.718 251.503 376.378 251.58 376.005 251.58C375.578 251.58 375.195 251.493 374.855 251.32C374.515 251.14 374.245 250.873 374.045 250.52C373.852 250.167 373.755 249.737 373.755 249.23V246.02H374.655V249.11C374.655 249.65 374.792 250.067 375.065 250.36C375.338 250.647 375.712 250.79 376.185 250.79C376.672 250.79 377.055 250.64 377.335 250.34C377.615 250.04 377.755 249.603 377.755 249.03V246.02H378.665ZM381.112 247.03C381.292 246.717 381.558 246.457 381.912 246.25C382.272 246.037 382.688 245.93 383.162 245.93C383.648 245.93 384.088 246.047 384.482 246.28C384.882 246.513 385.195 246.843 385.422 247.27C385.648 247.69 385.762 248.18 385.762 248.74C385.762 249.293 385.648 249.787 385.422 250.22C385.195 250.653 384.882 250.99 384.482 251.23C384.088 251.47 383.648 251.59 383.162 251.59C382.695 251.59 382.282 251.487 381.922 251.28C381.568 251.067 381.298 250.803 381.112 250.49V254.1H380.202V246.02H381.112V247.03ZM384.832 248.74C384.832 248.327 384.748 247.967 384.582 247.66C384.415 247.353 384.188 247.12 383.902 246.96C383.622 246.8 383.312 246.72 382.972 246.72C382.638 246.72 382.328 246.803 382.042 246.97C381.762 247.13 381.535 247.367 381.362 247.68C381.195 247.987 381.112 248.343 381.112 248.75C381.112 249.163 381.195 249.527 381.362 249.84C381.535 250.147 381.762 250.383 382.042 250.55C382.328 250.71 382.638 250.79 382.972 250.79C383.312 250.79 383.622 250.71 383.902 250.55C384.188 250.383 384.415 250.147 384.582 249.84C384.748 249.527 384.832 249.16 384.832 248.74Z" fill="white"/>
</g>
</g>
</g>
<defs>
<filter id="filter0_d_0_3262" x="235.312" y="24.5" width="355.55" height="342.402" filterUnits="userSpaceOnUse" color-interpolation-filters="sRGB">
<feFlood flood-opacity="0" result="BackgroundImageFix"/>
<feColorMatrix in="SourceAlpha" type="matrix" values="0 0 0 0 0 0 0 0 0 0 0 0 0 0 0 0 0 0 127 0" result="hardAlpha"/>
<feOffset dx="-12" dy="20"/>
<feGaussianBlur stdDeviation="10"/>
<feComposite in2="hardAlpha" operator="out"/>
<feColorMatrix type="matrix" values="0 0 0 0 0 0 0 0 0 0 0 0 0 0 0 0 0 0 0.4 0"/>
<feBlend mode="normal" in2="BackgroundImageFix" result="effect1_dropShadow_0_3262"/>
<feBlend mode="normal" in="SourceGraphic" in2="effect1_dropShadow_0_3262" result="shape"/>
</filter>
<linearGradient id="paint0_linear_0_3262" x1="46.8315" y1="132.718" x2="46.8315" y2="152.945" gradientUnits="userSpaceOnUse">
<stop stop-color="#3B1C4B"/>
<stop offset="1" stop-color="#4043D9"/>
</linearGradient>
<linearGradient id="paint1_linear_0_3262" x1="274.391" y1="24.5" x2="568.133" y2="148.222" gradientUnits="userSpaceOnUse">
<stop stop-color="white" stop-opacity="0.06"/>
<stop offset="1" stop-color="white" stop-opacity="0"/>
</linearGradient>
<clipPath id="clip0_0_3262">
<rect width="561.19" height="320.66" fill="white" transform="translate(0 0.5)"/>
</clipPath>
<clipPath id="clip1_0_3262">
<rect width="537.19" height="293.3" fill="white" transform="translate(24 24.5)"/>
</clipPath>
<clipPath id="clip2_0_3262">
<rect width="536.03" height="293.3" fill="white" transform="translate(24.5812 24.5)"/>
</clipPath>
</defs>
</svg>
