<svg width="36" height="37" viewBox="0 0 36 37" fill="none" xmlns="http://www.w3.org/2000/svg">
<g style="mix-blend-mode:luminosity">
<path d="M32.1361 0.567383H3.23857C2.47216 0.567383 1.73714 0.871838 1.1952 1.41377C0.653271 1.9557 0.348816 2.69072 0.348816 3.45713V13.5713C0.348816 23.093 4.95797 28.8635 8.82481 32.0277C12.9897 35.434 17.1328 36.5899 17.3135 36.6387C17.5618 36.7063 17.8237 36.7063 18.072 36.6387C18.2526 36.5899 22.3904 35.434 26.5607 32.0277C30.4167 28.8635 35.0258 23.093 35.0258 13.5713V3.45713C35.0258 2.69072 34.7214 1.9557 34.1794 1.41377C33.6375 0.871838 32.9025 0.567383 32.1361 0.567383ZM32.1361 13.5713C32.1361 20.2665 29.6689 25.701 24.8033 29.7214C22.6853 31.4655 20.2764 32.8228 17.6873 33.7309C15.1321 32.8386 12.753 31.5054 10.658 29.7918C5.73459 25.7642 3.23857 20.308 3.23857 13.5713V3.45713H32.1361V13.5713ZM9.44069 18.9281C9.16957 18.657 9.01726 18.2893 9.01726 17.9059C9.01726 17.5225 9.16957 17.1548 9.44069 16.8836C9.71181 16.6125 10.0795 16.4602 10.4629 16.4602C10.8464 16.4602 11.2141 16.6125 11.4852 16.8836L14.7976 20.1978L23.8894 11.1041C24.0237 10.9699 24.1831 10.8634 24.3585 10.7908C24.5339 10.7181 24.7218 10.6807 24.9117 10.6807C25.1015 10.6807 25.2895 10.7181 25.4649 10.7908C25.6403 10.8634 25.7997 10.9699 25.9339 11.1041C26.0682 11.2384 26.1747 11.3978 26.2473 11.5732C26.32 11.7485 26.3574 11.9365 26.3574 12.1264C26.3574 12.3162 26.32 12.5042 26.2473 12.6796C26.1747 12.855 26.0682 13.0144 25.9339 13.1486L15.8198 23.2628C15.6856 23.3971 15.5263 23.5037 15.3509 23.5764C15.1755 23.6491 14.9874 23.6865 14.7976 23.6865C14.6077 23.6865 14.4197 23.6491 14.2443 23.5764C14.0689 23.5037 13.9095 23.3971 13.7753 23.2628L9.44069 18.9281Z" fill="url(#paint0_linear_168_1874)"/>
</g>
<defs>
<linearGradient id="paint0_linear_168_1874" x1="17.6873" y1="36.6894" x2="17.6873" y2="0.567383" gradientUnits="userSpaceOnUse">
<stop stop-color="#412199"/>
<stop offset="1" stop-color="#B281CA"/>
</linearGradient>
</defs>
</svg>
