<svg width="16" height="16" viewBox="0 0 16 16" fill="none" xmlns="http://www.w3.org/2000/svg">
<path d="M8.84701 1.9401L10.0687 4.40375C10.2353 4.74669 10.6796 5.07564 11.0545 5.13863L13.2688 5.50958C14.6849 5.74755 15.0182 6.7834 13.9977 7.80525L12.2762 9.54099C11.9846 9.83493 11.825 10.4018 11.9152 10.8078L12.4081 12.9565C12.7968 14.6572 11.9013 15.3152 10.4089 14.4263L8.33334 13.1875C7.95852 12.9635 7.34072 12.9635 6.95889 13.1875L4.88337 14.4263C3.39786 15.3152 2.49546 14.6502 2.88419 12.9565L3.37704 10.8078C3.46728 10.4018 3.30763 9.83493 3.01607 9.54099L1.29456 7.80525C0.281081 6.7834 0.607339 5.74755 2.02343 5.50958L4.2378 5.13863C4.60571 5.07564 5.04997 4.74669 5.21657 4.40375L6.43828 1.9401C7.10468 0.603299 8.18755 0.603299 8.84701 1.9401Z" stroke="black" stroke-linecap="round" stroke-linejoin="round"/>
</svg>
