<svg width="120" height="121" viewBox="0 0 120 121" fill="none" xmlns="http://www.w3.org/2000/svg">
<path d="M66 91.5C66.5523 91.5 67 91.0523 67 90.5C67 89.9477 66.5523 89.5 66 89.5L66 91.5ZM30.7071 53.7929C30.3166 53.4024 29.6834 53.4024 29.2929 53.7929L22.9289 60.1569C22.5384 60.5474 22.5384 61.1805 22.9289 61.5711C23.3195 61.9616 23.9526 61.9616 24.3431 61.5711L30 55.9142L35.6569 61.5711C36.0474 61.9616 36.6805 61.9616 37.0711 61.5711C37.4616 61.1805 37.4616 60.5474 37.0711 60.1569L30.7071 53.7929ZM66 89.5L31 89.5L31 91.5L66 91.5L66 89.5ZM31 89.5L31 54.5L29 54.5L29 89.5L31 89.5ZM31 89.5L31 89.5L29 89.5C29 90.6046 29.8954 91.5 31 91.5L31 89.5Z" fill="white"/>
<path d="M54 29.5C53.4477 29.5 53 29.9477 53 30.5C53 31.0523 53.4477 31.5 54 31.5L54 29.5ZM89.2929 67.2071C89.6834 67.5976 90.3166 67.5976 90.7071 67.2071L97.0711 60.8431C97.4616 60.4526 97.4616 59.8195 97.0711 59.4289C96.6805 59.0384 96.0474 59.0384 95.6569 59.4289L90 65.0858L84.3431 59.4289C83.9526 59.0384 83.3195 59.0384 82.9289 59.4289C82.5384 59.8195 82.5384 60.4526 82.9289 60.8431L89.2929 67.2071ZM54 31.5L89 31.5L89 29.5L54 29.5L54 31.5ZM89 31.5L89 66.5L91 66.5L91 31.5L89 31.5ZM89 31.5L89 31.5L91 31.5C91 30.3954 90.1046 29.5 89 29.5L89 31.5Z" fill="white" fill-opacity="0.6"/>
<g filter="url(#filter0_d_168_951)">
<rect x="96" y="84.5" width="12" height="12" rx="2" transform="rotate(90 96 84.5)" fill="#FFFDFF"/>
</g>
<g filter="url(#filter1_d_168_951)">
<rect x="24" y="24.5" width="12" height="12" rx="2" fill="#FFFDFF"/>
</g>
<defs>
<filter id="filter0_d_168_951" x="72" y="72.5" width="36" height="36" filterUnits="userSpaceOnUse" color-interpolation-filters="sRGB">
<feFlood flood-opacity="0" result="BackgroundImageFix"/>
<feColorMatrix in="SourceAlpha" type="matrix" values="0 0 0 0 0 0 0 0 0 0 0 0 0 0 0 0 0 0 127 0" result="hardAlpha"/>
<feMorphology radius="4" operator="dilate" in="SourceAlpha" result="effect1_dropShadow_168_951"/>
<feOffset/>
<feGaussianBlur stdDeviation="4"/>
<feComposite in2="hardAlpha" operator="out"/>
<feColorMatrix type="matrix" values="0 0 0 0 0.501961 0 0 0 0 0.14902 0 0 0 0 0.14902 0 0 0 1 0"/>
<feBlend mode="normal" in2="BackgroundImageFix" result="effect1_dropShadow_168_951"/>
<feBlend mode="normal" in="SourceGraphic" in2="effect1_dropShadow_168_951" result="shape"/>
</filter>
<filter id="filter1_d_168_951" x="12" y="12.5" width="36" height="36" filterUnits="userSpaceOnUse" color-interpolation-filters="sRGB">
<feFlood flood-opacity="0" result="BackgroundImageFix"/>
<feColorMatrix in="SourceAlpha" type="matrix" values="0 0 0 0 0 0 0 0 0 0 0 0 0 0 0 0 0 0 127 0" result="hardAlpha"/>
<feMorphology radius="4" operator="dilate" in="SourceAlpha" result="effect1_dropShadow_168_951"/>
<feOffset/>
<feGaussianBlur stdDeviation="4"/>
<feComposite in2="hardAlpha" operator="out"/>
<feColorMatrix type="matrix" values="0 0 0 0 0.113725 0 0 0 0 0.333333 0 0 0 0 0.188392 0 0 0 1 0"/>
<feBlend mode="normal" in2="BackgroundImageFix" result="effect1_dropShadow_168_951"/>
<feBlend mode="normal" in="SourceGraphic" in2="effect1_dropShadow_168_951" result="shape"/>
</filter>
</defs>
</svg>
